<?xml version="1.0" encoding="utf-8" standalone="no"?>
<!DOCTYPE svg PUBLIC "-//W3C//DTD SVG 1.1//EN"
  "http://www.w3.org/Graphics/SVG/1.1/DTD/svg11.dtd">
<!-- Created with matplotlib (https://matplotlib.org/) -->
<svg height="424.562375pt" version="1.1" viewBox="0 0 1288.748125 424.562375" width="1288.748125pt" xmlns="http://www.w3.org/2000/svg" xmlns:xlink="http://www.w3.org/1999/xlink">
 <defs>
  <style type="text/css">
*{stroke-linecap:butt;stroke-linejoin:round;}
  </style>
 </defs>
 <g id="figure_1">
  <g id="patch_1">
   <path d="M 0 424.562375
L 1288.748125 424.562375
L 1288.748125 0
L 0 0
z
" style="fill:#ffffff;"/>
  </g>
  <g id="axes_1">
   <g id="patch_2">
    <path d="M 73.738125 352.388875
L 1281.548125 352.388875
L 1281.548125 28.396875
L 73.738125 28.396875
z
" style="fill:#ffffff;"/>
   </g>
   <g id="matplotlib.axis_1">
    <g id="xtick_1">
     <g id="line2d_1">
      <defs>
       <path d="M 0 0
L 0 3.5
" id="m2d988ddb38" style="stroke:#000000;stroke-width:0.8;"/>
      </defs>
      <g>
       <use style="stroke:#000000;stroke-width:0.8;" x="169.305583" xlink:href="#m2d988ddb38" y="352.388875"/>
      </g>
     </g>
     <g id="text_1">
      <!-- Base (3 Month -->
      <defs>
       <path d="M 19.671875 34.8125
L 19.671875 8.109375
L 35.5 8.109375
Q 43.453125 8.109375 47.28125 11.40625
Q 51.125 14.703125 51.125 21.484375
Q 51.125 28.328125 47.28125 31.5625
Q 43.453125 34.8125 35.5 34.8125
z
M 19.671875 64.796875
L 19.671875 42.828125
L 34.28125 42.828125
Q 41.5 42.828125 45.03125 45.53125
Q 48.578125 48.25 48.578125 53.8125
Q 48.578125 59.328125 45.03125 62.0625
Q 41.5 64.796875 34.28125 64.796875
z
M 9.8125 72.90625
L 35.015625 72.90625
Q 46.296875 72.90625 52.390625 68.21875
Q 58.5 63.53125 58.5 54.890625
Q 58.5 48.1875 55.375 44.234375
Q 52.25 40.28125 46.1875 39.3125
Q 53.46875 37.75 57.5 32.78125
Q 61.53125 27.828125 61.53125 20.40625
Q 61.53125 10.640625 54.890625 5.3125
Q 48.25 0 35.984375 0
L 9.8125 0
z
" id="DejaVuSans-66"/>
       <path d="M 34.28125 27.484375
Q 23.390625 27.484375 19.1875 25
Q 14.984375 22.515625 14.984375 16.5
Q 14.984375 11.71875 18.140625 8.90625
Q 21.296875 6.109375 26.703125 6.109375
Q 34.1875 6.109375 38.703125 11.40625
Q 43.21875 16.703125 43.21875 25.484375
L 43.21875 27.484375
z
M 52.203125 31.203125
L 52.203125 0
L 43.21875 0
L 43.21875 8.296875
Q 40.140625 3.328125 35.546875 0.953125
Q 30.953125 -1.421875 24.3125 -1.421875
Q 15.921875 -1.421875 10.953125 3.296875
Q 6 8.015625 6 15.921875
Q 6 25.140625 12.171875 29.828125
Q 18.359375 34.515625 30.609375 34.515625
L 43.21875 34.515625
L 43.21875 35.40625
Q 43.21875 41.609375 39.140625 45
Q 35.0625 48.390625 27.6875 48.390625
Q 23 48.390625 18.546875 47.265625
Q 14.109375 46.140625 10.015625 43.890625
L 10.015625 52.203125
Q 14.9375 54.109375 19.578125 55.046875
Q 24.21875 56 28.609375 56
Q 40.484375 56 46.34375 49.84375
Q 52.203125 43.703125 52.203125 31.203125
z
" id="DejaVuSans-97"/>
       <path d="M 44.28125 53.078125
L 44.28125 44.578125
Q 40.484375 46.53125 36.375 47.5
Q 32.28125 48.484375 27.875 48.484375
Q 21.1875 48.484375 17.84375 46.4375
Q 14.5 44.390625 14.5 40.28125
Q 14.5 37.15625 16.890625 35.375
Q 19.28125 33.59375 26.515625 31.984375
L 29.59375 31.296875
Q 39.15625 29.25 43.1875 25.515625
Q 47.21875 21.78125 47.21875 15.09375
Q 47.21875 7.46875 41.1875 3.015625
Q 35.15625 -1.421875 24.609375 -1.421875
Q 20.21875 -1.421875 15.453125 -0.5625
Q 10.6875 0.296875 5.421875 2
L 5.421875 11.28125
Q 10.40625 8.6875 15.234375 7.390625
Q 20.0625 6.109375 24.8125 6.109375
Q 31.15625 6.109375 34.5625 8.28125
Q 37.984375 10.453125 37.984375 14.40625
Q 37.984375 18.0625 35.515625 20.015625
Q 33.0625 21.96875 24.703125 23.78125
L 21.578125 24.515625
Q 13.234375 26.265625 9.515625 29.90625
Q 5.8125 33.546875 5.8125 39.890625
Q 5.8125 47.609375 11.28125 51.796875
Q 16.75 56 26.8125 56
Q 31.78125 56 36.171875 55.265625
Q 40.578125 54.546875 44.28125 53.078125
z
" id="DejaVuSans-115"/>
       <path d="M 56.203125 29.59375
L 56.203125 25.203125
L 14.890625 25.203125
Q 15.484375 15.921875 20.484375 11.0625
Q 25.484375 6.203125 34.421875 6.203125
Q 39.59375 6.203125 44.453125 7.46875
Q 49.3125 8.734375 54.109375 11.28125
L 54.109375 2.78125
Q 49.265625 0.734375 44.1875 -0.34375
Q 39.109375 -1.421875 33.890625 -1.421875
Q 20.796875 -1.421875 13.15625 6.1875
Q 5.515625 13.8125 5.515625 26.8125
Q 5.515625 40.234375 12.765625 48.109375
Q 20.015625 56 32.328125 56
Q 43.359375 56 49.78125 48.890625
Q 56.203125 41.796875 56.203125 29.59375
z
M 47.21875 32.234375
Q 47.125 39.59375 43.09375 43.984375
Q 39.0625 48.390625 32.421875 48.390625
Q 24.90625 48.390625 20.390625 44.140625
Q 15.875 39.890625 15.1875 32.171875
z
" id="DejaVuSans-101"/>
       <path id="DejaVuSans-32"/>
       <path d="M 31 75.875
Q 24.46875 64.65625 21.28125 53.65625
Q 18.109375 42.671875 18.109375 31.390625
Q 18.109375 20.125 21.3125 9.0625
Q 24.515625 -2 31 -13.1875
L 23.1875 -13.1875
Q 15.875 -1.703125 12.234375 9.375
Q 8.59375 20.453125 8.59375 31.390625
Q 8.59375 42.28125 12.203125 53.3125
Q 15.828125 64.359375 23.1875 75.875
z
" id="DejaVuSans-40"/>
       <path d="M 40.578125 39.3125
Q 47.65625 37.796875 51.625 33
Q 55.609375 28.21875 55.609375 21.1875
Q 55.609375 10.40625 48.1875 4.484375
Q 40.765625 -1.421875 27.09375 -1.421875
Q 22.515625 -1.421875 17.65625 -0.515625
Q 12.796875 0.390625 7.625 2.203125
L 7.625 11.71875
Q 11.71875 9.328125 16.59375 8.109375
Q 21.484375 6.890625 26.8125 6.890625
Q 36.078125 6.890625 40.9375 10.546875
Q 45.796875 14.203125 45.796875 21.1875
Q 45.796875 27.640625 41.28125 31.265625
Q 36.765625 34.90625 28.71875 34.90625
L 20.21875 34.90625
L 20.21875 43.015625
L 29.109375 43.015625
Q 36.375 43.015625 40.234375 45.921875
Q 44.09375 48.828125 44.09375 54.296875
Q 44.09375 59.90625 40.109375 62.90625
Q 36.140625 65.921875 28.71875 65.921875
Q 24.65625 65.921875 20.015625 65.03125
Q 15.375 64.15625 9.8125 62.3125
L 9.8125 71.09375
Q 15.4375 72.65625 20.34375 73.4375
Q 25.25 74.21875 29.59375 74.21875
Q 40.828125 74.21875 47.359375 69.109375
Q 53.90625 64.015625 53.90625 55.328125
Q 53.90625 49.265625 50.4375 45.09375
Q 46.96875 40.921875 40.578125 39.3125
z
" id="DejaVuSans-51"/>
       <path d="M 9.8125 72.90625
L 24.515625 72.90625
L 43.109375 23.296875
L 61.8125 72.90625
L 76.515625 72.90625
L 76.515625 0
L 66.890625 0
L 66.890625 64.015625
L 48.09375 14.015625
L 38.1875 14.015625
L 19.390625 64.015625
L 19.390625 0
L 9.8125 0
z
" id="DejaVuSans-77"/>
       <path d="M 30.609375 48.390625
Q 23.390625 48.390625 19.1875 42.75
Q 14.984375 37.109375 14.984375 27.296875
Q 14.984375 17.484375 19.15625 11.84375
Q 23.34375 6.203125 30.609375 6.203125
Q 37.796875 6.203125 41.984375 11.859375
Q 46.1875 17.53125 46.1875 27.296875
Q 46.1875 37.015625 41.984375 42.703125
Q 37.796875 48.390625 30.609375 48.390625
z
M 30.609375 56
Q 42.328125 56 49.015625 48.375
Q 55.71875 40.765625 55.71875 27.296875
Q 55.71875 13.875 49.015625 6.21875
Q 42.328125 -1.421875 30.609375 -1.421875
Q 18.84375 -1.421875 12.171875 6.21875
Q 5.515625 13.875 5.515625 27.296875
Q 5.515625 40.765625 12.171875 48.375
Q 18.84375 56 30.609375 56
z
" id="DejaVuSans-111"/>
       <path d="M 54.890625 33.015625
L 54.890625 0
L 45.90625 0
L 45.90625 32.71875
Q 45.90625 40.484375 42.875 44.328125
Q 39.84375 48.1875 33.796875 48.1875
Q 26.515625 48.1875 22.3125 43.546875
Q 18.109375 38.921875 18.109375 30.90625
L 18.109375 0
L 9.078125 0
L 9.078125 54.6875
L 18.109375 54.6875
L 18.109375 46.1875
Q 21.34375 51.125 25.703125 53.5625
Q 30.078125 56 35.796875 56
Q 45.21875 56 50.046875 50.171875
Q 54.890625 44.34375 54.890625 33.015625
z
" id="DejaVuSans-110"/>
       <path d="M 18.3125 70.21875
L 18.3125 54.6875
L 36.8125 54.6875
L 36.8125 47.703125
L 18.3125 47.703125
L 18.3125 18.015625
Q 18.3125 11.328125 20.140625 9.421875
Q 21.96875 7.515625 27.59375 7.515625
L 36.8125 7.515625
L 36.8125 0
L 27.59375 0
Q 17.1875 0 13.234375 3.875
Q 9.28125 7.765625 9.28125 18.015625
L 9.28125 47.703125
L 2.6875 47.703125
L 2.6875 54.6875
L 9.28125 54.6875
L 9.28125 70.21875
z
" id="DejaVuSans-116"/>
       <path d="M 54.890625 33.015625
L 54.890625 0
L 45.90625 0
L 45.90625 32.71875
Q 45.90625 40.484375 42.875 44.328125
Q 39.84375 48.1875 33.796875 48.1875
Q 26.515625 48.1875 22.3125 43.546875
Q 18.109375 38.921875 18.109375 30.90625
L 18.109375 0
L 9.078125 0
L 9.078125 75.984375
L 18.109375 75.984375
L 18.109375 46.1875
Q 21.34375 51.125 25.703125 53.5625
Q 30.078125 56 35.796875 56
Q 45.21875 56 50.046875 50.171875
Q 54.890625 44.34375 54.890625 33.015625
z
" id="DejaVuSans-104"/>
      </defs>
      <g transform="translate(125.917145 368.507)scale(0.12 -0.12)">
       <use xlink:href="#DejaVuSans-66"/>
       <use x="68.603516" xlink:href="#DejaVuSans-97"/>
       <use x="129.882812" xlink:href="#DejaVuSans-115"/>
       <use x="181.982422" xlink:href="#DejaVuSans-101"/>
       <use x="243.505859" xlink:href="#DejaVuSans-32"/>
       <use x="275.292969" xlink:href="#DejaVuSans-40"/>
       <use x="314.306641" xlink:href="#DejaVuSans-51"/>
       <use x="377.929688" xlink:href="#DejaVuSans-32"/>
       <use x="409.716797" xlink:href="#DejaVuSans-77"/>
       <use x="495.996094" xlink:href="#DejaVuSans-111"/>
       <use x="557.177734" xlink:href="#DejaVuSans-110"/>
       <use x="620.556641" xlink:href="#DejaVuSans-116"/>
       <use x="659.765625" xlink:href="#DejaVuSans-104"/>
      </g>
      <!-- Summer -->
      <defs>
       <path d="M 53.515625 70.515625
L 53.515625 60.890625
Q 47.90625 63.578125 42.921875 64.890625
Q 37.9375 66.21875 33.296875 66.21875
Q 25.25 66.21875 20.875 63.09375
Q 16.5 59.96875 16.5 54.203125
Q 16.5 49.359375 19.40625 46.890625
Q 22.3125 44.4375 30.421875 42.921875
L 36.375 41.703125
Q 47.40625 39.59375 52.65625 34.296875
Q 57.90625 29 57.90625 20.125
Q 57.90625 9.515625 50.796875 4.046875
Q 43.703125 -1.421875 29.984375 -1.421875
Q 24.8125 -1.421875 18.96875 -0.25
Q 13.140625 0.921875 6.890625 3.21875
L 6.890625 13.375
Q 12.890625 10.015625 18.65625 8.296875
Q 24.421875 6.59375 29.984375 6.59375
Q 38.421875 6.59375 43.015625 9.90625
Q 47.609375 13.234375 47.609375 19.390625
Q 47.609375 24.75 44.3125 27.78125
Q 41.015625 30.8125 33.5 32.328125
L 27.484375 33.5
Q 16.453125 35.6875 11.515625 40.375
Q 6.59375 45.0625 6.59375 53.421875
Q 6.59375 63.09375 13.40625 68.65625
Q 20.21875 74.21875 32.171875 74.21875
Q 37.3125 74.21875 42.625 73.28125
Q 47.953125 72.359375 53.515625 70.515625
z
" id="DejaVuSans-83"/>
       <path d="M 8.5 21.578125
L 8.5 54.6875
L 17.484375 54.6875
L 17.484375 21.921875
Q 17.484375 14.15625 20.5 10.265625
Q 23.53125 6.390625 29.59375 6.390625
Q 36.859375 6.390625 41.078125 11.03125
Q 45.3125 15.671875 45.3125 23.6875
L 45.3125 54.6875
L 54.296875 54.6875
L 54.296875 0
L 45.3125 0
L 45.3125 8.40625
Q 42.046875 3.421875 37.71875 1
Q 33.40625 -1.421875 27.6875 -1.421875
Q 18.265625 -1.421875 13.375 4.4375
Q 8.5 10.296875 8.5 21.578125
z
M 31.109375 56
z
" id="DejaVuSans-117"/>
       <path d="M 52 44.1875
Q 55.375 50.25 60.0625 53.125
Q 64.75 56 71.09375 56
Q 79.640625 56 84.28125 50.015625
Q 88.921875 44.046875 88.921875 33.015625
L 88.921875 0
L 79.890625 0
L 79.890625 32.71875
Q 79.890625 40.578125 77.09375 44.375
Q 74.3125 48.1875 68.609375 48.1875
Q 61.625 48.1875 57.5625 43.546875
Q 53.515625 38.921875 53.515625 30.90625
L 53.515625 0
L 44.484375 0
L 44.484375 32.71875
Q 44.484375 40.625 41.703125 44.40625
Q 38.921875 48.1875 33.109375 48.1875
Q 26.21875 48.1875 22.15625 43.53125
Q 18.109375 38.875 18.109375 30.90625
L 18.109375 0
L 9.078125 0
L 9.078125 54.6875
L 18.109375 54.6875
L 18.109375 46.1875
Q 21.1875 51.21875 25.484375 53.609375
Q 29.78125 56 35.6875 56
Q 41.65625 56 45.828125 52.96875
Q 50 49.953125 52 44.1875
z
" id="DejaVuSans-109"/>
       <path d="M 41.109375 46.296875
Q 39.59375 47.171875 37.8125 47.578125
Q 36.03125 48 33.890625 48
Q 26.265625 48 22.1875 43.046875
Q 18.109375 38.09375 18.109375 28.8125
L 18.109375 0
L 9.078125 0
L 9.078125 54.6875
L 18.109375 54.6875
L 18.109375 46.1875
Q 20.953125 51.171875 25.484375 53.578125
Q 30.03125 56 36.53125 56
Q 37.453125 56 38.578125 55.875
Q 39.703125 55.765625 41.0625 55.515625
z
" id="DejaVuSans-114"/>
      </defs>
      <g transform="translate(143.846833 381.944375)scale(0.12 -0.12)">
       <use xlink:href="#DejaVuSans-83"/>
       <use x="63.476562" xlink:href="#DejaVuSans-117"/>
       <use x="126.855469" xlink:href="#DejaVuSans-109"/>
       <use x="224.267578" xlink:href="#DejaVuSans-109"/>
       <use x="321.679688" xlink:href="#DejaVuSans-101"/>
       <use x="383.203125" xlink:href="#DejaVuSans-114"/>
      </g>
      <!-- Visit) -->
      <defs>
       <path d="M 28.609375 0
L 0.78125 72.90625
L 11.078125 72.90625
L 34.1875 11.53125
L 57.328125 72.90625
L 67.578125 72.90625
L 39.796875 0
z
" id="DejaVuSans-86"/>
       <path d="M 9.421875 54.6875
L 18.40625 54.6875
L 18.40625 0
L 9.421875 0
z
M 9.421875 75.984375
L 18.40625 75.984375
L 18.40625 64.59375
L 9.421875 64.59375
z
" id="DejaVuSans-105"/>
       <path d="M 8.015625 75.875
L 15.828125 75.875
Q 23.140625 64.359375 26.78125 53.3125
Q 30.421875 42.28125 30.421875 31.390625
Q 30.421875 20.453125 26.78125 9.375
Q 23.140625 -1.703125 15.828125 -13.1875
L 8.015625 -13.1875
Q 14.5 -2 17.703125 9.0625
Q 20.90625 20.125 20.90625 31.390625
Q 20.90625 42.671875 17.703125 53.65625
Q 14.5 64.65625 8.015625 75.875
z
" id="DejaVuSans-41"/>
      </defs>
      <g transform="translate(154.183708 395.38175)scale(0.12 -0.12)">
       <use xlink:href="#DejaVuSans-86"/>
       <use x="66.158203" xlink:href="#DejaVuSans-105"/>
       <use x="93.941406" xlink:href="#DejaVuSans-115"/>
       <use x="146.041016" xlink:href="#DejaVuSans-105"/>
       <use x="173.824219" xlink:href="#DejaVuSans-116"/>
       <use x="213.033203" xlink:href="#DejaVuSans-41"/>
      </g>
     </g>
    </g>
    <g id="xtick_2">
     <g id="line2d_2">
      <g>
       <use style="stroke:#000000;stroke-width:0.8;" x="270.973091" xlink:href="#m2d988ddb38" y="352.388875"/>
      </g>
     </g>
     <g id="text_2">
      <!-- No Weather -->
      <defs>
       <path d="M 9.8125 72.90625
L 23.09375 72.90625
L 55.421875 11.921875
L 55.421875 72.90625
L 64.984375 72.90625
L 64.984375 0
L 51.703125 0
L 19.390625 60.984375
L 19.390625 0
L 9.8125 0
z
" id="DejaVuSans-78"/>
       <path d="M 3.328125 72.90625
L 13.28125 72.90625
L 28.609375 11.28125
L 43.890625 72.90625
L 54.984375 72.90625
L 70.3125 11.28125
L 85.59375 72.90625
L 95.609375 72.90625
L 77.296875 0
L 64.890625 0
L 49.515625 63.28125
L 33.984375 0
L 21.578125 0
z
" id="DejaVuSans-87"/>
      </defs>
      <g transform="translate(235.644341 368.507)scale(0.12 -0.12)">
       <use xlink:href="#DejaVuSans-78"/>
       <use x="74.804688" xlink:href="#DejaVuSans-111"/>
       <use x="135.986328" xlink:href="#DejaVuSans-32"/>
       <use x="167.773438" xlink:href="#DejaVuSans-87"/>
       <use x="260.775391" xlink:href="#DejaVuSans-101"/>
       <use x="322.298828" xlink:href="#DejaVuSans-97"/>
       <use x="383.578125" xlink:href="#DejaVuSans-116"/>
       <use x="422.787109" xlink:href="#DejaVuSans-104"/>
       <use x="486.166016" xlink:href="#DejaVuSans-101"/>
       <use x="547.689453" xlink:href="#DejaVuSans-114"/>
      </g>
     </g>
    </g>
    <g id="xtick_3">
     <g id="line2d_3">
      <g>
       <use style="stroke:#000000;stroke-width:0.8;" x="372.6406" xlink:href="#m2d988ddb38" y="352.388875"/>
      </g>
     </g>
     <g id="text_3">
      <!-- Doubled MTBF -->
      <defs>
       <path d="M 19.671875 64.796875
L 19.671875 8.109375
L 31.59375 8.109375
Q 46.6875 8.109375 53.6875 14.9375
Q 60.6875 21.78125 60.6875 36.53125
Q 60.6875 51.171875 53.6875 57.984375
Q 46.6875 64.796875 31.59375 64.796875
z
M 9.8125 72.90625
L 30.078125 72.90625
Q 51.265625 72.90625 61.171875 64.09375
Q 71.09375 55.28125 71.09375 36.53125
Q 71.09375 17.671875 61.125 8.828125
Q 51.171875 0 30.078125 0
L 9.8125 0
z
" id="DejaVuSans-68"/>
       <path d="M 48.6875 27.296875
Q 48.6875 37.203125 44.609375 42.84375
Q 40.53125 48.484375 33.40625 48.484375
Q 26.265625 48.484375 22.1875 42.84375
Q 18.109375 37.203125 18.109375 27.296875
Q 18.109375 17.390625 22.1875 11.75
Q 26.265625 6.109375 33.40625 6.109375
Q 40.53125 6.109375 44.609375 11.75
Q 48.6875 17.390625 48.6875 27.296875
z
M 18.109375 46.390625
Q 20.953125 51.265625 25.265625 53.625
Q 29.59375 56 35.59375 56
Q 45.5625 56 51.78125 48.09375
Q 58.015625 40.1875 58.015625 27.296875
Q 58.015625 14.40625 51.78125 6.484375
Q 45.5625 -1.421875 35.59375 -1.421875
Q 29.59375 -1.421875 25.265625 0.953125
Q 20.953125 3.328125 18.109375 8.203125
L 18.109375 0
L 9.078125 0
L 9.078125 75.984375
L 18.109375 75.984375
z
" id="DejaVuSans-98"/>
       <path d="M 9.421875 75.984375
L 18.40625 75.984375
L 18.40625 0
L 9.421875 0
z
" id="DejaVuSans-108"/>
       <path d="M 45.40625 46.390625
L 45.40625 75.984375
L 54.390625 75.984375
L 54.390625 0
L 45.40625 0
L 45.40625 8.203125
Q 42.578125 3.328125 38.25 0.953125
Q 33.9375 -1.421875 27.875 -1.421875
Q 17.96875 -1.421875 11.734375 6.484375
Q 5.515625 14.40625 5.515625 27.296875
Q 5.515625 40.1875 11.734375 48.09375
Q 17.96875 56 27.875 56
Q 33.9375 56 38.25 53.625
Q 42.578125 51.265625 45.40625 46.390625
z
M 14.796875 27.296875
Q 14.796875 17.390625 18.875 11.75
Q 22.953125 6.109375 30.078125 6.109375
Q 37.203125 6.109375 41.296875 11.75
Q 45.40625 17.390625 45.40625 27.296875
Q 45.40625 37.203125 41.296875 42.84375
Q 37.203125 48.484375 30.078125 48.484375
Q 22.953125 48.484375 18.875 42.84375
Q 14.796875 37.203125 14.796875 27.296875
z
" id="DejaVuSans-100"/>
       <path d="M -0.296875 72.90625
L 61.375 72.90625
L 61.375 64.59375
L 35.5 64.59375
L 35.5 0
L 25.59375 0
L 25.59375 64.59375
L -0.296875 64.59375
z
" id="DejaVuSans-84"/>
       <path d="M 9.8125 72.90625
L 51.703125 72.90625
L 51.703125 64.59375
L 19.671875 64.59375
L 19.671875 43.109375
L 48.578125 43.109375
L 48.578125 34.8125
L 19.671875 34.8125
L 19.671875 0
L 9.8125 0
z
" id="DejaVuSans-70"/>
      </defs>
      <g transform="translate(329.254037 368.507)scale(0.12 -0.12)">
       <use xlink:href="#DejaVuSans-68"/>
       <use x="77.001953" xlink:href="#DejaVuSans-111"/>
       <use x="138.183594" xlink:href="#DejaVuSans-117"/>
       <use x="201.5625" xlink:href="#DejaVuSans-98"/>
       <use x="265.039062" xlink:href="#DejaVuSans-108"/>
       <use x="292.822266" xlink:href="#DejaVuSans-101"/>
       <use x="354.345703" xlink:href="#DejaVuSans-100"/>
       <use x="417.822266" xlink:href="#DejaVuSans-32"/>
       <use x="449.609375" xlink:href="#DejaVuSans-77"/>
       <use x="535.888672" xlink:href="#DejaVuSans-84"/>
       <use x="596.972656" xlink:href="#DejaVuSans-66"/>
       <use x="665.576172" xlink:href="#DejaVuSans-70"/>
      </g>
     </g>
    </g>
    <g id="xtick_4">
     <g id="line2d_4">
      <g>
       <use style="stroke:#000000;stroke-width:0.8;" x="474.308108" xlink:href="#m2d988ddb38" y="352.388875"/>
      </g>
     </g>
     <g id="text_4">
      <!-- Halved MTBF -->
      <defs>
       <path d="M 9.8125 72.90625
L 19.671875 72.90625
L 19.671875 43.015625
L 55.515625 43.015625
L 55.515625 72.90625
L 65.375 72.90625
L 65.375 0
L 55.515625 0
L 55.515625 34.71875
L 19.671875 34.71875
L 19.671875 0
L 9.8125 0
z
" id="DejaVuSans-72"/>
       <path d="M 2.984375 54.6875
L 12.5 54.6875
L 29.59375 8.796875
L 46.6875 54.6875
L 56.203125 54.6875
L 35.6875 0
L 23.484375 0
z
" id="DejaVuSans-118"/>
      </defs>
      <g transform="translate(435.084046 368.507)scale(0.12 -0.12)">
       <use xlink:href="#DejaVuSans-72"/>
       <use x="75.195312" xlink:href="#DejaVuSans-97"/>
       <use x="136.474609" xlink:href="#DejaVuSans-108"/>
       <use x="164.257812" xlink:href="#DejaVuSans-118"/>
       <use x="223.4375" xlink:href="#DejaVuSans-101"/>
       <use x="284.960938" xlink:href="#DejaVuSans-100"/>
       <use x="348.4375" xlink:href="#DejaVuSans-32"/>
       <use x="380.224609" xlink:href="#DejaVuSans-77"/>
       <use x="466.503906" xlink:href="#DejaVuSans-84"/>
       <use x="527.587891" xlink:href="#DejaVuSans-66"/>
       <use x="596.191406" xlink:href="#DejaVuSans-70"/>
      </g>
     </g>
    </g>
    <g id="xtick_5">
     <g id="line2d_5">
      <g>
       <use style="stroke:#000000;stroke-width:0.8;" x="575.975617" xlink:href="#m2d988ddb38" y="352.388875"/>
      </g>
     </g>
     <g id="text_5">
      <!-- 2 Month -->
      <defs>
       <path d="M 19.1875 8.296875
L 53.609375 8.296875
L 53.609375 0
L 7.328125 0
L 7.328125 8.296875
Q 12.9375 14.109375 22.625 23.890625
Q 32.328125 33.6875 34.8125 36.53125
Q 39.546875 41.84375 41.421875 45.53125
Q 43.3125 49.21875 43.3125 52.78125
Q 43.3125 58.59375 39.234375 62.25
Q 35.15625 65.921875 28.609375 65.921875
Q 23.96875 65.921875 18.8125 64.3125
Q 13.671875 62.703125 7.8125 59.421875
L 7.8125 69.390625
Q 13.765625 71.78125 18.9375 73
Q 24.125 74.21875 28.421875 74.21875
Q 39.75 74.21875 46.484375 68.546875
Q 53.21875 62.890625 53.21875 53.421875
Q 53.21875 48.921875 51.53125 44.890625
Q 49.859375 40.875 45.40625 35.40625
Q 44.1875 33.984375 37.640625 27.21875
Q 31.109375 20.453125 19.1875 8.296875
z
" id="DejaVuSans-50"/>
      </defs>
      <g transform="translate(551.445929 368.507)scale(0.12 -0.12)">
       <use xlink:href="#DejaVuSans-50"/>
       <use x="63.623047" xlink:href="#DejaVuSans-32"/>
       <use x="95.410156" xlink:href="#DejaVuSans-77"/>
       <use x="181.689453" xlink:href="#DejaVuSans-111"/>
       <use x="242.871094" xlink:href="#DejaVuSans-110"/>
       <use x="306.25" xlink:href="#DejaVuSans-116"/>
       <use x="345.458984" xlink:href="#DejaVuSans-104"/>
      </g>
      <!-- Visit -->
      <g transform="translate(563.194679 381.944375)scale(0.12 -0.12)">
       <use xlink:href="#DejaVuSans-86"/>
       <use x="66.158203" xlink:href="#DejaVuSans-105"/>
       <use x="93.941406" xlink:href="#DejaVuSans-115"/>
       <use x="146.041016" xlink:href="#DejaVuSans-105"/>
       <use x="173.824219" xlink:href="#DejaVuSans-116"/>
      </g>
     </g>
    </g>
    <g id="xtick_6">
     <g id="line2d_6">
      <g>
       <use style="stroke:#000000;stroke-width:0.8;" x="677.643125" xlink:href="#m2d988ddb38" y="352.388875"/>
      </g>
     </g>
     <g id="text_6">
      <!-- 2 Month Visit -->
      <g transform="translate(638.425625 368.507)scale(0.12 -0.12)">
       <use xlink:href="#DejaVuSans-50"/>
       <use x="63.623047" xlink:href="#DejaVuSans-32"/>
       <use x="95.410156" xlink:href="#DejaVuSans-77"/>
       <use x="181.689453" xlink:href="#DejaVuSans-111"/>
       <use x="242.871094" xlink:href="#DejaVuSans-110"/>
       <use x="306.25" xlink:href="#DejaVuSans-116"/>
       <use x="345.458984" xlink:href="#DejaVuSans-104"/>
       <use x="408.837891" xlink:href="#DejaVuSans-32"/>
       <use x="440.625" xlink:href="#DejaVuSans-86"/>
       <use x="506.783203" xlink:href="#DejaVuSans-105"/>
       <use x="534.566406" xlink:href="#DejaVuSans-115"/>
       <use x="586.666016" xlink:href="#DejaVuSans-105"/>
       <use x="614.449219" xlink:href="#DejaVuSans-116"/>
      </g>
      <!-- w/o Weather -->
      <defs>
       <path d="M 4.203125 54.6875
L 13.1875 54.6875
L 24.421875 12.015625
L 35.59375 54.6875
L 46.1875 54.6875
L 57.421875 12.015625
L 68.609375 54.6875
L 77.59375 54.6875
L 63.28125 0
L 52.6875 0
L 40.921875 44.828125
L 29.109375 0
L 18.5 0
z
" id="DejaVuSans-119"/>
       <path d="M 25.390625 72.90625
L 33.6875 72.90625
L 8.296875 -9.28125
L 0 -9.28125
z
" id="DejaVuSans-47"/>
      </defs>
      <g transform="translate(639.875 381.944375)scale(0.12 -0.12)">
       <use xlink:href="#DejaVuSans-119"/>
       <use x="81.787109" xlink:href="#DejaVuSans-47"/>
       <use x="115.478516" xlink:href="#DejaVuSans-111"/>
       <use x="176.660156" xlink:href="#DejaVuSans-32"/>
       <use x="208.447266" xlink:href="#DejaVuSans-87"/>
       <use x="301.449219" xlink:href="#DejaVuSans-101"/>
       <use x="362.972656" xlink:href="#DejaVuSans-97"/>
       <use x="424.251953" xlink:href="#DejaVuSans-116"/>
       <use x="463.460938" xlink:href="#DejaVuSans-104"/>
       <use x="526.839844" xlink:href="#DejaVuSans-101"/>
       <use x="588.363281" xlink:href="#DejaVuSans-114"/>
      </g>
     </g>
    </g>
    <g id="xtick_7">
     <g id="line2d_7">
      <g>
       <use style="stroke:#000000;stroke-width:0.8;" x="779.310633" xlink:href="#m2d988ddb38" y="352.388875"/>
      </g>
     </g>
     <g id="text_7">
      <!-- 1 Month -->
      <defs>
       <path d="M 12.40625 8.296875
L 28.515625 8.296875
L 28.515625 63.921875
L 10.984375 60.40625
L 10.984375 69.390625
L 28.421875 72.90625
L 38.28125 72.90625
L 38.28125 8.296875
L 54.390625 8.296875
L 54.390625 0
L 12.40625 0
z
" id="DejaVuSans-49"/>
      </defs>
      <g transform="translate(754.780946 368.507)scale(0.12 -0.12)">
       <use xlink:href="#DejaVuSans-49"/>
       <use x="63.623047" xlink:href="#DejaVuSans-32"/>
       <use x="95.410156" xlink:href="#DejaVuSans-77"/>
       <use x="181.689453" xlink:href="#DejaVuSans-111"/>
       <use x="242.871094" xlink:href="#DejaVuSans-110"/>
       <use x="306.25" xlink:href="#DejaVuSans-116"/>
       <use x="345.458984" xlink:href="#DejaVuSans-104"/>
      </g>
      <!-- Visit -->
      <g transform="translate(766.529696 381.944375)scale(0.12 -0.12)">
       <use xlink:href="#DejaVuSans-86"/>
       <use x="66.158203" xlink:href="#DejaVuSans-105"/>
       <use x="93.941406" xlink:href="#DejaVuSans-115"/>
       <use x="146.041016" xlink:href="#DejaVuSans-105"/>
       <use x="173.824219" xlink:href="#DejaVuSans-116"/>
      </g>
     </g>
    </g>
    <g id="xtick_8">
     <g id="line2d_8">
      <g>
       <use style="stroke:#000000;stroke-width:0.8;" x="880.978142" xlink:href="#m2d988ddb38" y="352.388875"/>
      </g>
     </g>
     <g id="text_8">
      <!-- 1 Month Visit -->
      <g transform="translate(841.760642 368.507)scale(0.12 -0.12)">
       <use xlink:href="#DejaVuSans-49"/>
       <use x="63.623047" xlink:href="#DejaVuSans-32"/>
       <use x="95.410156" xlink:href="#DejaVuSans-77"/>
       <use x="181.689453" xlink:href="#DejaVuSans-111"/>
       <use x="242.871094" xlink:href="#DejaVuSans-110"/>
       <use x="306.25" xlink:href="#DejaVuSans-116"/>
       <use x="345.458984" xlink:href="#DejaVuSans-104"/>
       <use x="408.837891" xlink:href="#DejaVuSans-32"/>
       <use x="440.625" xlink:href="#DejaVuSans-86"/>
       <use x="506.783203" xlink:href="#DejaVuSans-105"/>
       <use x="534.566406" xlink:href="#DejaVuSans-115"/>
       <use x="586.666016" xlink:href="#DejaVuSans-105"/>
       <use x="614.449219" xlink:href="#DejaVuSans-116"/>
      </g>
      <!-- w/o Weather -->
      <g transform="translate(843.210017 381.944375)scale(0.12 -0.12)">
       <use xlink:href="#DejaVuSans-119"/>
       <use x="81.787109" xlink:href="#DejaVuSans-47"/>
       <use x="115.478516" xlink:href="#DejaVuSans-111"/>
       <use x="176.660156" xlink:href="#DejaVuSans-32"/>
       <use x="208.447266" xlink:href="#DejaVuSans-87"/>
       <use x="301.449219" xlink:href="#DejaVuSans-101"/>
       <use x="362.972656" xlink:href="#DejaVuSans-97"/>
       <use x="424.251953" xlink:href="#DejaVuSans-116"/>
       <use x="463.460938" xlink:href="#DejaVuSans-104"/>
       <use x="526.839844" xlink:href="#DejaVuSans-101"/>
       <use x="588.363281" xlink:href="#DejaVuSans-114"/>
      </g>
     </g>
    </g>
    <g id="xtick_9">
     <g id="line2d_9">
      <g>
       <use style="stroke:#000000;stroke-width:0.8;" x="982.64565" xlink:href="#m2d988ddb38" y="352.388875"/>
      </g>
     </g>
     <g id="text_9">
      <!-- Fall Visit -->
      <g transform="translate(958.043775 368.507)scale(0.12 -0.12)">
       <use xlink:href="#DejaVuSans-70"/>
       <use x="48.394531" xlink:href="#DejaVuSans-97"/>
       <use x="109.673828" xlink:href="#DejaVuSans-108"/>
       <use x="137.457031" xlink:href="#DejaVuSans-108"/>
       <use x="165.240234" xlink:href="#DejaVuSans-32"/>
       <use x="197.027344" xlink:href="#DejaVuSans-86"/>
       <use x="263.185547" xlink:href="#DejaVuSans-105"/>
       <use x="290.96875" xlink:href="#DejaVuSans-115"/>
       <use x="343.068359" xlink:href="#DejaVuSans-105"/>
       <use x="370.851562" xlink:href="#DejaVuSans-116"/>
      </g>
     </g>
    </g>
    <g id="xtick_10">
     <g id="line2d_10">
      <g>
       <use style="stroke:#000000;stroke-width:0.8;" x="1084.313159" xlink:href="#m2d988ddb38" y="352.388875"/>
      </g>
     </g>
     <g id="text_10">
      <!-- Winter Visit -->
      <g transform="translate(1049.847846 368.507)scale(0.12 -0.12)">
       <use xlink:href="#DejaVuSans-87"/>
       <use x="96.626953" xlink:href="#DejaVuSans-105"/>
       <use x="124.410156" xlink:href="#DejaVuSans-110"/>
       <use x="187.789062" xlink:href="#DejaVuSans-116"/>
       <use x="226.998047" xlink:href="#DejaVuSans-101"/>
       <use x="288.521484" xlink:href="#DejaVuSans-114"/>
       <use x="329.634766" xlink:href="#DejaVuSans-32"/>
       <use x="361.421875" xlink:href="#DejaVuSans-86"/>
       <use x="427.580078" xlink:href="#DejaVuSans-105"/>
       <use x="455.363281" xlink:href="#DejaVuSans-115"/>
       <use x="507.462891" xlink:href="#DejaVuSans-105"/>
       <use x="535.246094" xlink:href="#DejaVuSans-116"/>
      </g>
     </g>
    </g>
    <g id="xtick_11">
     <g id="line2d_11">
      <g>
       <use style="stroke:#000000;stroke-width:0.8;" x="1185.980667" xlink:href="#m2d988ddb38" y="352.388875"/>
      </g>
     </g>
     <g id="text_11">
      <!-- Spring Visit -->
      <defs>
       <path d="M 18.109375 8.203125
L 18.109375 -20.796875
L 9.078125 -20.796875
L 9.078125 54.6875
L 18.109375 54.6875
L 18.109375 46.390625
Q 20.953125 51.265625 25.265625 53.625
Q 29.59375 56 35.59375 56
Q 45.5625 56 51.78125 48.09375
Q 58.015625 40.1875 58.015625 27.296875
Q 58.015625 14.40625 51.78125 6.484375
Q 45.5625 -1.421875 35.59375 -1.421875
Q 29.59375 -1.421875 25.265625 0.953125
Q 20.953125 3.328125 18.109375 8.203125
z
M 48.6875 27.296875
Q 48.6875 37.203125 44.609375 42.84375
Q 40.53125 48.484375 33.40625 48.484375
Q 26.265625 48.484375 22.1875 42.84375
Q 18.109375 37.203125 18.109375 27.296875
Q 18.109375 17.390625 22.1875 11.75
Q 26.265625 6.109375 33.40625 6.109375
Q 40.53125 6.109375 44.609375 11.75
Q 48.6875 17.390625 48.6875 27.296875
z
" id="DejaVuSans-112"/>
       <path d="M 45.40625 27.984375
Q 45.40625 37.75 41.375 43.109375
Q 37.359375 48.484375 30.078125 48.484375
Q 22.859375 48.484375 18.828125 43.109375
Q 14.796875 37.75 14.796875 27.984375
Q 14.796875 18.265625 18.828125 12.890625
Q 22.859375 7.515625 30.078125 7.515625
Q 37.359375 7.515625 41.375 12.890625
Q 45.40625 18.265625 45.40625 27.984375
z
M 54.390625 6.78125
Q 54.390625 -7.171875 48.1875 -13.984375
Q 42 -20.796875 29.203125 -20.796875
Q 24.46875 -20.796875 20.265625 -20.09375
Q 16.0625 -19.390625 12.109375 -17.921875
L 12.109375 -9.1875
Q 16.0625 -11.328125 19.921875 -12.34375
Q 23.78125 -13.375 27.78125 -13.375
Q 36.625 -13.375 41.015625 -8.765625
Q 45.40625 -4.15625 45.40625 5.171875
L 45.40625 9.625
Q 42.625 4.78125 38.28125 2.390625
Q 33.9375 0 27.875 0
Q 17.828125 0 11.671875 7.65625
Q 5.515625 15.328125 5.515625 27.984375
Q 5.515625 40.671875 11.671875 48.328125
Q 17.828125 56 27.875 56
Q 33.9375 56 38.28125 53.609375
Q 42.625 51.21875 45.40625 46.390625
L 45.40625 54.6875
L 54.390625 54.6875
z
" id="DejaVuSans-103"/>
      </defs>
      <g transform="translate(1151.92973 368.507)scale(0.12 -0.12)">
       <use xlink:href="#DejaVuSans-83"/>
       <use x="63.476562" xlink:href="#DejaVuSans-112"/>
       <use x="126.953125" xlink:href="#DejaVuSans-114"/>
       <use x="168.066406" xlink:href="#DejaVuSans-105"/>
       <use x="195.849609" xlink:href="#DejaVuSans-110"/>
       <use x="259.228516" xlink:href="#DejaVuSans-103"/>
       <use x="322.705078" xlink:href="#DejaVuSans-32"/>
       <use x="354.492188" xlink:href="#DejaVuSans-86"/>
       <use x="420.650391" xlink:href="#DejaVuSans-105"/>
       <use x="448.433594" xlink:href="#DejaVuSans-115"/>
       <use x="500.533203" xlink:href="#DejaVuSans-105"/>
       <use x="528.316406" xlink:href="#DejaVuSans-116"/>
      </g>
     </g>
    </g>
    <g id="text_12">
     <!-- Scenario -->
     <defs>
      <path d="M 48.78125 52.59375
L 48.78125 44.1875
Q 44.96875 46.296875 41.140625 47.34375
Q 37.3125 48.390625 33.40625 48.390625
Q 24.65625 48.390625 19.8125 42.84375
Q 14.984375 37.3125 14.984375 27.296875
Q 14.984375 17.28125 19.8125 11.734375
Q 24.65625 6.203125 33.40625 6.203125
Q 37.3125 6.203125 41.140625 7.25
Q 44.96875 8.296875 48.78125 10.40625
L 48.78125 2.09375
Q 45.015625 0.34375 40.984375 -0.53125
Q 36.96875 -1.421875 32.421875 -1.421875
Q 20.0625 -1.421875 12.78125 6.34375
Q 5.515625 14.109375 5.515625 27.296875
Q 5.515625 40.671875 12.859375 48.328125
Q 20.21875 56 33.015625 56
Q 37.15625 56 41.109375 55.140625
Q 45.0625 54.296875 48.78125 52.59375
z
" id="DejaVuSans-99"/>
     </defs>
     <g transform="translate(642.864375 414.034875)scale(0.16 -0.16)">
      <use xlink:href="#DejaVuSans-83"/>
      <use x="63.476562" xlink:href="#DejaVuSans-99"/>
      <use x="118.457031" xlink:href="#DejaVuSans-101"/>
      <use x="179.980469" xlink:href="#DejaVuSans-110"/>
      <use x="243.359375" xlink:href="#DejaVuSans-97"/>
      <use x="304.638672" xlink:href="#DejaVuSans-114"/>
      <use x="345.751953" xlink:href="#DejaVuSans-105"/>
      <use x="373.535156" xlink:href="#DejaVuSans-111"/>
     </g>
    </g>
   </g>
   <g id="matplotlib.axis_2">
    <g id="ytick_1">
     <g id="line2d_12">
      <path clip-path="url(#p54cef2cf73)" d="M 73.738125 352.388875
L 1281.548125 352.388875
" style="fill:none;stroke:#b0b0b0;stroke-linecap:square;stroke-width:0.8;"/>
     </g>
     <g id="line2d_13">
      <defs>
       <path d="M 0 0
L -3.5 0
" id="mb94a3f7ee2" style="stroke:#000000;stroke-width:0.8;"/>
      </defs>
      <g>
       <use style="stroke:#000000;stroke-width:0.8;" x="73.738125" xlink:href="#mb94a3f7ee2" y="352.388875"/>
      </g>
     </g>
     <g id="text_13">
      <!-- 0 -->
      <defs>
       <path d="M 31.78125 66.40625
Q 24.171875 66.40625 20.328125 58.90625
Q 16.5 51.421875 16.5 36.375
Q 16.5 21.390625 20.328125 13.890625
Q 24.171875 6.390625 31.78125 6.390625
Q 39.453125 6.390625 43.28125 13.890625
Q 47.125 21.390625 47.125 36.375
Q 47.125 51.421875 43.28125 58.90625
Q 39.453125 66.40625 31.78125 66.40625
z
M 31.78125 74.21875
Q 44.046875 74.21875 50.515625 64.515625
Q 56.984375 54.828125 56.984375 36.375
Q 56.984375 17.96875 50.515625 8.265625
Q 44.046875 -1.421875 31.78125 -1.421875
Q 19.53125 -1.421875 13.0625 8.265625
Q 6.59375 17.96875 6.59375 36.375
Q 6.59375 54.828125 13.0625 64.515625
Q 19.53125 74.21875 31.78125 74.21875
z
" id="DejaVuSans-48"/>
      </defs>
      <g transform="translate(59.103125 356.947937)scale(0.12 -0.12)">
       <use xlink:href="#DejaVuSans-48"/>
      </g>
     </g>
    </g>
    <g id="ytick_2">
     <g id="line2d_14">
      <path clip-path="url(#p54cef2cf73)" d="M 73.738125 319.989675
L 1281.548125 319.989675
" style="fill:none;stroke:#b0b0b0;stroke-linecap:square;stroke-width:0.8;"/>
     </g>
     <g id="line2d_15">
      <g>
       <use style="stroke:#000000;stroke-width:0.8;" x="73.738125" xlink:href="#mb94a3f7ee2" y="319.989675"/>
      </g>
     </g>
     <g id="text_14">
      <!-- 5,000 -->
      <defs>
       <path d="M 10.796875 72.90625
L 49.515625 72.90625
L 49.515625 64.59375
L 19.828125 64.59375
L 19.828125 46.734375
Q 21.96875 47.46875 24.109375 47.828125
Q 26.265625 48.1875 28.421875 48.1875
Q 40.625 48.1875 47.75 41.5
Q 54.890625 34.8125 54.890625 23.390625
Q 54.890625 11.625 47.5625 5.09375
Q 40.234375 -1.421875 26.90625 -1.421875
Q 22.3125 -1.421875 17.546875 -0.640625
Q 12.796875 0.140625 7.71875 1.703125
L 7.71875 11.625
Q 12.109375 9.234375 16.796875 8.0625
Q 21.484375 6.890625 26.703125 6.890625
Q 35.15625 6.890625 40.078125 11.328125
Q 45.015625 15.765625 45.015625 23.390625
Q 45.015625 31 40.078125 35.4375
Q 35.15625 39.890625 26.703125 39.890625
Q 22.75 39.890625 18.8125 39.015625
Q 14.890625 38.140625 10.796875 36.28125
z
" id="DejaVuSans-53"/>
       <path d="M 11.71875 12.40625
L 22.015625 12.40625
L 22.015625 4
L 14.015625 -11.625
L 7.71875 -11.625
L 11.71875 4
z
" id="DejaVuSans-44"/>
      </defs>
      <g transform="translate(32.384375 324.548737)scale(0.12 -0.12)">
       <use xlink:href="#DejaVuSans-53"/>
       <use x="63.623047" xlink:href="#DejaVuSans-44"/>
       <use x="95.410156" xlink:href="#DejaVuSans-48"/>
       <use x="159.033203" xlink:href="#DejaVuSans-48"/>
       <use x="222.65625" xlink:href="#DejaVuSans-48"/>
      </g>
     </g>
    </g>
    <g id="ytick_3">
     <g id="line2d_16">
      <path clip-path="url(#p54cef2cf73)" d="M 73.738125 287.590475
L 1281.548125 287.590475
" style="fill:none;stroke:#b0b0b0;stroke-linecap:square;stroke-width:0.8;"/>
     </g>
     <g id="line2d_17">
      <g>
       <use style="stroke:#000000;stroke-width:0.8;" x="73.738125" xlink:href="#mb94a3f7ee2" y="287.590475"/>
      </g>
     </g>
     <g id="text_15">
      <!-- 10,000 -->
      <g transform="translate(24.749375 292.149537)scale(0.12 -0.12)">
       <use xlink:href="#DejaVuSans-49"/>
       <use x="63.623047" xlink:href="#DejaVuSans-48"/>
       <use x="127.246094" xlink:href="#DejaVuSans-44"/>
       <use x="159.033203" xlink:href="#DejaVuSans-48"/>
       <use x="222.65625" xlink:href="#DejaVuSans-48"/>
       <use x="286.279297" xlink:href="#DejaVuSans-48"/>
      </g>
     </g>
    </g>
    <g id="ytick_4">
     <g id="line2d_18">
      <path clip-path="url(#p54cef2cf73)" d="M 73.738125 255.191275
L 1281.548125 255.191275
" style="fill:none;stroke:#b0b0b0;stroke-linecap:square;stroke-width:0.8;"/>
     </g>
     <g id="line2d_19">
      <g>
       <use style="stroke:#000000;stroke-width:0.8;" x="73.738125" xlink:href="#mb94a3f7ee2" y="255.191275"/>
      </g>
     </g>
     <g id="text_16">
      <!-- 15,000 -->
      <g transform="translate(24.749375 259.750338)scale(0.12 -0.12)">
       <use xlink:href="#DejaVuSans-49"/>
       <use x="63.623047" xlink:href="#DejaVuSans-53"/>
       <use x="127.246094" xlink:href="#DejaVuSans-44"/>
       <use x="159.033203" xlink:href="#DejaVuSans-48"/>
       <use x="222.65625" xlink:href="#DejaVuSans-48"/>
       <use x="286.279297" xlink:href="#DejaVuSans-48"/>
      </g>
     </g>
    </g>
    <g id="ytick_5">
     <g id="line2d_20">
      <path clip-path="url(#p54cef2cf73)" d="M 73.738125 222.792075
L 1281.548125 222.792075
" style="fill:none;stroke:#b0b0b0;stroke-linecap:square;stroke-width:0.8;"/>
     </g>
     <g id="line2d_21">
      <g>
       <use style="stroke:#000000;stroke-width:0.8;" x="73.738125" xlink:href="#mb94a3f7ee2" y="222.792075"/>
      </g>
     </g>
     <g id="text_17">
      <!-- 20,000 -->
      <g transform="translate(24.749375 227.351137)scale(0.12 -0.12)">
       <use xlink:href="#DejaVuSans-50"/>
       <use x="63.623047" xlink:href="#DejaVuSans-48"/>
       <use x="127.246094" xlink:href="#DejaVuSans-44"/>
       <use x="159.033203" xlink:href="#DejaVuSans-48"/>
       <use x="222.65625" xlink:href="#DejaVuSans-48"/>
       <use x="286.279297" xlink:href="#DejaVuSans-48"/>
      </g>
     </g>
    </g>
    <g id="ytick_6">
     <g id="line2d_22">
      <path clip-path="url(#p54cef2cf73)" d="M 73.738125 190.392875
L 1281.548125 190.392875
" style="fill:none;stroke:#b0b0b0;stroke-linecap:square;stroke-width:0.8;"/>
     </g>
     <g id="line2d_23">
      <g>
       <use style="stroke:#000000;stroke-width:0.8;" x="73.738125" xlink:href="#mb94a3f7ee2" y="190.392875"/>
      </g>
     </g>
     <g id="text_18">
      <!-- 25,000 -->
      <g transform="translate(24.749375 194.951937)scale(0.12 -0.12)">
       <use xlink:href="#DejaVuSans-50"/>
       <use x="63.623047" xlink:href="#DejaVuSans-53"/>
       <use x="127.246094" xlink:href="#DejaVuSans-44"/>
       <use x="159.033203" xlink:href="#DejaVuSans-48"/>
       <use x="222.65625" xlink:href="#DejaVuSans-48"/>
       <use x="286.279297" xlink:href="#DejaVuSans-48"/>
      </g>
     </g>
    </g>
    <g id="ytick_7">
     <g id="line2d_24">
      <path clip-path="url(#p54cef2cf73)" d="M 73.738125 157.993675
L 1281.548125 157.993675
" style="fill:none;stroke:#b0b0b0;stroke-linecap:square;stroke-width:0.8;"/>
     </g>
     <g id="line2d_25">
      <g>
       <use style="stroke:#000000;stroke-width:0.8;" x="73.738125" xlink:href="#mb94a3f7ee2" y="157.993675"/>
      </g>
     </g>
     <g id="text_19">
      <!-- 30,000 -->
      <g transform="translate(24.749375 162.552737)scale(0.12 -0.12)">
       <use xlink:href="#DejaVuSans-51"/>
       <use x="63.623047" xlink:href="#DejaVuSans-48"/>
       <use x="127.246094" xlink:href="#DejaVuSans-44"/>
       <use x="159.033203" xlink:href="#DejaVuSans-48"/>
       <use x="222.65625" xlink:href="#DejaVuSans-48"/>
       <use x="286.279297" xlink:href="#DejaVuSans-48"/>
      </g>
     </g>
    </g>
    <g id="ytick_8">
     <g id="line2d_26">
      <path clip-path="url(#p54cef2cf73)" d="M 73.738125 125.594475
L 1281.548125 125.594475
" style="fill:none;stroke:#b0b0b0;stroke-linecap:square;stroke-width:0.8;"/>
     </g>
     <g id="line2d_27">
      <g>
       <use style="stroke:#000000;stroke-width:0.8;" x="73.738125" xlink:href="#mb94a3f7ee2" y="125.594475"/>
      </g>
     </g>
     <g id="text_20">
      <!-- 35,000 -->
      <g transform="translate(24.749375 130.153537)scale(0.12 -0.12)">
       <use xlink:href="#DejaVuSans-51"/>
       <use x="63.623047" xlink:href="#DejaVuSans-53"/>
       <use x="127.246094" xlink:href="#DejaVuSans-44"/>
       <use x="159.033203" xlink:href="#DejaVuSans-48"/>
       <use x="222.65625" xlink:href="#DejaVuSans-48"/>
       <use x="286.279297" xlink:href="#DejaVuSans-48"/>
      </g>
     </g>
    </g>
    <g id="ytick_9">
     <g id="line2d_28">
      <path clip-path="url(#p54cef2cf73)" d="M 73.738125 93.195275
L 1281.548125 93.195275
" style="fill:none;stroke:#b0b0b0;stroke-linecap:square;stroke-width:0.8;"/>
     </g>
     <g id="line2d_29">
      <g>
       <use style="stroke:#000000;stroke-width:0.8;" x="73.738125" xlink:href="#mb94a3f7ee2" y="93.195275"/>
      </g>
     </g>
     <g id="text_21">
      <!-- 40,000 -->
      <defs>
       <path d="M 37.796875 64.3125
L 12.890625 25.390625
L 37.796875 25.390625
z
M 35.203125 72.90625
L 47.609375 72.90625
L 47.609375 25.390625
L 58.015625 25.390625
L 58.015625 17.1875
L 47.609375 17.1875
L 47.609375 0
L 37.796875 0
L 37.796875 17.1875
L 4.890625 17.1875
L 4.890625 26.703125
z
" id="DejaVuSans-52"/>
      </defs>
      <g transform="translate(24.749375 97.754337)scale(0.12 -0.12)">
       <use xlink:href="#DejaVuSans-52"/>
       <use x="63.623047" xlink:href="#DejaVuSans-48"/>
       <use x="127.246094" xlink:href="#DejaVuSans-44"/>
       <use x="159.033203" xlink:href="#DejaVuSans-48"/>
       <use x="222.65625" xlink:href="#DejaVuSans-48"/>
       <use x="286.279297" xlink:href="#DejaVuSans-48"/>
      </g>
     </g>
    </g>
    <g id="ytick_10">
     <g id="line2d_30">
      <path clip-path="url(#p54cef2cf73)" d="M 73.738125 60.796075
L 1281.548125 60.796075
" style="fill:none;stroke:#b0b0b0;stroke-linecap:square;stroke-width:0.8;"/>
     </g>
     <g id="line2d_31">
      <g>
       <use style="stroke:#000000;stroke-width:0.8;" x="73.738125" xlink:href="#mb94a3f7ee2" y="60.796075"/>
      </g>
     </g>
     <g id="text_22">
      <!-- 45,000 -->
      <g transform="translate(24.749375 65.355137)scale(0.12 -0.12)">
       <use xlink:href="#DejaVuSans-52"/>
       <use x="63.623047" xlink:href="#DejaVuSans-53"/>
       <use x="127.246094" xlink:href="#DejaVuSans-44"/>
       <use x="159.033203" xlink:href="#DejaVuSans-48"/>
       <use x="222.65625" xlink:href="#DejaVuSans-48"/>
       <use x="286.279297" xlink:href="#DejaVuSans-48"/>
      </g>
     </g>
    </g>
    <g id="ytick_11">
     <g id="line2d_32">
      <path clip-path="url(#p54cef2cf73)" d="M 73.738125 28.396875
L 1281.548125 28.396875
" style="fill:none;stroke:#b0b0b0;stroke-linecap:square;stroke-width:0.8;"/>
     </g>
     <g id="line2d_33">
      <g>
       <use style="stroke:#000000;stroke-width:0.8;" x="73.738125" xlink:href="#mb94a3f7ee2" y="28.396875"/>
      </g>
     </g>
     <g id="text_23">
      <!-- 50,000 -->
      <g transform="translate(24.749375 32.955937)scale(0.12 -0.12)">
       <use xlink:href="#DejaVuSans-53"/>
       <use x="63.623047" xlink:href="#DejaVuSans-48"/>
       <use x="127.246094" xlink:href="#DejaVuSans-44"/>
       <use x="159.033203" xlink:href="#DejaVuSans-48"/>
       <use x="222.65625" xlink:href="#DejaVuSans-48"/>
       <use x="286.279297" xlink:href="#DejaVuSans-48"/>
      </g>
     </g>
    </g>
    <g id="text_24">
     <!-- Average Annual Cost per MW (USD/MW/year) -->
     <defs>
      <path d="M 34.1875 63.1875
L 20.796875 26.90625
L 47.609375 26.90625
z
M 28.609375 72.90625
L 39.796875 72.90625
L 67.578125 0
L 57.328125 0
L 50.6875 18.703125
L 17.828125 18.703125
L 11.1875 0
L 0.78125 0
z
" id="DejaVuSans-65"/>
      <path d="M 64.40625 67.28125
L 64.40625 56.890625
Q 59.421875 61.53125 53.78125 63.8125
Q 48.140625 66.109375 41.796875 66.109375
Q 29.296875 66.109375 22.65625 58.46875
Q 16.015625 50.828125 16.015625 36.375
Q 16.015625 21.96875 22.65625 14.328125
Q 29.296875 6.6875 41.796875 6.6875
Q 48.140625 6.6875 53.78125 8.984375
Q 59.421875 11.28125 64.40625 15.921875
L 64.40625 5.609375
Q 59.234375 2.09375 53.4375 0.328125
Q 47.65625 -1.421875 41.21875 -1.421875
Q 24.65625 -1.421875 15.125 8.703125
Q 5.609375 18.84375 5.609375 36.375
Q 5.609375 53.953125 15.125 64.078125
Q 24.65625 74.21875 41.21875 74.21875
Q 47.75 74.21875 53.53125 72.484375
Q 59.328125 70.75 64.40625 67.28125
z
" id="DejaVuSans-67"/>
      <path d="M 8.6875 72.90625
L 18.609375 72.90625
L 18.609375 28.609375
Q 18.609375 16.890625 22.84375 11.734375
Q 27.09375 6.59375 36.625 6.59375
Q 46.09375 6.59375 50.34375 11.734375
Q 54.59375 16.890625 54.59375 28.609375
L 54.59375 72.90625
L 64.5 72.90625
L 64.5 27.390625
Q 64.5 13.140625 57.4375 5.859375
Q 50.390625 -1.421875 36.625 -1.421875
Q 22.796875 -1.421875 15.734375 5.859375
Q 8.6875 13.140625 8.6875 27.390625
z
" id="DejaVuSans-85"/>
      <path d="M 32.171875 -5.078125
Q 28.375 -14.84375 24.75 -17.8125
Q 21.140625 -20.796875 15.09375 -20.796875
L 7.90625 -20.796875
L 7.90625 -13.28125
L 13.1875 -13.28125
Q 16.890625 -13.28125 18.9375 -11.515625
Q 21 -9.765625 23.484375 -3.21875
L 25.09375 0.875
L 2.984375 54.6875
L 12.5 54.6875
L 29.59375 11.921875
L 46.6875 54.6875
L 56.203125 54.6875
z
" id="DejaVuSans-121"/>
     </defs>
     <g transform="translate(17.837813 348.459437)rotate(-90)scale(0.14 -0.14)">
      <use xlink:href="#DejaVuSans-65"/>
      <use x="62.533203" xlink:href="#DejaVuSans-118"/>
      <use x="121.712891" xlink:href="#DejaVuSans-101"/>
      <use x="183.236328" xlink:href="#DejaVuSans-114"/>
      <use x="224.349609" xlink:href="#DejaVuSans-97"/>
      <use x="285.628906" xlink:href="#DejaVuSans-103"/>
      <use x="349.105469" xlink:href="#DejaVuSans-101"/>
      <use x="410.628906" xlink:href="#DejaVuSans-32"/>
      <use x="442.416016" xlink:href="#DejaVuSans-65"/>
      <use x="510.824219" xlink:href="#DejaVuSans-110"/>
      <use x="574.203125" xlink:href="#DejaVuSans-110"/>
      <use x="637.582031" xlink:href="#DejaVuSans-117"/>
      <use x="700.960938" xlink:href="#DejaVuSans-97"/>
      <use x="762.240234" xlink:href="#DejaVuSans-108"/>
      <use x="790.023438" xlink:href="#DejaVuSans-32"/>
      <use x="821.810547" xlink:href="#DejaVuSans-67"/>
      <use x="891.634766" xlink:href="#DejaVuSans-111"/>
      <use x="952.816406" xlink:href="#DejaVuSans-115"/>
      <use x="1004.916016" xlink:href="#DejaVuSans-116"/>
      <use x="1044.125" xlink:href="#DejaVuSans-32"/>
      <use x="1075.912109" xlink:href="#DejaVuSans-112"/>
      <use x="1139.388672" xlink:href="#DejaVuSans-101"/>
      <use x="1200.912109" xlink:href="#DejaVuSans-114"/>
      <use x="1242.025391" xlink:href="#DejaVuSans-32"/>
      <use x="1273.8125" xlink:href="#DejaVuSans-77"/>
      <use x="1360.091797" xlink:href="#DejaVuSans-87"/>
      <use x="1458.96875" xlink:href="#DejaVuSans-32"/>
      <use x="1490.755859" xlink:href="#DejaVuSans-40"/>
      <use x="1529.769531" xlink:href="#DejaVuSans-85"/>
      <use x="1602.962891" xlink:href="#DejaVuSans-83"/>
      <use x="1666.439453" xlink:href="#DejaVuSans-68"/>
      <use x="1743.441406" xlink:href="#DejaVuSans-47"/>
      <use x="1777.132812" xlink:href="#DejaVuSans-77"/>
      <use x="1863.412109" xlink:href="#DejaVuSans-87"/>
      <use x="1962.289062" xlink:href="#DejaVuSans-47"/>
      <use x="1995.980469" xlink:href="#DejaVuSans-121"/>
      <use x="2055.160156" xlink:href="#DejaVuSans-101"/>
      <use x="2116.683594" xlink:href="#DejaVuSans-97"/>
      <use x="2177.962891" xlink:href="#DejaVuSans-114"/>
      <use x="2219.076172" xlink:href="#DejaVuSans-41"/>
     </g>
    </g>
   </g>
   <g id="patch_3">
    <path clip-path="url(#p54cef2cf73)" d="M 128.63858 352.388875
L 209.972586 352.388875
L 209.972586 342.931111
L 128.63858 342.931111
z
" style="fill:#035068;"/>
   </g>
   <g id="patch_4">
    <path clip-path="url(#p54cef2cf73)" d="M 128.63858 342.931111
L 209.972586 342.931111
L 209.972586 305.838308
L 128.63858 305.838308
z
" style="fill:#e37225;"/>
   </g>
   <g id="patch_5">
    <path clip-path="url(#p54cef2cf73)" d="M 128.63858 305.838308
L 209.972586 305.838308
L 209.972586 159.444474
L 128.63858 159.444474
z
" style="fill:#fbd876;"/>
   </g>
   <g id="patch_6">
    <path clip-path="url(#p54cef2cf73)" d="M 128.63858 159.444474
L 209.972586 159.444474
L 209.972586 94.883738
L 128.63858 94.883738
z
" style="fill:#83c554;"/>
   </g>
   <g id="patch_7">
    <path clip-path="url(#p54cef2cf73)" d="M 230.306088 352.388875
L 311.640095 352.388875
L 311.640095 329.526237
L 230.306088 329.526237
z
" style="fill:#035068;"/>
   </g>
   <g id="patch_8">
    <path clip-path="url(#p54cef2cf73)" d="M 230.306088 329.526237
L 311.640095 329.526237
L 311.640095 199.1613
L 230.306088 199.1613
z
" style="fill:#fbd876;"/>
   </g>
   <g id="patch_9">
    <path clip-path="url(#p54cef2cf73)" d="M 230.306088 199.1613
L 311.640095 199.1613
L 311.640095 104.192867
L 230.306088 104.192867
z
" style="fill:#83c554;"/>
   </g>
   <g id="patch_10">
    <path clip-path="url(#p54cef2cf73)" d="M 331.973596 352.388875
L 413.307603 352.388875
L 413.307603 329.97619
L 331.973596 329.97619
z
" style="fill:#035068;"/>
   </g>
   <g id="patch_11">
    <path clip-path="url(#p54cef2cf73)" d="M 331.973596 329.97619
L 413.307603 329.97619
L 413.307603 296.49153
L 331.973596 296.49153
z
" style="fill:#e37225;"/>
   </g>
   <g id="patch_12">
    <path clip-path="url(#p54cef2cf73)" d="M 331.973596 296.49153
L 413.307603 296.49153
L 413.307603 161.100413
L 331.973596 161.100413
z
" style="fill:#fbd876;"/>
   </g>
   <g id="patch_13">
    <path clip-path="url(#p54cef2cf73)" d="M 331.973596 161.100413
L 413.307603 161.100413
L 413.307603 100.00954
L 331.973596 100.00954
z
" style="fill:#83c554;"/>
   </g>
   <g id="patch_14">
    <path clip-path="url(#p54cef2cf73)" d="M 433.641105 352.388875
L 514.975112 352.388875
L 514.975112 344.381662
L 433.641105 344.381662
z
" style="fill:#035068;"/>
   </g>
   <g id="patch_15">
    <path clip-path="url(#p54cef2cf73)" d="M 433.641105 344.381662
L 514.975112 344.381662
L 514.975112 307.267491
L 433.641105 307.267491
z
" style="fill:#e37225;"/>
   </g>
   <g id="patch_16">
    <path clip-path="url(#p54cef2cf73)" d="M 433.641105 307.267491
L 514.975112 307.267491
L 514.975112 159.837754
L 433.641105 159.837754
z
" style="fill:#fbd876;"/>
   </g>
   <g id="patch_17">
    <path clip-path="url(#p54cef2cf73)" d="M 433.641105 159.837754
L 514.975112 159.837754
L 514.975112 94.690977
L 433.641105 94.690977
z
" style="fill:#83c554;"/>
   </g>
   <g id="patch_18">
    <path clip-path="url(#p54cef2cf73)" d="M 535.308613 352.388875
L 616.64262 352.388875
L 616.64262 341.747405
L 535.308613 341.747405
z
" style="fill:#035068;"/>
   </g>
   <g id="patch_19">
    <path clip-path="url(#p54cef2cf73)" d="M 535.308613 341.747405
L 616.64262 341.747405
L 616.64262 316.239136
L 535.308613 316.239136
z
" style="fill:#e37225;"/>
   </g>
   <g id="patch_20">
    <path clip-path="url(#p54cef2cf73)" d="M 535.308613 316.239136
L 616.64262 316.239136
L 616.64262 220.151699
L 535.308613 220.151699
z
" style="fill:#fbd876;"/>
   </g>
   <g id="patch_21">
    <path clip-path="url(#p54cef2cf73)" d="M 535.308613 220.151699
L 616.64262 220.151699
L 616.64262 178.196057
L 535.308613 178.196057
z
" style="fill:#83c554;"/>
   </g>
   <g id="patch_22">
    <path clip-path="url(#p54cef2cf73)" d="M 636.976122 352.388875
L 718.310128 352.388875
L 718.310128 335.977728
L 636.976122 335.977728
z
" style="fill:#035068;"/>
   </g>
   <g id="patch_23">
    <path clip-path="url(#p54cef2cf73)" d="M 636.976122 335.977728
L 718.310128 335.977728
L 718.310128 244.96521
L 636.976122 244.96521
z
" style="fill:#fbd876;"/>
   </g>
   <g id="patch_24">
    <path clip-path="url(#p54cef2cf73)" d="M 636.976122 244.96521
L 718.310128 244.96521
L 718.310128 178.397987
L 636.976122 178.397987
z
" style="fill:#83c554;"/>
   </g>
   <g id="patch_25">
    <path clip-path="url(#p54cef2cf73)" d="M 738.64363 352.388875
L 819.977637 352.388875
L 819.977637 341.750979
L 738.64363 341.750979
z
" style="fill:#035068;"/>
   </g>
   <g id="patch_26">
    <path clip-path="url(#p54cef2cf73)" d="M 738.64363 341.750979
L 819.977637 341.750979
L 819.977637 326.322735
L 738.64363 326.322735
z
" style="fill:#e37225;"/>
   </g>
   <g id="patch_27">
    <path clip-path="url(#p54cef2cf73)" d="M 738.64363 326.322735
L 819.977637 326.322735
L 819.977637 273.264053
L 738.64363 273.264053
z
" style="fill:#fbd876;"/>
   </g>
   <g id="patch_28">
    <path clip-path="url(#p54cef2cf73)" d="M 738.64363 273.264053
L 819.977637 273.264053
L 819.977637 251.60554
L 738.64363 251.60554
z
" style="fill:#83c554;"/>
   </g>
   <g id="patch_29">
    <path clip-path="url(#p54cef2cf73)" d="M 840.311138 352.388875
L 921.645145 352.388875
L 921.645145 337.250443
L 840.311138 337.250443
z
" style="fill:#035068;"/>
   </g>
   <g id="patch_30">
    <path clip-path="url(#p54cef2cf73)" d="M 840.311138 337.250443
L 921.645145 337.250443
L 921.645145 291.144364
L 840.311138 291.144364
z
" style="fill:#fbd876;"/>
   </g>
   <g id="patch_31">
    <path clip-path="url(#p54cef2cf73)" d="M 840.311138 291.144364
L 921.645145 291.144364
L 921.645145 256.884004
L 840.311138 256.884004
z
" style="fill:#83c554;"/>
   </g>
   <g id="patch_32">
    <path clip-path="url(#p54cef2cf73)" d="M 941.978647 352.388875
L 1023.312654 352.388875
L 1023.312654 342.024781
L 941.978647 342.024781
z
" style="fill:#035068;"/>
   </g>
   <g id="patch_33">
    <path clip-path="url(#p54cef2cf73)" d="M 941.978647 342.024781
L 1023.312654 342.024781
L 1023.312654 290.236601
L 941.978647 290.236601
z
" style="fill:#e37225;"/>
   </g>
   <g id="patch_34">
    <path clip-path="url(#p54cef2cf73)" d="M 941.978647 290.236601
L 1023.312654 290.236601
L 1023.312654 141.318076
L 941.978647 141.318076
z
" style="fill:#fbd876;"/>
   </g>
   <g id="patch_35">
    <path clip-path="url(#p54cef2cf73)" d="M 941.978647 141.318076
L 1023.312654 141.318076
L 1023.312654 95.825562
L 941.978647 95.825562
z
" style="fill:#83c554;"/>
   </g>
   <g id="patch_36">
    <path clip-path="url(#p54cef2cf73)" d="M 1043.646155 352.388875
L 1124.980162 352.388875
L 1124.980162 341.769046
L 1043.646155 341.769046
z
" style="fill:#035068;"/>
   </g>
   <g id="patch_37">
    <path clip-path="url(#p54cef2cf73)" d="M 1043.646155 341.769046
L 1124.980162 341.769046
L 1124.980162 284.264887
L 1043.646155 284.264887
z
" style="fill:#e37225;"/>
   </g>
   <g id="patch_38">
    <path clip-path="url(#p54cef2cf73)" d="M 1043.646155 284.264887
L 1124.980162 284.264887
L 1124.980162 140.122399
L 1043.646155 140.122399
z
" style="fill:#fbd876;"/>
   </g>
   <g id="patch_39">
    <path clip-path="url(#p54cef2cf73)" d="M 1043.646155 140.122399
L 1124.980162 140.122399
L 1124.980162 106.424362
L 1043.646155 106.424362
z
" style="fill:#83c554;"/>
   </g>
   <g id="patch_40">
    <path clip-path="url(#p54cef2cf73)" d="M 1145.313664 352.388875
L 1226.64767 352.388875
L 1226.64767 342.312206
L 1145.313664 342.312206
z
" style="fill:#035068;"/>
   </g>
   <g id="patch_41">
    <path clip-path="url(#p54cef2cf73)" d="M 1145.313664 342.312206
L 1226.64767 342.312206
L 1226.64767 318.816682
L 1145.313664 318.816682
z
" style="fill:#e37225;"/>
   </g>
   <g id="patch_42">
    <path clip-path="url(#p54cef2cf73)" d="M 1145.313664 318.816682
L 1226.64767 318.816682
L 1226.64767 237.496277
L 1145.313664 237.496277
z
" style="fill:#fbd876;"/>
   </g>
   <g id="patch_43">
    <path clip-path="url(#p54cef2cf73)" d="M 1145.313664 237.496277
L 1226.64767 237.496277
L 1226.64767 206.744878
L 1145.313664 206.744878
z
" style="fill:#83c554;"/>
   </g>
   <g id="patch_44">
    <path d="M 73.738125 352.388875
L 73.738125 28.396875
" style="fill:none;stroke:#000000;stroke-linecap:square;stroke-linejoin:miter;stroke-width:0.8;"/>
   </g>
   <g id="patch_45">
    <path d="M 1281.548125 352.388875
L 1281.548125 28.396875
" style="fill:none;stroke:#000000;stroke-linecap:square;stroke-linejoin:miter;stroke-width:0.8;"/>
   </g>
   <g id="patch_46">
    <path d="M 73.738125 352.388875
L 1281.548125 352.388875
" style="fill:none;stroke:#000000;stroke-linecap:square;stroke-linejoin:miter;stroke-width:0.8;"/>
   </g>
   <g id="patch_47">
    <path d="M 73.738125 28.396875
L 1281.548125 28.396875
" style="fill:none;stroke:#000000;stroke-linecap:square;stroke-linejoin:miter;stroke-width:0.8;"/>
   </g>
   <g id="text_25">
    <!-- Equipment and Labor Cost Breakdown by Work Status -->
    <defs>
     <path d="M 9.8125 72.90625
L 55.90625 72.90625
L 55.90625 64.59375
L 19.671875 64.59375
L 19.671875 43.015625
L 54.390625 43.015625
L 54.390625 34.71875
L 19.671875 34.71875
L 19.671875 8.296875
L 56.78125 8.296875
L 56.78125 0
L 9.8125 0
z
" id="DejaVuSans-69"/>
     <path d="M 14.796875 27.296875
Q 14.796875 17.390625 18.875 11.75
Q 22.953125 6.109375 30.078125 6.109375
Q 37.203125 6.109375 41.296875 11.75
Q 45.40625 17.390625 45.40625 27.296875
Q 45.40625 37.203125 41.296875 42.84375
Q 37.203125 48.484375 30.078125 48.484375
Q 22.953125 48.484375 18.875 42.84375
Q 14.796875 37.203125 14.796875 27.296875
z
M 45.40625 8.203125
Q 42.578125 3.328125 38.25 0.953125
Q 33.9375 -1.421875 27.875 -1.421875
Q 17.96875 -1.421875 11.734375 6.484375
Q 5.515625 14.40625 5.515625 27.296875
Q 5.515625 40.1875 11.734375 48.09375
Q 17.96875 56 27.875 56
Q 33.9375 56 38.25 53.625
Q 42.578125 51.265625 45.40625 46.390625
L 45.40625 54.6875
L 54.390625 54.6875
L 54.390625 -20.796875
L 45.40625 -20.796875
z
" id="DejaVuSans-113"/>
     <path d="M 9.8125 72.90625
L 19.671875 72.90625
L 19.671875 8.296875
L 55.171875 8.296875
L 55.171875 0
L 9.8125 0
z
" id="DejaVuSans-76"/>
     <path d="M 9.078125 75.984375
L 18.109375 75.984375
L 18.109375 31.109375
L 44.921875 54.6875
L 56.390625 54.6875
L 27.390625 29.109375
L 57.625 0
L 45.90625 0
L 18.109375 26.703125
L 18.109375 0
L 9.078125 0
z
" id="DejaVuSans-107"/>
    </defs>
    <g transform="translate(406.536875 22.396875)scale(0.2 -0.2)">
     <use xlink:href="#DejaVuSans-69"/>
     <use x="63.183594" xlink:href="#DejaVuSans-113"/>
     <use x="126.660156" xlink:href="#DejaVuSans-117"/>
     <use x="190.039062" xlink:href="#DejaVuSans-105"/>
     <use x="217.822266" xlink:href="#DejaVuSans-112"/>
     <use x="281.298828" xlink:href="#DejaVuSans-109"/>
     <use x="378.710938" xlink:href="#DejaVuSans-101"/>
     <use x="440.234375" xlink:href="#DejaVuSans-110"/>
     <use x="503.613281" xlink:href="#DejaVuSans-116"/>
     <use x="542.822266" xlink:href="#DejaVuSans-32"/>
     <use x="574.609375" xlink:href="#DejaVuSans-97"/>
     <use x="635.888672" xlink:href="#DejaVuSans-110"/>
     <use x="699.267578" xlink:href="#DejaVuSans-100"/>
     <use x="762.744141" xlink:href="#DejaVuSans-32"/>
     <use x="794.53125" xlink:href="#DejaVuSans-76"/>
     <use x="850.244141" xlink:href="#DejaVuSans-97"/>
     <use x="911.523438" xlink:href="#DejaVuSans-98"/>
     <use x="975" xlink:href="#DejaVuSans-111"/>
     <use x="1036.181641" xlink:href="#DejaVuSans-114"/>
     <use x="1077.294922" xlink:href="#DejaVuSans-32"/>
     <use x="1109.082031" xlink:href="#DejaVuSans-67"/>
     <use x="1178.90625" xlink:href="#DejaVuSans-111"/>
     <use x="1240.087891" xlink:href="#DejaVuSans-115"/>
     <use x="1292.1875" xlink:href="#DejaVuSans-116"/>
     <use x="1331.396484" xlink:href="#DejaVuSans-32"/>
     <use x="1363.183594" xlink:href="#DejaVuSans-66"/>
     <use x="1431.787109" xlink:href="#DejaVuSans-114"/>
     <use x="1470.650391" xlink:href="#DejaVuSans-101"/>
     <use x="1532.173828" xlink:href="#DejaVuSans-97"/>
     <use x="1593.453125" xlink:href="#DejaVuSans-107"/>
     <use x="1651.363281" xlink:href="#DejaVuSans-100"/>
     <use x="1714.839844" xlink:href="#DejaVuSans-111"/>
     <use x="1776.021484" xlink:href="#DejaVuSans-119"/>
     <use x="1857.808594" xlink:href="#DejaVuSans-110"/>
     <use x="1921.1875" xlink:href="#DejaVuSans-32"/>
     <use x="1952.974609" xlink:href="#DejaVuSans-98"/>
     <use x="2016.451172" xlink:href="#DejaVuSans-121"/>
     <use x="2075.630859" xlink:href="#DejaVuSans-32"/>
     <use x="2107.417969" xlink:href="#DejaVuSans-87"/>
     <use x="2200.419922" xlink:href="#DejaVuSans-111"/>
     <use x="2261.601562" xlink:href="#DejaVuSans-114"/>
     <use x="2302.714844" xlink:href="#DejaVuSans-107"/>
     <use x="2360.625" xlink:href="#DejaVuSans-32"/>
     <use x="2392.412109" xlink:href="#DejaVuSans-83"/>
     <use x="2455.888672" xlink:href="#DejaVuSans-116"/>
     <use x="2495.097656" xlink:href="#DejaVuSans-97"/>
     <use x="2556.376953" xlink:href="#DejaVuSans-116"/>
     <use x="2595.585938" xlink:href="#DejaVuSans-117"/>
     <use x="2658.964844" xlink:href="#DejaVuSans-115"/>
    </g>
   </g>
   <g id="legend_1">
    <g id="patch_48">
     <path d="M 349.757656 60.14625
L 1005.528594 60.14625
Q 1008.328594 60.14625 1008.328594 57.34625
L 1008.328594 38.196875
Q 1008.328594 35.396875 1005.528594 35.396875
L 349.757656 35.396875
Q 346.957656 35.396875 346.957656 38.196875
L 346.957656 57.34625
Q 346.957656 60.14625 349.757656 60.14625
z
" style="fill:#ffffff;opacity:0.8;stroke:#cccccc;stroke-linejoin:miter;"/>
    </g>
    <g id="patch_49">
     <path d="M 352.557656 51.634687
L 380.557656 51.634687
L 380.557656 41.834687
L 352.557656 41.834687
z
" style="fill:#035068;stroke:#035068;stroke-linejoin:miter;"/>
    </g>
    <g id="text_26">
     <!-- No Requests -->
     <defs>
      <path d="M 44.390625 34.1875
Q 47.5625 33.109375 50.5625 29.59375
Q 53.5625 26.078125 56.59375 19.921875
L 66.609375 0
L 56 0
L 46.6875 18.703125
Q 43.0625 26.03125 39.671875 28.421875
Q 36.28125 30.8125 30.421875 30.8125
L 19.671875 30.8125
L 19.671875 0
L 9.8125 0
L 9.8125 72.90625
L 32.078125 72.90625
Q 44.578125 72.90625 50.734375 67.671875
Q 56.890625 62.453125 56.890625 51.90625
Q 56.890625 45.015625 53.6875 40.46875
Q 50.484375 35.9375 44.390625 34.1875
z
M 19.671875 64.796875
L 19.671875 38.921875
L 32.078125 38.921875
Q 39.203125 38.921875 42.84375 42.21875
Q 46.484375 45.515625 46.484375 51.90625
Q 46.484375 58.296875 42.84375 61.546875
Q 39.203125 64.796875 32.078125 64.796875
z
" id="DejaVuSans-82"/>
     </defs>
     <g transform="translate(391.757656 51.634687)scale(0.14 -0.14)">
      <use xlink:href="#DejaVuSans-78"/>
      <use x="74.804688" xlink:href="#DejaVuSans-111"/>
      <use x="135.986328" xlink:href="#DejaVuSans-32"/>
      <use x="167.773438" xlink:href="#DejaVuSans-82"/>
      <use x="232.755859" xlink:href="#DejaVuSans-101"/>
      <use x="294.279297" xlink:href="#DejaVuSans-113"/>
      <use x="357.755859" xlink:href="#DejaVuSans-117"/>
      <use x="421.134766" xlink:href="#DejaVuSans-101"/>
      <use x="482.658203" xlink:href="#DejaVuSans-115"/>
      <use x="534.757812" xlink:href="#DejaVuSans-116"/>
      <use x="573.966797" xlink:href="#DejaVuSans-115"/>
     </g>
    </g>
    <g id="patch_50">
     <path d="M 507.408594 51.634687
L 535.408594 51.634687
L 535.408594 41.834687
L 507.408594 41.834687
z
" style="fill:#e37225;stroke:#e37225;stroke-linejoin:miter;"/>
    </g>
    <g id="text_27">
     <!-- Weather Delay -->
     <g transform="translate(546.608594 51.634687)scale(0.14 -0.14)">
      <use xlink:href="#DejaVuSans-87"/>
      <use x="93.001953" xlink:href="#DejaVuSans-101"/>
      <use x="154.525391" xlink:href="#DejaVuSans-97"/>
      <use x="215.804688" xlink:href="#DejaVuSans-116"/>
      <use x="255.013672" xlink:href="#DejaVuSans-104"/>
      <use x="318.392578" xlink:href="#DejaVuSans-101"/>
      <use x="379.916016" xlink:href="#DejaVuSans-114"/>
      <use x="421.029297" xlink:href="#DejaVuSans-32"/>
      <use x="452.816406" xlink:href="#DejaVuSans-68"/>
      <use x="529.818359" xlink:href="#DejaVuSans-101"/>
      <use x="591.341797" xlink:href="#DejaVuSans-108"/>
      <use x="619.125" xlink:href="#DejaVuSans-97"/>
      <use x="680.404297" xlink:href="#DejaVuSans-121"/>
     </g>
    </g>
    <g id="patch_51">
     <path d="M 678.151719 51.634687
L 706.151719 51.634687
L 706.151719 41.834687
L 678.151719 41.834687
z
" style="fill:#fbd876;stroke:#fbd876;stroke-linejoin:miter;"/>
    </g>
    <g id="text_28">
     <!-- Outside Working Hours -->
     <defs>
      <path d="M 39.40625 66.21875
Q 28.65625 66.21875 22.328125 58.203125
Q 16.015625 50.203125 16.015625 36.375
Q 16.015625 22.609375 22.328125 14.59375
Q 28.65625 6.59375 39.40625 6.59375
Q 50.140625 6.59375 56.421875 14.59375
Q 62.703125 22.609375 62.703125 36.375
Q 62.703125 50.203125 56.421875 58.203125
Q 50.140625 66.21875 39.40625 66.21875
z
M 39.40625 74.21875
Q 54.734375 74.21875 63.90625 63.9375
Q 73.09375 53.65625 73.09375 36.375
Q 73.09375 19.140625 63.90625 8.859375
Q 54.734375 -1.421875 39.40625 -1.421875
Q 24.03125 -1.421875 14.8125 8.828125
Q 5.609375 19.09375 5.609375 36.375
Q 5.609375 53.65625 14.8125 63.9375
Q 24.03125 74.21875 39.40625 74.21875
z
" id="DejaVuSans-79"/>
     </defs>
     <g transform="translate(717.351719 51.634687)scale(0.14 -0.14)">
      <use xlink:href="#DejaVuSans-79"/>
      <use x="78.710938" xlink:href="#DejaVuSans-117"/>
      <use x="142.089844" xlink:href="#DejaVuSans-116"/>
      <use x="181.298828" xlink:href="#DejaVuSans-115"/>
      <use x="233.398438" xlink:href="#DejaVuSans-105"/>
      <use x="261.181641" xlink:href="#DejaVuSans-100"/>
      <use x="324.658203" xlink:href="#DejaVuSans-101"/>
      <use x="386.181641" xlink:href="#DejaVuSans-32"/>
      <use x="417.96875" xlink:href="#DejaVuSans-87"/>
      <use x="510.970703" xlink:href="#DejaVuSans-111"/>
      <use x="572.152344" xlink:href="#DejaVuSans-114"/>
      <use x="613.265625" xlink:href="#DejaVuSans-107"/>
      <use x="671.175781" xlink:href="#DejaVuSans-105"/>
      <use x="698.958984" xlink:href="#DejaVuSans-110"/>
      <use x="762.337891" xlink:href="#DejaVuSans-103"/>
      <use x="825.814453" xlink:href="#DejaVuSans-32"/>
      <use x="857.601562" xlink:href="#DejaVuSans-72"/>
      <use x="932.796875" xlink:href="#DejaVuSans-111"/>
      <use x="993.978516" xlink:href="#DejaVuSans-117"/>
      <use x="1057.357422" xlink:href="#DejaVuSans-114"/>
      <use x="1098.470703" xlink:href="#DejaVuSans-115"/>
     </g>
    </g>
    <g id="patch_52">
     <path d="M 906.430469 51.634687
L 934.430469 51.634687
L 934.430469 41.834687
L 906.430469 41.834687
z
" style="fill:#83c554;stroke:#83c554;stroke-linejoin:miter;"/>
    </g>
    <g id="text_29">
     <!-- Working -->
     <g transform="translate(945.630469 51.634687)scale(0.14 -0.14)">
      <use xlink:href="#DejaVuSans-87"/>
      <use x="93.001953" xlink:href="#DejaVuSans-111"/>
      <use x="154.183594" xlink:href="#DejaVuSans-114"/>
      <use x="195.296875" xlink:href="#DejaVuSans-107"/>
      <use x="253.207031" xlink:href="#DejaVuSans-105"/>
      <use x="280.990234" xlink:href="#DejaVuSans-110"/>
      <use x="344.369141" xlink:href="#DejaVuSans-103"/>
     </g>
    </g>
   </g>
  </g>
 </g>
 <defs>
  <clipPath id="p54cef2cf73">
   <rect height="323.992" width="1207.81" x="73.738125" y="28.396875"/>
  </clipPath>
 </defs>
</svg>
