<svg id="mermaid-1644435048112" width="100%" xmlns="http://www.w3.org/2000/svg" xmlns:xlink="http://www.w3.org/1999/xlink" height="2171.1875" style="max-width: 2277.6796875px;" viewBox="-20 -20 2277.6796875 2171.1875"><style>#mermaid-1644435048112{font-family:"trebuchet ms",verdana,arial,sans-serif;font-size:16px;fill:#333;}#mermaid-1644435048112 .error-icon{fill:hsl(220.5882352941,100%,98.3333333333%);}#mermaid-1644435048112 .error-text{fill:rgb(4.2500000001,4.2500000001,4.2500000001);stroke:rgb(4.2500000001,4.2500000001,4.2500000001);}#mermaid-1644435048112 .edge-thickness-normal{stroke-width:2px;}#mermaid-1644435048112 .edge-thickness-thick{stroke-width:3.5px;}#mermaid-1644435048112 .edge-pattern-solid{stroke-dasharray:0;}#mermaid-1644435048112 .edge-pattern-dashed{stroke-dasharray:3;}#mermaid-1644435048112 .edge-pattern-dotted{stroke-dasharray:2;}#mermaid-1644435048112 .marker{fill:#0b0b0b;stroke:#0b0b0b;}#mermaid-1644435048112 .marker.cross{stroke:#0b0b0b;}#mermaid-1644435048112 svg{font-family:"trebuchet ms",verdana,arial,sans-serif;font-size:16px;}#mermaid-1644435048112 g.classGroup text{fill:hsl(40.5882352941,60%,83.3333333333%);fill:#333;stroke:none;font-family:"trebuchet ms",verdana,arial,sans-serif;font-size:10px;}#mermaid-1644435048112 g.classGroup text .title{font-weight:bolder;}#mermaid-1644435048112 .classTitle{font-weight:bolder;}#mermaid-1644435048112 .node rect,#mermaid-1644435048112 .node circle,#mermaid-1644435048112 .node ellipse,#mermaid-1644435048112 .node polygon,#mermaid-1644435048112 .node path{fill:#fff4dd;stroke:hsl(40.5882352941,60%,83.3333333333%);stroke-width:1px;}#mermaid-1644435048112 .divider{stroke:hsl(40.5882352941,60%,83.3333333333%);stroke:1;}#mermaid-1644435048112 g.clickable{cursor:pointer;}#mermaid-1644435048112 g.classGroup rect{fill:#fff4dd;stroke:hsl(40.5882352941,60%,83.3333333333%);}#mermaid-1644435048112 g.classGroup line{stroke:hsl(40.5882352941,60%,83.3333333333%);stroke-width:1;}#mermaid-1644435048112 .classLabel .box{stroke:none;stroke-width:0;fill:#fff4dd;opacity:0.5;}#mermaid-1644435048112 .classLabel .label{fill:hsl(40.5882352941,60%,83.3333333333%);font-size:10px;}#mermaid-1644435048112 .relation{stroke:#0b0b0b;stroke-width:1;fill:none;}#mermaid-1644435048112 .dashed-line{stroke-dasharray:3;}#mermaid-1644435048112 #compositionStart,#mermaid-1644435048112 .composition{fill:#0b0b0b !important;stroke:#0b0b0b !important;stroke-width:1;}#mermaid-1644435048112 #compositionEnd,#mermaid-1644435048112 .composition{fill:#0b0b0b !important;stroke:#0b0b0b !important;stroke-width:1;}#mermaid-1644435048112 #dependencyStart,#mermaid-1644435048112 .dependency{fill:#0b0b0b !important;stroke:#0b0b0b !important;stroke-width:1;}#mermaid-1644435048112 #dependencyStart,#mermaid-1644435048112 .dependency{fill:#0b0b0b !important;stroke:#0b0b0b !important;stroke-width:1;}#mermaid-1644435048112 #extensionStart,#mermaid-1644435048112 .extension{fill:#0b0b0b !important;stroke:#0b0b0b !important;stroke-width:1;}#mermaid-1644435048112 #extensionEnd,#mermaid-1644435048112 .extension{fill:#0b0b0b !important;stroke:#0b0b0b !important;stroke-width:1;}#mermaid-1644435048112 #aggregationStart,#mermaid-1644435048112 .aggregation{fill:#fff4dd !important;stroke:#0b0b0b !important;stroke-width:1;}#mermaid-1644435048112 #aggregationEnd,#mermaid-1644435048112 .aggregation{fill:#fff4dd !important;stroke:#0b0b0b !important;stroke-width:1;}#mermaid-1644435048112 .edgeTerminals{font-size:11px;}#mermaid-1644435048112:root{--mermaid-font-family:"trebuchet ms",verdana,arial,sans-serif;}</style><g></g><defs><marker id="extensionStart" class="extension" refX="0" refY="7" markerWidth="190" markerHeight="240" orient="auto"><path d="M 1,7 L18,13 V 1 Z"></path></marker></defs><defs><marker id="extensionEnd" refX="19" refY="7" markerWidth="20" markerHeight="28" orient="auto"><path d="M 1,1 V 13 L18,7 Z"></path></marker></defs><defs><marker id="compositionStart" class="extension" refX="0" refY="7" markerWidth="190" markerHeight="240" orient="auto"><path d="M 18,7 L9,13 L1,7 L9,1 Z"></path></marker></defs><defs><marker id="compositionEnd" refX="19" refY="7" markerWidth="20" markerHeight="28" orient="auto"><path d="M 18,7 L9,13 L1,7 L9,1 Z"></path></marker></defs><defs><marker id="aggregationStart" class="extension" refX="0" refY="7" markerWidth="190" markerHeight="240" orient="auto"><path d="M 18,7 L9,13 L1,7 L9,1 Z"></path></marker></defs><defs><marker id="aggregationEnd" refX="19" refY="7" markerWidth="20" markerHeight="28" orient="auto"><path d="M 18,7 L9,13 L1,7 L9,1 Z"></path></marker></defs><defs><marker id="dependencyStart" class="extension" refX="0" refY="7" markerWidth="190" markerHeight="240" orient="auto"><path d="M 5,7 L9,13 L1,7 L9,1 Z"></path></marker></defs><defs><marker id="dependencyEnd" refX="19" refY="7" markerWidth="20" markerHeight="28" orient="auto"><path d="M 18,7 L9,13 L14,7 L9,1 Z"></path></marker></defs><g id="classid-FromDictMixin-0" class="classGroup" transform="translate(1797.96875,11.984375 )"><rect x="0" y="0" width="104.859375" height="47.09375" class=" "></rect><text y="15" x="0"><tspan class="title" x="18.578125">FromDictMixin</tspan></text><line x1="0" y1="21" y2="21" x2="104.859375"></line><text x="5" y="31" fill="white" class="classText"></text><line x1="0" y1="26" y2="26" x2="104.859375"></line><text x="5" y="41" fill="white" class="classText"><tspan x="5">from_dict(cls, data)</tspan></text></g><g id="classid-Failure-1" class="classGroup" transform="translate(1051.3515625,186.09375 )"><rect x="0" y="0" width="152.015625" height="168.15625" class=" "></rect><text y="15" x="0"><tspan class="title" x="59.4921875">Failure</tspan></text><line x1="0" y1="21" y2="21" x2="152.015625"></line><text x="5" y="31" fill="white" class="classText"><tspan x="5">level: int</tspan><tspan x="5" dy="10">scale: float</tspan><tspan x="5" dy="10">shape: float</tspan><tspan x="5" dy="10">time: float</tspan><tspan x="5" dy="10">materials: float</tspan><tspan x="5" dy="10">description: str</tspan><tspan x="5" dy="10">operation_reduction: float</tspan><tspan x="5" dy="10">service_equipment: list[str]</tspan><tspan x="5" dy="10">system_value: float</tspan><tspan x="5" dy="10">weibull</tspan><tspan x="5" dy="10">request_id: str</tspan></text><line x1="0" y1="137.0625" y2="137.0625" x2="152.015625"></line><text x="5" y="152.0625" fill="white" class="classText"><tspan x="5">assign_id(request_id: str)</tspan><tspan x="5" dy="10">hours_to_next_failure() : float</tspan></text></g><g id="classid-Maintenance-2" class="classGroup" transform="translate(1264.1015625,211.09375 )"><rect x="0" y="0" width="139.625" height="118.15625" class=" "></rect><text y="15" x="0"><tspan class="title" x="40.125">Maintenance</tspan></text><line x1="0" y1="21" y2="21" x2="139.625"></line><text x="5" y="31" fill="white" class="classText"><tspan x="5">time: float</tspan><tspan x="5" dy="10">materials: float</tspan><tspan x="5" dy="10">description: str</tspan><tspan x="5" dy="10">operation_reduction: float</tspan><tspan x="5" dy="10">service_equipment: list[str]</tspan><tspan x="5" dy="10">system_value: float</tspan><tspan x="5" dy="10">request_id: str</tspan></text><line x1="0" y1="97.0625" y2="97.0625" x2="139.625"></line><text x="5" y="112.0625" fill="white" class="classText"><tspan x="5">assign_id(request_id: str)</tspan></text></g><g id="classid-RepairRequest-3" class="classGroup" transform="translate(1351.86328125,1346.78125 )"><rect x="0" y="0" width="150.828125" height="138.21875" class=" "></rect><text y="15" x="0"><tspan class="title" x="41.46875">RepairRequest</tspan></text><line x1="0" y1="21.0625" y2="21.0625" x2="150.828125"></line><text x="5" y="31.0625" fill="white" class="classText"><tspan x="5">cable: bool</tspan><tspan x="5" dy="10">details: Failure | Maintenance</tspan><tspan x="5" dy="10">request_id: str</tspan><tspan x="5" dy="10">severity_level: int</tspan><tspan x="5" dy="10">subassembly_id: str</tspan><tspan x="5" dy="10">subassembly_name: str</tspan><tspan x="5" dy="10">system_id: str</tspan><tspan x="5" dy="10">system_name: str</tspan><tspan x="5" dy="10">upstream_turbines: list[str]</tspan></text><line x1="0" y1="117.125" y2="117.125" x2="150.828125"></line><text x="5" y="132.125" fill="white" class="classText"><tspan x="5">assign_id(request_id: str)</tspan></text></g><g id="classid-ServiceEquipmentData-4" class="classGroup" transform="translate(1943.21875,470.734375 )"><rect x="0" y="0" width="115.765625" height="68.21875" class=" "></rect><text y="15" x="0"><tspan class="title" x="5">ServiceEquipmentData</tspan></text><line x1="0" y1="21.0625" y2="21.0625" x2="115.765625"></line><text x="5" y="31.0625" fill="white" class="classText"><tspan x="5">data_dict: dict</tspan><tspan x="5" dy="10">strategy: str</tspan></text><line x1="0" y1="47.125" y2="47.125" x2="115.765625"></line><text x="5" y="62.125" fill="white" class="classText"><tspan x="5">determine_type()</tspan></text></g><g id="classid-ServiceCrew-5" class="classGroup" transform="translate(1952.828125,0 )"><rect x="0" y="0" width="96.546875" height="71.0625" class=" "></rect><text y="15" x="0"><tspan class="title" x="19.15625">ServiceCrew</tspan></text><line x1="0" y1="21" y2="21" x2="96.546875"></line><text x="5" y="31" fill="white" class="classText"><tspan x="5">day_rate: float</tspan><tspan x="5" dy="10">hourly_rate: float</tspan><tspan x="5" dy="10">n_day_rate: int</tspan><tspan x="5" dy="10">n_hourly_rate: int</tspan></text><line x1="0" y1="67.0625" y2="67.0625" x2="96.546875"></line><text x="5" y="82.0625" fill="white" class="classText"></text></g><g id="classid-ScheduledServiceEquipmentData-6" class="classGroup" transform="translate(1738.8828125,121.0625 )"><rect x="0" y="0" width="164.640625" height="298.21875" class=" "></rect><text y="15" x="0"><tspan class="title" x="5.3828125">ScheduledServiceEquipmentData</tspan></text><line x1="0" y1="21.0625" y2="21.0625" x2="164.640625"></line><text x="5" y="31.0625" fill="white" class="classText"><tspan x="5">name: str</tspan><tspan x="5" dy="10">capability: list[str]</tspan><tspan x="5" dy="10">equipment_rate: float</tspan><tspan x="5" dy="10">crew: ServiceCrew</tspan><tspan x="5" dy="10">n_crews: int</tspan><tspan x="5" dy="10">crew_transfer_time: float</tspan><tspan x="5" dy="10">start_day: int</tspan><tspan x="5" dy="10">start_month: int</tspan><tspan x="5" dy="10">end_day: int</tspan><tspan x="5" dy="10">end_month: int</tspan><tspan x="5" dy="10">start_year: int</tspan><tspan x="5" dy="10">end_year: int</tspan><tspan x="5" dy="10">strategy: str</tspan><tspan x="5" dy="10">onsite: bool</tspan><tspan x="5" dy="10">workday_start: int</tspan><tspan x="5" dy="10">workday_end: int</tspan><tspan x="5" dy="10">method: str</tspan><tspan x="5" dy="10">mobilization_cost: float</tspan><tspan x="5" dy="10">mobilization_days: int</tspan><tspan x="5" dy="10">speed: float</tspan><tspan x="5" dy="10">max_waveheight_repair: float</tspan><tspan x="5" dy="10">max_waveheight_transport: float</tspan><tspan x="5" dy="10">max_windspeed_repair: float</tspan><tspan x="5" dy="10">max_windspeed_transport: float</tspan><tspan x="5" dy="10">operating_dates: numpy.ndarray</tspan></text><line x1="0" y1="277.125" y2="277.125" x2="164.640625"></line><text x="5" y="292.125" fill="white" class="classText"><tspan x="5">create_date_range()</tspan></text></g><g id="classid-UnscheduledServiceEquipmentData-7" class="classGroup" transform="translate(2023.32421875,154.640625 )"><rect x="0" y="0" width="175.75" height="231.0625" class=" "></rect><text y="15" x="0"><tspan class="title" x="5">UnscheduledServiceEquipmentData</tspan></text><line x1="0" y1="21.0625" y2="21.0625" x2="175.75"></line><text x="5" y="31.0625" fill="white" class="classText"><tspan x="5">name: str</tspan><tspan x="5" dy="10">capability: list[str]</tspan><tspan x="5" dy="10">equipment_rate: float</tspan><tspan x="5" dy="10">crew: ServiceCrew</tspan><tspan x="5" dy="10">n_crews: int</tspan><tspan x="5" dy="10">crew_transfer_time: float</tspan><tspan x="5" dy="10">charter_days: int</tspan><tspan x="5" dy="10">strategy: str</tspan><tspan x="5" dy="10">strategy_threshold: int | float</tspan><tspan x="5" dy="10">workday_start: int</tspan><tspan x="5" dy="10">workday_end: int</tspan><tspan x="5" dy="10">method: str</tspan><tspan x="5" dy="10">mobilization_cost: float</tspan><tspan x="5" dy="10">mobilization_days: int</tspan><tspan x="5" dy="10">speed: float</tspan><tspan x="5" dy="10">max_waveheight_repair: float</tspan><tspan x="5" dy="10">max_waveheight_transport: float</tspan><tspan x="5" dy="10">max_windspeed_repair: float</tspan><tspan x="5" dy="10">max_windspeed_transport: float</tspan><tspan x="5" dy="10">onsite: bool</tspan></text><line x1="0" y1="227.0625" y2="227.0625" x2="175.75"></line><text x="5" y="242.0625" fill="white" class="classText"></text></g><g id="classid-SubassemblyData-8" class="classGroup" transform="translate(978.02734375,469.28125 )"><rect x="0" y="0" width="157.390625" height="71.125" class=" "></rect><text y="15" x="0"><tspan class="title" x="38.5625">SubassemblyData</tspan></text><line x1="0" y1="21.0625" y2="21.0625" x2="157.390625"></line><text x="5" y="31.0625" fill="white" class="classText"><tspan x="5">name: str</tspan><tspan x="5" dy="10">system_value: float</tspan><tspan x="5" dy="10">failures: dict[int, Failure]</tspan><tspan x="5" dy="10">maintenance: list[Maintenance]</tspan></text><line x1="0" y1="67.125" y2="67.125" x2="157.390625"></line><text x="5" y="82.125" fill="white" class="classText"></text></g><g id="classid-FixedCosts-9" class="classGroup" transform="translate(248.8671875,1286.84375 )"><rect x="0" y="0" width="264.28125" height="258.09375" class=" "></rect><text y="15" x="0"><tspan class="title" x="107.015625">FixedCosts</tspan></text><line x1="0" y1="21" y2="21" x2="264.28125"></line><text x="5" y="31" fill="white" class="classText"><tspan x="5">operations: float</tspan><tspan x="5" dy="10">annual_lease_fees: float</tspan><tspan x="5" dy="10">brokers_fee: float</tspan><tspan x="5" dy="10">business_interruption: float</tspan><tspan x="5" dy="10">condition_monitoring: float</tspan><tspan x="5" dy="10">environmental_health_safety_monitoring: float</tspan><tspan x="5" dy="10">insurance: float</tspan><tspan x="5" dy="10">labor: float</tspan><tspan x="5" dy="10">marine_management: float</tspan><tspan x="5" dy="10">onshore_electrical_maintenance: float</tspan><tspan x="5" dy="10">operating_facilities: float</tspan><tspan x="5" dy="10">operations_all_risk: float</tspan><tspan x="5" dy="10">operations_management_administration: float</tspan><tspan x="5" dy="10">project_management_administration: float</tspan><tspan x="5" dy="10">storm_coverage: float</tspan><tspan x="5" dy="10">submerge_land_lease_costs: float</tspan><tspan x="5" dy="10">third_party_liability: float</tspan><tspan x="5" dy="10">transmission_charges_rights: float</tspan><tspan x="5" dy="10">weather_forecasting: float</tspan><tspan x="5" dy="10">hierarchy: dict</tspan><tspan x="5" dy="10">resolution: dict</tspan></text><line x1="0" y1="237" y2="237" x2="264.28125"></line><text x="5" y="252" fill="white" class="classText"><tspan x="5">cost_category_validator(name: str, sub_name: list[str])</tspan></text></g><g id="classid-ServiceEquipment-10" class="classGroup" transform="translate(1764.5234375,590.40625 )"><rect x="0" y="0" width="473.15625" height="298.21875" class=" "></rect><text y="15" x="0"><tspan class="title" x="194.21875">ServiceEquipment</tspan></text><line x1="0" y1="21.0625" y2="21.0625" x2="473.15625"></line><text x="5" y="31.0625" fill="white" class="classText"><tspan x="5">env: WombatEnvironment</tspan><tspan x="5" dy="10">manager: RepairManager</tspan><tspan x="5" dy="10">windfarm: Windfarm</tspan><tspan x="5" dy="10">settings: ScheduledServiceEquipmentData | UnscheduledServiceEquipmentData</tspan><tspan x="5" dy="10">at_port: bool</tspan><tspan x="5" dy="10">at_system: bool</tspan><tspan x="5" dy="10">onsite: bool</tspan><tspan x="5" dy="10">enroute: bool</tspan><tspan x="5" dy="10">transferring_crew: bool</tspan><tspan x="5" dy="10">current_system: bool</tspan></text><line x1="0" y1="127.125" y2="127.125" x2="473.15625"></line><text x="5" y="142.125" fill="white" class="classText"><tspan x="5">calculate_equipment_cost(duration: float)</tspan><tspan x="5" dy="10">calculate_hourly_cost(duration: float)</tspan><tspan x="5" dy="10">calculate_salary_cost(duration: float)</tspan><tspan x="5" dy="10">find_interrupted_weather_window(hours_required: float)</tspan><tspan x="5" dy="10">find_uninterrupted_weather_window(hours_required: float)</tspan><tspan x="5" dy="10">run_scheduled()</tspan><tspan x="5" dy="10">run_unscheduled()</tspan><tspan x="5" dy="10">mobilize()</tspan><tspan x="5" dy="10">mobilize_scheduled()</tspan><tspan x="5" dy="10">weather_delay(hours: float)</tspan><tspan x="5" dy="10">wait_until_next_shift()</tspan><tspan x="5" dy="10">wait_until_next_operational_period()</tspan><tspan x="5" dy="10">proces_repair(request: RepairRequest, time_processed: float, prior_operational_level: float)</tspan><tspan x="5" dy="10">crew_transfer(system: System, subassembly: Subassembly, requests: RepairRequest, to_system: bool)</tspan><tspan x="5" dy="10">repair(hours: float, request_details: Failure | Maintenance)</tspan><tspan x="5" dy="10">travel(start: str, end: str, set_current: str)</tspan></text></g><g id="classid-Windfarm-11" class="classGroup" transform="translate(1030.59375,1321.8125 )"><rect x="0" y="0" width="193.53125" height="188.15625" class=" "></rect><text y="15" x="0"><tspan class="title" x="74.0546875">Windfarm</tspan></text><line x1="0" y1="21" y2="21" x2="193.53125"></line><text x="5" y="31" fill="white" class="classText"><tspan x="5">env: WombatEnvironment</tspan><tspan x="5" dy="10">windfarm_layout: str</tspan><tspan x="5" dy="10">repair_manager: RepairManager</tspan><tspan x="5" dy="10">capacity: float</tspan><tspan x="5" dy="10">graph: networkx.DiGraph</tspan><tspan x="5" dy="10">system_list: list[str]</tspan><tspan x="5" dy="10">substation_id: list[str]</tspan><tspan x="5" dy="10">turbine_id: list[str]</tspan><tspan x="5" dy="10">distance_matrix: numpy.ndarray</tspan><tspan x="5" dy="10">current_availability: float</tspan><tspan x="5" dy="10">current_availability_wo_servicing: float</tspan></text><line x1="0" y1="137.0625" y2="137.0625" x2="193.53125"></line><text x="5" y="152.0625" fill="white" class="classText"><tspan x="5">calculate_distance_matrix()</tspan><tspan x="5" dy="10">_log_operations()</tspan><tspan x="5" dy="10">system(system_id: str) : System</tspan><tspan x="5" dy="10">cable(cable_id: str | tuple) : Cable</tspan></text></g><g id="classid-System-12" class="classGroup" transform="translate(1306.31640625,938.625 )"><rect x="0" y="0" width="200.453125" height="298.21875" class=" "></rect><text y="15" x="0"><tspan class="title" x="83.6953125">System</tspan></text><line x1="0" y1="21.0625" y2="21.0625" x2="200.453125"></line><text x="5" y="31.0625" fill="white" class="classText"><tspan x="5">env: WombatEnvironment</tspan><tspan x="5" dy="10">id: str</tspan><tspan x="5" dy="10">name: str</tspan><tspan x="5" dy="10">operating_level: float</tspan><tspan x="5" dy="10">operating_level_wo_servicing: float</tspan><tspan x="5" dy="10">power_curve: Callable</tspan><tspan x="5" dy="10">repair_manager: RepairManager</tspan><tspan x="5" dy="10">servicing: bool</tspan><tspan x="5" dy="10">value: float</tspan><tspan x="5" dy="10">cable_failure: bool</tspan><tspan x="5" dy="10">capacity: float</tspan><tspan x="5" dy="10">subassemblies: list[Subassembly]</tspan><tspan x="5" dy="10">electrical_system: Subasembly</tspan><tspan x="5" dy="10">electronic_control: Subasembly</tspan><tspan x="5" dy="10">gearbox: Subasembly</tspan><tspan x="5" dy="10">generator: Subasembly</tspan><tspan x="5" dy="10">hydraulic_system: Subasembly</tspan><tspan x="5" dy="10">mechanical_brake: Subasembly</tspan><tspan x="5" dy="10">rotor_blades: Subasembly</tspan><tspan x="5" dy="10">rotor_hub: Subasembly</tspan><tspan x="5" dy="10">sensors: Subasembly</tspan><tspan x="5" dy="10">supporting_structure: Subasembly</tspan><tspan x="5" dy="10">yaw_system: Subasembly</tspan><tspan x="5" dy="10">transformer: Subasembly</tspan></text><line x1="0" y1="267.125" y2="267.125" x2="200.453125"></line><text x="5" y="282.125" fill="white" class="classText"><tspan x="5">power(windspeed: float | numpy.ndaray)</tspan><tspan x="5" dy="10">interrupt_all_subassembly_processes()</tspan></text></g><g id="classid-Subassembly-13" class="classGroup" transform="translate(1280.26953125,660.40625 )"><rect x="0" y="0" width="252.546875" height="158.21875" class=" "></rect><text y="15" x="0"><tspan class="title" x="96.6640625">Subassembly</tspan></text><line x1="0" y1="21.0625" y2="21.0625" x2="252.546875"></line><text x="5" y="31.0625" fill="white" class="classText"><tspan x="5">id: str</tspan><tspan x="5" dy="10">name: str</tspan><tspan x="5" dy="10">env: WombatEnvironment</tspan><tspan x="5" dy="10">data: SubassemblyData</tspan><tspan x="5" dy="10">broken: bool</tspan><tspan x="5" dy="10">operating_level: float</tspan><tspan x="5" dy="10">turbine: System</tspan><tspan x="5" dy="10">processes: dict</tspan></text><line x1="0" y1="107.125" y2="107.125" x2="252.546875"></line><text x="5" y="122.125" fill="white" class="classText"><tspan x="5">run_single_failure(failure: Failure)</tspan><tspan x="5" dy="10">run_single_maintenance(maintenance: Maintenance)</tspan><tspan x="5" dy="10">interrupt_processes()</tspan><tspan x="5" dy="10">interrupt_all_subassembly_processes()</tspan></text></g><g id="classid-Cable-14" class="classGroup" transform="translate(930.44921875,968.65625 )"><rect x="0" y="0" width="252.546875" height="238.15625" class=" "></rect><text y="15" x="0"><tspan class="title" x="113.2890625">Cable</tspan></text><line x1="0" y1="21" y2="21" x2="252.546875"></line><text x="5" y="31" fill="white" class="classText"><tspan x="5">id: str</tspan><tspan x="5" dy="10">name: str</tspan><tspan x="5" dy="10">env: WombatEnvironment</tspan><tspan x="5" dy="10">data: SubassemblyData</tspan><tspan x="5" dy="10">broken: bool</tspan><tspan x="5" dy="10">servicing: bool</tspan><tspan x="5" dy="10">downstream_failure: bool</tspan><tspan x="5" dy="10">processes: dict</tspan><tspan x="5" dy="10">operating_level: float</tspan><tspan x="5" dy="10">operating_level_wo_servicing: float</tspan><tspan x="5" dy="10">repair_manager: RepairManager</tspan><tspan x="5" dy="10">servicing: bool</tspan><tspan x="5" dy="10">value: float</tspan><tspan x="5" dy="10">cable_failure: bool</tspan><tspan x="5" dy="10">capacity: float</tspan></text><line x1="0" y1="177.0625" y2="177.0625" x2="252.546875"></line><text x="5" y="192.0625" fill="white" class="classText"><tspan x="5">run_single_failure(failure: Failure)</tspan><tspan x="5" dy="10">run_single_maintenance(maintenance: Maintenance)</tspan><tspan x="5" dy="10">interrupt_processes()</tspan><tspan x="5" dy="10">interrupt_all_subassembly_processes()</tspan><tspan x="5" dy="10">stop_all_upstream_processes()</tspan></text></g><g id="classid-RepairManager-15" class="classGroup" transform="translate(1592.2578125,1704.90625 )"><rect x="0" y="0" width="404.578125" height="128.21875" class=" "></rect><text y="15" x="0"><tspan class="title" x="167.6328125">RepairManager</tspan></text><line x1="0" y1="21.0625" y2="21.0625" x2="404.578125"></line><text x="5" y="31.0625" fill="white" class="classText"><tspan x="5">env: WombatEnvironment</tspan><tspan x="5" dy="10">windfarm: Windfarm</tspan><tspan x="5" dy="10">downtime_based_equipment: StrategyMap</tspan><tspan x="5" dy="10">request_based_equipment: StrategyMap</tspan><tspan x="5" dy="10">request_map: dict[str, int]</tspan></text><line x1="0" y1="77.125" y2="77.125" x2="404.578125"></line><text x="5" y="92.125" fill="white" class="classText"><tspan x="5">submit_request(request: RepairRequest) : RepairREquest</tspan><tspan x="5" dy="10">purge_subassembly_requests(system_id: str, subassembly_id: str, exclude: list[str])</tspan><tspan x="5" dy="10">get_next_highest_severity_request(equipment_capability: list[str], severity_level: int)</tspan><tspan x="5" dy="10">get_request_by_system(equipment_capability: list[str], system_id: str)</tspan></text></g><g id="classid-StrategyMap-16" class="classGroup" transform="translate(1632.7578125,1351.78125 )"><rect x="0" y="0" width="358.453125" height="128.21875" class=" "></rect><text y="15" x="0"><tspan class="title" x="150.546875">StrategyMap</tspan></text><line x1="0" y1="21.0625" y2="21.0625" x2="358.453125"></line><text x="5" y="31.0625" fill="white" class="classText"><tspan x="5">CTV: list[EquipmentMap]</tspan><tspan x="5" dy="10">LCN: list[EquipmentMap]</tspan><tspan x="5" dy="10">SCN: list[EquipmentMap]</tspan><tspan x="5" dy="10">CAB: list[EquipmentMap]</tspan><tspan x="5" dy="10">DSV: list[EquipmentMap]</tspan><tspan x="5" dy="10">DRN: list[EquipmentMap]</tspan><tspan x="5" dy="10">RMT: list[EquipmentMap]</tspan><tspan x="5" dy="10">is_running: bool</tspan></text><line x1="0" y1="107.125" y2="107.125" x2="358.453125"></line><text x="5" y="122.125" fill="white" class="classText"><tspan x="5">update(capability: str, threshold: float | int, equipment: ServiceEquipment)</tspan></text></g><g id="classid-EquipmentMap-17" class="classGroup" transform="translate(1724.7578125,1062.171875 )"><rect x="0" y="0" width="174.453125" height="51.125" class=" "></rect><text y="15" x="0"><tspan class="title" x="52.6953125">EquipmentMap</tspan></text><line x1="0" y1="21.0625" y2="21.0625" x2="174.453125"></line><text x="5" y="31.0625" fill="white" class="classText"><tspan x="5">equipment_map: ServiceEquipment</tspan><tspan x="5" dy="10">strategy_threshold: int | float</tspan></text><line x1="0" y1="47.125" y2="47.125" x2="174.453125"></line><text x="5" y="62.125" fill="white" class="classText"></text></g><g id="classid-WombatEnvironment-18" class="classGroup" transform="translate(596.65625,1624.9375 )"><rect x="0" y="0" width="495.703125" height="288.15625" class=" "></rect><text y="15" x="0"><tspan class="title" x="198.8046875">WombatEnvironment</tspan></text><line x1="0" y1="21" y2="21" x2="495.703125"></line><text x="5" y="31" fill="white" class="classText"><tspan x="5">data_dir: pathlib.Path</tspan><tspan x="5" dy="10">weather_file: str</tspan><tspan x="5" dy="10">workday_end: int</tspan><tspan x="5" dy="10">workday_end: int</tspan><tspan x="5" dy="10">simulation_name: str</tspan><tspan x="5" dy="10">start_year: int</tspan><tspan x="5" dy="10">end_year: int</tspan><tspan x="5" dy="10">weather: pandas.DataFrame</tspan><tspan x="5" dy="10">max_run_time: int</tspan><tspan x="5" dy="10">shift_length: int</tspan><tspan x="5" dy="10">weather_now: tuple[float, float]</tspan><tspan x="5" dy="10">simulation_time: datetime.datetime</tspan><tspan x="5" dy="10">current_time: datetime.datetime</tspan><tspan x="5" dy="10">events_log_fname: str</tspan><tspan x="5" dy="10">operations_log_fname: str</tspan><tspan x="5" dy="10">power_potential_fname: str</tspan><tspan x="5" dy="10">power_production_fname: str</tspan></text><line x1="0" y1="197.0625" y2="197.0625" x2="495.703125"></line><text x="5" y="212.0625" fill="white" class="classText"><tspan x="5">run(until: int | float)</tspan><tspan x="5" dy="10">hour_in_shift(hour: int, workday_start: int, workday_end: int) : bool</tspan><tspan x="5" dy="10">hours_to_next_shift(workday_start: int) : float</tspan><tspan x="5" dy="10">date_ix(date: datetime.datetime) int)</tspan><tspan x="5" dy="10">weather_forecast(hours: int | float)</tspan><tspan x="5" dy="10">convert_logs_to_csv(delete_original: bool, return_df: True)</tspan><tspan x="5" dy="10">power_production_potential_to_csv(windfarm: Windfarm, operations: pandas.DataFrame, return_df: bool)</tspan><tspan x="5" dy="10">cleanup_log_files(log_only: bool)</tspan></text></g><g id="classid-Simulation-19" class="classGroup" transform="translate(835.58203125,1993.09375 )"><rect x="0" y="0" width="300.703125" height="138.09375" class=" "></rect><text y="15" x="0"><tspan class="title" x="125.65625">Simulation</tspan></text><line x1="0" y1="21" y2="21" x2="300.703125"></line><text x="5" y="31" fill="white" class="classText"><tspan x="5">env: WombatEnvironment</tspan><tspan x="5" dy="10">library_path: pathlib.Path</tspan><tspan x="5" dy="10">config: dict | Configuration</tspan><tspan x="5" dy="10">windfarm: Windfarm</tspan><tspan x="5" dy="10">repair_manager: RepairManager</tspan><tspan x="5" dy="10">service_equipment: list[ServiceEquipment]</tspan><tspan x="5" dy="10">metrics: Metrics</tspan></text><line x1="0" y1="97" y2="97" x2="300.703125"></line><text x="5" y="112" fill="white" class="classText"><tspan x="5">from_config(cls, config: pathlib.Path | dict)</tspan><tspan x="5" dy="10">run(until: int, create_metrics: bool, save_metrics_inputs: bool)</tspan><tspan x="5" dy="10">save_metrics_inputs()</tspan></text></g><g id="classid-Configuration-20" class="classGroup" transform="translate(0,1688.453125 )"><rect x="0" y="0" width="165.359375" height="161.125" class=" "></rect><text y="15" x="0"><tspan class="title" x="50.9765625">Configuration</tspan></text><line x1="0" y1="21.0625" y2="21.0625" x2="165.359375"></line><text x="5" y="31.0625" fill="white" class="classText"><tspan x="5">name: str</tspan><tspan x="5" dy="10">library_path: pathlib.Path</tspan><tspan x="5" dy="10">layout: str</tspan><tspan x="5" dy="10">service_equipment: str | list[str]</tspan><tspan x="5" dy="10">weather: str | pandas.DataFrame</tspan><tspan x="5" dy="10">workday_start: int</tspan><tspan x="5" dy="10">workday_end: int</tspan><tspan x="5" dy="10">inflation_rate: float</tspan><tspan x="5" dy="10">fixed_costs: str</tspan><tspan x="5" dy="10">project_capacity: float</tspan><tspan x="5" dy="10">start_year: int</tspan><tspan x="5" dy="10">end_year: int</tspan><tspan x="5" dy="10">SAM_settings: str</tspan></text><line x1="0" y1="157.125" y2="157.125" x2="165.359375"></line><text x="5" y="172.125" fill="white" class="classText"></text></g><g id="classid-Metrics-21" class="classGroup" transform="translate(215.359375,1594.9375 )"><rect x="0" y="0" width="331.296875" height="348.15625" class=" "></rect><text y="15" x="0"><tspan class="title" x="148.7265625">Metrics</tspan></text><line x1="0" y1="21" y2="21" x2="331.296875"></line><text x="5" y="31" fill="white" class="classText"><tspan x="5">data_dir: pathlib.Path</tspan><tspan x="5" dy="10">events: str | pandas.DataFrame</tspan><tspan x="5" dy="10">operations: str | pandas.DataFrame</tspan><tspan x="5" dy="10">potential: str | pandas.DataFrame</tspan><tspan x="5" dy="10">production: str | pandas.DataFrame</tspan><tspan x="5" dy="10">inflation_rate: float</tspan><tspan x="5" dy="10">project_capacity: float</tspan><tspan x="5" dy="10">turbine_capacities: list[float]</tspan><tspan x="5" dy="10">substation_id: list[str]</tspan><tspan x="5" dy="10">turbine_id: list[str]</tspan><tspan x="5" dy="10">service_equipment_names: list[str]</tspan><tspan x="5" dy="10">fixed_costs: str</tspan><tspan x="5" dy="10">SAM_settings: str</tspan></text><line x1="0" y1="157.0625" y2="157.0625" x2="331.296875"></line><text x="5" y="172.0625" fill="white" class="classText"><tspan x="5">from_simulation_outputs(cls, fpath: Path | str, fname: str)</tspan><tspan x="5" dy="10">time_based_availability(frequency: str, by: str)</tspan><tspan x="5" dy="10">production_based_availability(frequency: str, by: str)</tspan><tspan x="5" dy="10">capacity_factor(which: str, frequency: str, by: str)</tspan><tspan x="5" dy="10">task_completion_rate(which: str, frequency: str)</tspan><tspan x="5" dy="10">equipment_costs(frequency: str, by_equipment: bool)</tspan><tspan x="5" dy="10">service_equipment_utilization(frequency: str)</tspan><tspan x="5" dy="10">labor_costs(frequency: str, by_type: bool)</tspan><tspan x="5" dy="10">equipment_labor_cost_breakdowns(frequency: str, by_category: bool)</tspan><tspan x="5" dy="10">component_costs(frequency: str, by_category: bool, by_action: bool)</tspan><tspan x="5" dy="10">project_fixed_costs(frequency: str, resolution: str)</tspan><tspan x="5" dy="10">process_times()</tspan><tspan x="5" dy="10">power_production(frequency: str, by_turbine: bool)</tspan><tspan x="5" dy="10">pysam_npv()</tspan><tspan x="5" dy="10">pysam_lcoe_real()</tspan><tspan x="5" dy="10">pysam_lcoe_nominal()</tspan><tspan x="5" dy="10">pysam_irr()</tspan><tspan x="5" dy="10">pysam_all_outputs()</tspan></text></g><path d="M1952.828125,51.77403428583837L1930.890625,59.15544523819864C1908.953125,66.53685619055891,1865.078125,81.29967809527945,1843.140625,92.84775571430639C1821.203125,104.39583333333333,1821.203125,112.72916666666667,1821.203125,116.89583333333333L1821.203125,121.0625" id="edge0" class="relation dashed-line" marker-end="url(#dependencyEnd)"></path><path d="M2049.375,62.07179239843889L2059.6790364583335,67.73691033203241C2069.9830729166665,73.40202826562593,2090.5911458333335,84.73226413281297,2100.8951822916665,100.16040289973982C2111.19921875,115.58854166666667,2111.19921875,135.11458333333334,2111.19921875,144.87760416666666L2111.19921875,154.640625" id="edge1" class="relation dashed-line" marker-end="url(#dependencyEnd)"></path><path d="M1821.203125,419.28125L1821.203125,423.4479166666667C1821.203125,427.6145833333333,1821.203125,435.9479166666667,1841.5390625,446.96064176473993C1861.875,457.97336686281324,1902.546875,471.6654837256265,1922.8828125,478.5115421570331L1943.21875,485.35760058843965" id="edge2" class="relation dashed-line" marker-end="url(#dependencyEnd)"></path><g class="classLabel"><rect class="box" x="1832.078125" y="449.328125" width="76.578125" height="16.0625"></rect><text class="label" x="1870.3642303150943" y="460.83125166772095" fill="red" text-anchor="middle">determine_type</text></g><path d="M2111.19921875,385.703125L2111.19921875,395.4661458333333C2111.19921875,405.2291666666667,2111.19921875,424.7552083333333,2102.4967447916665,439.3052845596062C2093.7942708333335,453.855360785879,2076.3893229166665,463.42947157175803,2067.6868489583335,468.21652696469755L2058.984375,473.003582357637" id="edge3" class="relation dashed-line" marker-end="url(#dependencyEnd)"></path><g class="classLabel"><rect class="box" x="2072.46875" y="433.015625" width="76.578125" height="16.0625"></rect><text class="label" x="2110.7544742692285" y="444.52589496824146" fill="red" text-anchor="middle">determine_type</text></g><path d="M2001.1015625,538.953125L2001.1015625,543.3619791666666C2001.1015625,547.7708333333334,2001.1015625,556.5885416666666,2001.1015625,565.1640625C2001.1015625,573.7395833333334,2001.1015625,582.0729166666666,2001.1015625,586.2395833333334L2001.1015625,590.40625" id="edge4" class="relation" marker-end="url(#compositionEnd)"></path><path d="M1184.2986687971147,354.25L1194.460479205929,369.2552083333333C1204.622289614743,384.2604166666667,1224.9459104323716,414.2708333333333,1235.107720841186,439.3697916666667C1245.26953125,464.46875,1245.26953125,484.65625,1245.26953125,504.84375C1245.26953125,525.03125,1245.26953125,545.21875,1245.26953125,584.3307291666666C1245.26953125,623.4427083333334,1245.26953125,681.4791666666666,1245.26953125,739.515625C1245.26953125,797.5520833333334,1245.26953125,855.5885416666666,1245.26953125,913.625C1245.26953125,971.6614583333334,1245.26953125,1029.6979166666667,1245.26953125,1087.734375C1245.26953125,1145.7708333333333,1245.26953125,1203.8072916666667,1263.03515625,1247.8619029318868C1280.80078125,1291.9165141971068,1316.33203125,1321.989278394214,1334.09765625,1337.0256604927672L1351.86328125,1352.0620425913207" id="edge5" class="relation dashed-line" marker-end="url(#dependencyEnd)"></path><path d="M1403.7265625,322.1380526248768L1431.0748697916667,342.4952521873973C1458.4231770833333,362.85245174991786,1513.1197916666667,403.5668508749589,1540.4680989583333,434.0178004374795C1567.81640625,464.46875,1567.81640625,484.65625,1567.81640625,504.84375C1567.81640625,525.03125,1567.81640625,545.21875,1567.81640625,584.3307291666666C1567.81640625,623.4427083333334,1567.81640625,681.4791666666666,1567.81640625,739.515625C1567.81640625,797.5520833333334,1567.81640625,855.5885416666666,1567.81640625,913.625C1567.81640625,971.6614583333334,1567.81640625,1029.6979166666667,1567.81640625,1087.734375C1567.81640625,1145.7708333333333,1567.81640625,1203.8072916666667,1554.9014665375544,1246.9817708333333C1541.986526825109,1290.15625,1516.1566474002182,1318.46875,1503.2417076877725,1332.625L1490.3267679753271,1346.78125" id="edge6" class="relation dashed-line" marker-end="url(#dependencyEnd)"></path><path d="M1427.27734375,1485L1427.27734375,1499.15625C1427.27734375,1513.3125,1427.27734375,1541.625,1468.7768886697802,1578.2760416666667C1510.27643358956,1614.9270833333333,1593.2755234291199,1659.9166666666667,1634.7750683489,1682.4114583333333L1676.2746132686798,1704.90625" id="edge7" class="relation" marker-end="url(#aggregationEnd)"></path><path d="M1811.984375,1113.296875L1811.984375,1138.0546875C1811.984375,1162.8125,1811.984375,1212.328125,1811.984375,1252.0755208333333C1811.984375,1291.8229166666667,1811.984375,1321.8020833333333,1811.984375,1336.7916666666667L1811.984375,1351.78125" id="edge8" class="relation" marker-end="url(#aggregationEnd)"></path><path d="M1811.984375,1480L1811.984375,1494.9895833333333C1811.984375,1509.9791666666667,1811.984375,1539.9583333333333,1810.0140282846714,1577.4427083333333C1808.0436815693429,1614.9270833333333,1804.102988138686,1659.9166666666667,1802.1326414233574,1682.4114583333333L1800.162294708029,1704.90625" id="edge9" class="relation" marker-end="url(#compositionEnd)"></path><path d="M1839.139315321278,888.625L1834.6134919343983,892.7916666666666C1830.0876685475187,896.9583333333334,1821.036021773759,905.2916666666666,1816.5101983868797,934.2161458333334C1811.984375,963.140625,1811.984375,1012.65625,1811.984375,1037.4140625L1811.984375,1062.171875" id="edge10" class="relation" marker-end="url(#compositionEnd)"></path><path d="M2022.6055350051602,888.625L2023.206435420967,892.7916666666666C2023.8073358367735,896.9583333333334,2025.0091366683866,905.2916666666666,2025.6100370841934,938.4765625C2026.2109375,971.6614583333334,2026.2109375,1029.6979166666667,2026.2109375,1087.734375C2026.2109375,1145.7708333333333,2026.2109375,1203.8072916666667,2026.2109375,1258.5C2026.2109375,1313.1927083333333,2026.2109375,1364.5416666666667,2026.2109375,1415.890625C2026.2109375,1467.2395833333333,2026.2109375,1518.5885416666667,2000.0341045476546,1566.7578125C1973.857271595309,1614.9270833333333,1921.503605690618,1659.9166666666667,1895.3267727382727,1682.4114583333333L1869.1499397859272,1704.90625" id="edge11" class="relation" marker-end="url(#aggregationEnd)"></path><path d="M1493.7847846602126,818.625L1511.245784091844,834.4583333333334C1528.706783523475,850.2916666666666,1563.6287823867376,881.9583333333334,1581.0897818183687,926.8098958333334C1598.55078125,971.6614583333334,1598.55078125,1029.6979166666667,1598.55078125,1087.734375C1598.55078125,1145.7708333333333,1598.55078125,1203.8072916666667,1582.57421875,1247.1951718562316C1566.59765625,1290.5830520457966,1534.64453125,1319.3223540915933,1518.66796875,1333.6920051144916L1502.69140625,1348.06165613739" id="edge12" class="relation" marker-end="url(#dependencyEnd)"></path><path d="M1506.76953125,1156.675228157456L1532.251953125,1174.2033151312135C1557.734375,1191.7314021049708,1608.69921875,1226.7875760524855,1608.01953125,1261.6582685516585C1607.33984375,1296.5289610508312,1555.015625,1331.2141721016624,1528.853515625,1348.556777627078L1502.69140625,1365.8993831524936" id="edge13" class="relation" marker-end="url(#dependencyEnd)"></path><path d="M1088.4195757005518,354.25L1081.47008912546,369.2552083333333C1074.5206025503678,384.2604166666667,1060.621629400184,414.2708333333333,1054.360137321136,433.4427083333333C1048.0986452420882,452.6145833333333,1049.4746342341762,460.9479166666667,1050.1626287302201,465.1145833333333L1050.8506232262641,469.28125" id="edge14" class="relation dashed-line" marker-end="url(#extensionEnd)"></path><path d="M1273.0810367214845,329.25L1253.3396660179037,348.421875C1233.598295314323,367.59375,1194.1155539071615,405.9375,1167.6380183428996,429.2760416666667C1141.1604827786377,452.6145833333333,1127.6881530572755,460.9479166666667,1120.9519881965944,465.1145833333333L1114.2158233359132,469.28125" id="edge15" class="relation dashed-line" marker-end="url(#extensionEnd)"></path><path d="M1056.72265625,540.40625L1056.72265625,544.5729166666666C1056.72265625,548.7395833333334,1056.72265625,557.0729166666666,1056.72265625,590.2578125C1056.72265625,623.4427083333334,1056.72265625,681.4791666666666,1056.72265625,739.515625C1056.72265625,797.5520833333334,1056.72265625,855.5885416666666,1056.72265625,893.7786458333334C1056.72265625,931.96875,1056.72265625,950.3125,1056.72265625,959.484375L1056.72265625,968.65625" id="edge16" class="relation dashed-line" marker-end="url(#extensionEnd)"></path><path d="M1056.72265625,1206.8125L1056.72265625,1215.984375C1056.72265625,1225.15625,1056.72265625,1243.5,1061.305672217855,1262.6666666666667C1065.8886881857102,1281.8333333333333,1075.0547201214204,1301.8229166666667,1079.6377360892754,1311.8177083333333L1084.2207520571305,1321.8125" id="edge17" class="relation" marker-end="url(#aggregationEnd)"></path><path d="M1135.41796875,518.4678441219822L1180.60546875,526.2909117683186C1225.79296875,534.1139794146549,1316.16796875,549.7601147073274,1361.35546875,573.4165156869971C1406.54296875,597.0729166666666,1406.54296875,628.7395833333334,1406.54296875,644.5729166666666L1406.54296875,660.40625" id="edge18" class="relation dashed-line" marker-end="url(#extensionEnd)"></path><path d="M1406.54296875,818.625L1406.54296875,834.4583333333334C1406.54296875,850.2916666666666,1406.54296875,881.9583333333334,1406.54296875,901.9583333333334C1406.54296875,921.9583333333334,1406.54296875,930.2916666666666,1406.54296875,934.4583333333334L1406.54296875,938.625" id="edge19" class="relation" marker-end="url(#compositionEnd)"></path><path d="M1306.31640625,1183.999908417015L1292.80859375,1196.973882014179C1279.30078125,1209.9478556113434,1252.28515625,1235.8958028056716,1232.4247863627143,1258.8645680695024C1212.5644164754285,1281.8333333333333,1199.859301700857,1301.8229166666667,1193.5067443135713,1311.8177083333333L1187.1541869262855,1321.8125" id="edge20" class="relation" marker-end="url(#aggregationEnd)"></path><path d="M381.0078125,1544.9375L381.0078125,1549.1041666666667C381.0078125,1553.2708333333333,381.0078125,1561.6041666666667,381.0078125,1569.9375C381.0078125,1578.2708333333333,381.0078125,1586.6041666666667,381.0078125,1590.7708333333333L381.0078125,1594.9375" id="edge21" class="relation" marker-end="url(#compositionEnd)"></path><path d="M82.6796875,1849.578125L82.6796875,1869.3307291666667C82.6796875,1889.0833333333333,82.6796875,1928.5885416666667,208.16341145833334,1961.4065220470263C333.6471354166667,1994.224502427386,584.6145833333334,2020.3552548547714,710.0983072916666,2033.4206310684642L835.58203125,2046.486007282157" id="edge22" class="relation" marker-end="url(#compositionEnd)"></path><path d="M381.0078125,1943.09375L381.0078125,1947.2604166666667C381.0078125,1951.4270833333333,381.0078125,1959.7604166666667,456.7701822916667,1975.7057417115186C532.5325520833334,1991.6510667563707,684.0572916666666,2015.2083835127414,759.8196614583334,2026.9870418909268L835.58203125,2038.7657002691124" id="edge23" class="relation" marker-end="url(#compositionEnd)"></path><path d="M844.5078125,1913.09375L844.5078125,1922.2604166666667C844.5078125,1931.4270833333333,844.5078125,1949.7604166666667,850.7735612401008,1963.09375C857.0393099802017,1976.4270833333333,869.5708074604032,1984.7604166666667,875.8365562005041,1988.9270833333333L882.1023049406048,1993.09375" id="edge24" class="relation" marker-end="url(#compositionEnd)"></path><path d="M1127.359375,1509.96875L1127.359375,1519.9635416666667C1127.359375,1529.9583333333333,1127.359375,1549.9479166666667,1127.359375,1593.1223958333333C1127.359375,1636.296875,1127.359375,1702.65625,1127.359375,1769.015625C1127.359375,1835.375,1127.359375,1901.734375,1121.093626259899,1939.0807291666667C1114.8278775197984,1976.4270833333333,1102.296380039597,1984.7604166666667,1096.030631299496,1988.9270833333333L1089.7648825593953,1993.09375" id="edge25" class="relation" marker-end="url(#compositionEnd)"></path><path d="M1794.546875,1833.125L1794.546875,1855.6197916666667C1794.546875,1878.1145833333333,1794.546875,1923.1041666666667,1684.8365885416667,1958.3589634383832C1575.1263020833333,1993.6137602100996,1355.7057291666667,2019.133770420199,1245.9954427083333,2031.8937755252489L1136.28515625,2044.6537806302988" id="edge26" class="relation" marker-end="url(#compositionEnd)"></path><path d="M2041.0451579747375,888.625L2042.1613295622813,892.7916666666666C2043.2775011498252,896.9583333333334,2045.5098443249126,905.2916666666666,2046.626015912456,938.4765625C2047.7421875,971.6614583333334,2047.7421875,1029.6979166666667,2047.7421875,1087.734375C2047.7421875,1145.7708333333333,2047.7421875,1203.8072916666667,2047.7421875,1258.5C2047.7421875,1313.1927083333333,2047.7421875,1364.5416666666667,2047.7421875,1415.890625C2047.7421875,1467.2395833333333,2047.7421875,1518.5885416666667,2047.7421875,1577.4427083333333C2047.7421875,1636.296875,2047.7421875,1702.65625,2047.7421875,1769.015625C2047.7421875,1835.375,2047.7421875,1901.734375,1895.8326822916667,1948.3690433051408C1743.9231770833333,1995.003711610282,1440.1041666666667,2021.913673220564,1288.1946614583333,2035.368654025705L1136.28515625,2048.823634830846" id="edge27" class="relation" marker-end="url(#compositionEnd)"></path></svg>
