<svg id="mermaid-1645829414006" width="100%" xmlns="http://www.w3.org/2000/svg" xmlns:xlink="http://www.w3.org/1999/xlink" height="2318.28125" style="max-width: 2166.21875px;" viewBox="-20 -20 2166.21875 2318.28125"><style>#mermaid-1645829414006{font-family:"trebuchet ms",verdana,arial,sans-serif;font-size:16px;fill:#333;}#mermaid-1645829414006 .error-icon{fill:hsl(220.5882352941,100%,98.3333333333%);}#mermaid-1645829414006 .error-text{fill:rgb(4.2500000001,4.2500000001,4.2500000001);stroke:rgb(4.2500000001,4.2500000001,4.2500000001);}#mermaid-1645829414006 .edge-thickness-normal{stroke-width:2px;}#mermaid-1645829414006 .edge-thickness-thick{stroke-width:3.5px;}#mermaid-1645829414006 .edge-pattern-solid{stroke-dasharray:0;}#mermaid-1645829414006 .edge-pattern-dashed{stroke-dasharray:3;}#mermaid-1645829414006 .edge-pattern-dotted{stroke-dasharray:2;}#mermaid-1645829414006 .marker{fill:#0b0b0b;stroke:#0b0b0b;}#mermaid-1645829414006 .marker.cross{stroke:#0b0b0b;}#mermaid-1645829414006 svg{font-family:"trebuchet ms",verdana,arial,sans-serif;font-size:16px;}#mermaid-1645829414006 g.classGroup text{fill:hsl(40.5882352941,60%,83.3333333333%);fill:#333;stroke:none;font-family:"trebuchet ms",verdana,arial,sans-serif;font-size:10px;}#mermaid-1645829414006 g.classGroup text .title{font-weight:bolder;}#mermaid-1645829414006 .classTitle{font-weight:bolder;}#mermaid-1645829414006 .node rect,#mermaid-1645829414006 .node circle,#mermaid-1645829414006 .node ellipse,#mermaid-1645829414006 .node polygon,#mermaid-1645829414006 .node path{fill:#fff4dd;stroke:hsl(40.5882352941,60%,83.3333333333%);stroke-width:1px;}#mermaid-1645829414006 .divider{stroke:hsl(40.5882352941,60%,83.3333333333%);stroke:1;}#mermaid-1645829414006 g.clickable{cursor:pointer;}#mermaid-1645829414006 g.classGroup rect{fill:#fff4dd;stroke:hsl(40.5882352941,60%,83.3333333333%);}#mermaid-1645829414006 g.classGroup line{stroke:hsl(40.5882352941,60%,83.3333333333%);stroke-width:1;}#mermaid-1645829414006 .classLabel .box{stroke:none;stroke-width:0;fill:#fff4dd;opacity:0.5;}#mermaid-1645829414006 .classLabel .label{fill:hsl(40.5882352941,60%,83.3333333333%);font-size:10px;}#mermaid-1645829414006 .relation{stroke:#0b0b0b;stroke-width:1;fill:none;}#mermaid-1645829414006 .dashed-line{stroke-dasharray:3;}#mermaid-1645829414006 #compositionStart,#mermaid-1645829414006 .composition{fill:#0b0b0b !important;stroke:#0b0b0b !important;stroke-width:1;}#mermaid-1645829414006 #compositionEnd,#mermaid-1645829414006 .composition{fill:#0b0b0b !important;stroke:#0b0b0b !important;stroke-width:1;}#mermaid-1645829414006 #dependencyStart,#mermaid-1645829414006 .dependency{fill:#0b0b0b !important;stroke:#0b0b0b !important;stroke-width:1;}#mermaid-1645829414006 #dependencyStart,#mermaid-1645829414006 .dependency{fill:#0b0b0b !important;stroke:#0b0b0b !important;stroke-width:1;}#mermaid-1645829414006 #extensionStart,#mermaid-1645829414006 .extension{fill:#0b0b0b !important;stroke:#0b0b0b !important;stroke-width:1;}#mermaid-1645829414006 #extensionEnd,#mermaid-1645829414006 .extension{fill:#0b0b0b !important;stroke:#0b0b0b !important;stroke-width:1;}#mermaid-1645829414006 #aggregationStart,#mermaid-1645829414006 .aggregation{fill:#fff4dd !important;stroke:#0b0b0b !important;stroke-width:1;}#mermaid-1645829414006 #aggregationEnd,#mermaid-1645829414006 .aggregation{fill:#fff4dd !important;stroke:#0b0b0b !important;stroke-width:1;}#mermaid-1645829414006 .edgeTerminals{font-size:11px;}#mermaid-1645829414006:root{--mermaid-font-family:"trebuchet ms",verdana,arial,sans-serif;}</style><g></g><defs><marker id="extensionStart" class="extension" refX="0" refY="7" markerWidth="190" markerHeight="240" orient="auto"><path d="M 1,7 L18,13 V 1 Z"></path></marker></defs><defs><marker id="extensionEnd" refX="19" refY="7" markerWidth="20" markerHeight="28" orient="auto"><path d="M 1,1 V 13 L18,7 Z"></path></marker></defs><defs><marker id="compositionStart" class="extension" refX="0" refY="7" markerWidth="190" markerHeight="240" orient="auto"><path d="M 18,7 L9,13 L1,7 L9,1 Z"></path></marker></defs><defs><marker id="compositionEnd" refX="19" refY="7" markerWidth="20" markerHeight="28" orient="auto"><path d="M 18,7 L9,13 L1,7 L9,1 Z"></path></marker></defs><defs><marker id="aggregationStart" class="extension" refX="0" refY="7" markerWidth="190" markerHeight="240" orient="auto"><path d="M 18,7 L9,13 L1,7 L9,1 Z"></path></marker></defs><defs><marker id="aggregationEnd" refX="19" refY="7" markerWidth="20" markerHeight="28" orient="auto"><path d="M 18,7 L9,13 L1,7 L9,1 Z"></path></marker></defs><defs><marker id="dependencyStart" class="extension" refX="0" refY="7" markerWidth="190" markerHeight="240" orient="auto"><path d="M 5,7 L9,13 L1,7 L9,1 Z"></path></marker></defs><defs><marker id="dependencyEnd" refX="19" refY="7" markerWidth="20" markerHeight="28" orient="auto"><path d="M 18,7 L9,13 L14,7 L9,1 Z"></path></marker></defs><g id="classid-FromDictMixin-0" class="classGroup" transform="translate(1016.5625,2219.203125 )"><rect x="0" y="0" width="104.859375" height="47.09375" class=" "></rect><text y="15" x="0"><tspan class="title" x="18.578125">FromDictMixin</tspan></text><line x1="0" y1="21" y2="21" x2="104.859375"></line><text x="5" y="31" fill="white" class="classText"></text><line x1="0" y1="26" y2="26" x2="104.859375"></line><text x="5" y="41" fill="white" class="classText"><tspan x="5">from_dict(cls, data)</tspan></text></g><g id="classid-Failure-1" class="classGroup" transform="translate(959.890625,1924.03125 )"><rect x="0" y="0" width="152.015625" height="168.15625" class=" "></rect><text y="15" x="0"><tspan class="title" x="59.4921875">Failure</tspan></text><line x1="0" y1="21" y2="21" x2="152.015625"></line><text x="5" y="31" fill="white" class="classText"><tspan x="5">level: int</tspan><tspan x="5" dy="10">scale: float</tspan><tspan x="5" dy="10">shape: float</tspan><tspan x="5" dy="10">time: float</tspan><tspan x="5" dy="10">materials: float</tspan><tspan x="5" dy="10">description: str</tspan><tspan x="5" dy="10">operation_reduction: float</tspan><tspan x="5" dy="10">service_equipment: list[str]</tspan><tspan x="5" dy="10">system_value: float</tspan><tspan x="5" dy="10">weibull</tspan><tspan x="5" dy="10">request_id: str</tspan></text><line x1="0" y1="137.0625" y2="137.0625" x2="152.015625"></line><text x="5" y="152.0625" fill="white" class="classText"><tspan x="5">assign_id(request_id: str)</tspan><tspan x="5" dy="10">hours_to_next_failure() : float</tspan></text></g><g id="classid-Maintenance-2" class="classGroup" transform="translate(1225.26953125,1949.03125 )"><rect x="0" y="0" width="139.625" height="118.15625" class=" "></rect><text y="15" x="0"><tspan class="title" x="40.125">Maintenance</tspan></text><line x1="0" y1="21" y2="21" x2="139.625"></line><text x="5" y="31" fill="white" class="classText"><tspan x="5">time: float</tspan><tspan x="5" dy="10">materials: float</tspan><tspan x="5" dy="10">description: str</tspan><tspan x="5" dy="10">operation_reduction: float</tspan><tspan x="5" dy="10">service_equipment: list[str]</tspan><tspan x="5" dy="10">system_value: float</tspan><tspan x="5" dy="10">request_id: str</tspan></text><line x1="0" y1="97.0625" y2="97.0625" x2="139.625"></line><text x="5" y="112.0625" fill="white" class="classText"><tspan x="5">assign_id(request_id: str)</tspan></text></g><g id="classid-RepairRequest-3" class="classGroup" transform="translate(1228.82421875,551.21875 )"><rect x="0" y="0" width="150.828125" height="138.21875" class=" "></rect><text y="15" x="0"><tspan class="title" x="41.46875">RepairRequest</tspan></text><line x1="0" y1="21.0625" y2="21.0625" x2="150.828125"></line><text x="5" y="31.0625" fill="white" class="classText"><tspan x="5">cable: bool</tspan><tspan x="5" dy="10">details: Failure | Maintenance</tspan><tspan x="5" dy="10">request_id: str</tspan><tspan x="5" dy="10">severity_level: int</tspan><tspan x="5" dy="10">subassembly_id: str</tspan><tspan x="5" dy="10">subassembly_name: str</tspan><tspan x="5" dy="10">system_id: str</tspan><tspan x="5" dy="10">system_name: str</tspan><tspan x="5" dy="10">upstream_turbines: list[str]</tspan></text><line x1="0" y1="117.125" y2="117.125" x2="150.828125"></line><text x="5" y="132.125" fill="white" class="classText"><tspan x="5">assign_id(request_id: str)</tspan></text></g><g id="classid-ServiceEquipmentData-4" class="classGroup" transform="translate(1831.7578125,1600.8125 )"><rect x="0" y="0" width="115.765625" height="68.21875" class=" "></rect><text y="15" x="0"><tspan class="title" x="5">ServiceEquipmentData</tspan></text><line x1="0" y1="21.0625" y2="21.0625" x2="115.765625"></line><text x="5" y="31.0625" fill="white" class="classText"><tspan x="5">data_dict: dict</tspan><tspan x="5" dy="10">strategy: str</tspan></text><line x1="0" y1="47.125" y2="47.125" x2="115.765625"></line><text x="5" y="62.125" fill="white" class="classText"><tspan x="5">determine_type()</tspan></text></g><g id="classid-ServiceCrew-5" class="classGroup" transform="translate(1916.71875,2207.21875 )"><rect x="0" y="0" width="96.546875" height="71.0625" class=" "></rect><text y="15" x="0"><tspan class="title" x="19.15625">ServiceCrew</tspan></text><line x1="0" y1="21" y2="21" x2="96.546875"></line><text x="5" y="31" fill="white" class="classText"><tspan x="5">day_rate: float</tspan><tspan x="5" dy="10">hourly_rate: float</tspan><tspan x="5" dy="10">n_day_rate: int</tspan><tspan x="5" dy="10">n_hourly_rate: int</tspan></text><line x1="0" y1="67.0625" y2="67.0625" x2="96.546875"></line><text x="5" y="82.0625" fill="white" class="classText"></text></g><g id="classid-ScheduledServiceEquipmentData-6" class="classGroup" transform="translate(1637.421875,1859 )"><rect x="0" y="0" width="164.640625" height="298.21875" class=" "></rect><text y="15" x="0"><tspan class="title" x="5.3828125">ScheduledServiceEquipmentData</tspan></text><line x1="0" y1="21.0625" y2="21.0625" x2="164.640625"></line><text x="5" y="31.0625" fill="white" class="classText"><tspan x="5">name: str</tspan><tspan x="5" dy="10">capability: list[str]</tspan><tspan x="5" dy="10">equipment_rate: float</tspan><tspan x="5" dy="10">crew: ServiceCrew</tspan><tspan x="5" dy="10">n_crews: int</tspan><tspan x="5" dy="10">crew_transfer_time: float</tspan><tspan x="5" dy="10">start_day: int</tspan><tspan x="5" dy="10">start_month: int</tspan><tspan x="5" dy="10">end_day: int</tspan><tspan x="5" dy="10">end_month: int</tspan><tspan x="5" dy="10">start_year: int</tspan><tspan x="5" dy="10">end_year: int</tspan><tspan x="5" dy="10">strategy: str</tspan><tspan x="5" dy="10">onsite: bool</tspan><tspan x="5" dy="10">workday_start: int</tspan><tspan x="5" dy="10">workday_end: int</tspan><tspan x="5" dy="10">method: str</tspan><tspan x="5" dy="10">mobilization_cost: float</tspan><tspan x="5" dy="10">mobilization_days: int</tspan><tspan x="5" dy="10">speed: float</tspan><tspan x="5" dy="10">max_waveheight_repair: float</tspan><tspan x="5" dy="10">max_waveheight_transport: float</tspan><tspan x="5" dy="10">max_windspeed_repair: float</tspan><tspan x="5" dy="10">max_windspeed_transport: float</tspan><tspan x="5" dy="10">operating_dates: numpy.ndarray</tspan></text><line x1="0" y1="277.125" y2="277.125" x2="164.640625"></line><text x="5" y="292.125" fill="white" class="classText"><tspan x="5">create_date_range()</tspan></text></g><g id="classid-UnscheduledServiceEquipmentData-7" class="classGroup" transform="translate(1911.86328125,1892.578125 )"><rect x="0" y="0" width="175.75" height="231.0625" class=" "></rect><text y="15" x="0"><tspan class="title" x="5">UnscheduledServiceEquipmentData</tspan></text><line x1="0" y1="21.0625" y2="21.0625" x2="175.75"></line><text x="5" y="31.0625" fill="white" class="classText"><tspan x="5">name: str</tspan><tspan x="5" dy="10">capability: list[str]</tspan><tspan x="5" dy="10">equipment_rate: float</tspan><tspan x="5" dy="10">crew: ServiceCrew</tspan><tspan x="5" dy="10">n_crews: int</tspan><tspan x="5" dy="10">crew_transfer_time: float</tspan><tspan x="5" dy="10">charter_days: int</tspan><tspan x="5" dy="10">strategy: str</tspan><tspan x="5" dy="10">strategy_threshold: int | float</tspan><tspan x="5" dy="10">workday_start: int</tspan><tspan x="5" dy="10">workday_end: int</tspan><tspan x="5" dy="10">method: str</tspan><tspan x="5" dy="10">mobilization_cost: float</tspan><tspan x="5" dy="10">mobilization_days: int</tspan><tspan x="5" dy="10">speed: float</tspan><tspan x="5" dy="10">max_waveheight_repair: float</tspan><tspan x="5" dy="10">max_waveheight_transport: float</tspan><tspan x="5" dy="10">max_windspeed_repair: float</tspan><tspan x="5" dy="10">max_windspeed_transport: float</tspan><tspan x="5" dy="10">onsite: bool</tspan></text><line x1="0" y1="227.0625" y2="227.0625" x2="175.75"></line><text x="5" y="242.0625" fill="white" class="classText"></text></g><g id="classid-SubassemblyData-8" class="classGroup" transform="translate(900.35546875,1599.359375 )"><rect x="0" y="0" width="157.390625" height="71.125" class=" "></rect><text y="15" x="0"><tspan class="title" x="38.5625">SubassemblyData</tspan></text><line x1="0" y1="21.0625" y2="21.0625" x2="157.390625"></line><text x="5" y="31.0625" fill="white" class="classText"><tspan x="5">name: str</tspan><tspan x="5" dy="10">system_value: float</tspan><tspan x="5" dy="10">failures: dict[int, Failure]</tspan><tspan x="5" dy="10">maintenance: list[Maintenance]</tspan></text><line x1="0" y1="67.125" y2="67.125" x2="157.390625"></line><text x="5" y="82.125" fill="white" class="classText"></text></g><g id="classid-FixedCosts-9" class="classGroup" transform="translate(68.21875,1879.0625 )"><rect x="0" y="0" width="264.28125" height="258.09375" class=" "></rect><text y="15" x="0"><tspan class="title" x="107.015625">FixedCosts</tspan></text><line x1="0" y1="21" y2="21" x2="264.28125"></line><text x="5" y="31" fill="white" class="classText"><tspan x="5">operations: float</tspan><tspan x="5" dy="10">annual_lease_fees: float</tspan><tspan x="5" dy="10">brokers_fee: float</tspan><tspan x="5" dy="10">business_interruption: float</tspan><tspan x="5" dy="10">condition_monitoring: float</tspan><tspan x="5" dy="10">environmental_health_safety_monitoring: float</tspan><tspan x="5" dy="10">insurance: float</tspan><tspan x="5" dy="10">labor: float</tspan><tspan x="5" dy="10">marine_management: float</tspan><tspan x="5" dy="10">onshore_electrical_maintenance: float</tspan><tspan x="5" dy="10">operating_facilities: float</tspan><tspan x="5" dy="10">operations_all_risk: float</tspan><tspan x="5" dy="10">operations_management_administration: float</tspan><tspan x="5" dy="10">project_management_administration: float</tspan><tspan x="5" dy="10">storm_coverage: float</tspan><tspan x="5" dy="10">submerge_land_lease_costs: float</tspan><tspan x="5" dy="10">third_party_liability: float</tspan><tspan x="5" dy="10">transmission_charges_rights: float</tspan><tspan x="5" dy="10">weather_forecasting: float</tspan><tspan x="5" dy="10">hierarchy: dict</tspan><tspan x="5" dy="10">resolution: dict</tspan></text><line x1="0" y1="237" y2="237" x2="264.28125"></line><text x="5" y="252" fill="white" class="classText"><tspan x="5">cost_category_validator(name: str, sub_name: list[str])</tspan></text></g><g id="classid-ServiceEquipment-10" class="classGroup" transform="translate(1653.0625,1112.625 )"><rect x="0" y="0" width="473.15625" height="298.21875" class=" "></rect><text y="15" x="0"><tspan class="title" x="194.21875">ServiceEquipment</tspan></text><line x1="0" y1="21.0625" y2="21.0625" x2="473.15625"></line><text x="5" y="31.0625" fill="white" class="classText"><tspan x="5">env: WombatEnvironment</tspan><tspan x="5" dy="10">manager: RepairManager</tspan><tspan x="5" dy="10">windfarm: Windfarm</tspan><tspan x="5" dy="10">settings: ScheduledServiceEquipmentData | UnscheduledServiceEquipmentData</tspan><tspan x="5" dy="10">at_port: bool</tspan><tspan x="5" dy="10">at_system: bool</tspan><tspan x="5" dy="10">onsite: bool</tspan><tspan x="5" dy="10">enroute: bool</tspan><tspan x="5" dy="10">transferring_crew: bool</tspan><tspan x="5" dy="10">current_system: bool</tspan></text><line x1="0" y1="127.125" y2="127.125" x2="473.15625"></line><text x="5" y="142.125" fill="white" class="classText"><tspan x="5">calculate_equipment_cost(duration: float)</tspan><tspan x="5" dy="10">calculate_hourly_cost(duration: float)</tspan><tspan x="5" dy="10">calculate_salary_cost(duration: float)</tspan><tspan x="5" dy="10">find_interrupted_weather_window(hours_required: float)</tspan><tspan x="5" dy="10">find_uninterrupted_weather_window(hours_required: float)</tspan><tspan x="5" dy="10">run_scheduled()</tspan><tspan x="5" dy="10">run_unscheduled()</tspan><tspan x="5" dy="10">mobilize()</tspan><tspan x="5" dy="10">mobilize_scheduled()</tspan><tspan x="5" dy="10">weather_delay(hours: float)</tspan><tspan x="5" dy="10">wait_until_next_shift()</tspan><tspan x="5" dy="10">wait_until_next_operational_period()</tspan><tspan x="5" dy="10">proces_repair(request: RepairRequest, time_processed: float, prior_operational_level: float)</tspan><tspan x="5" dy="10">crew_transfer(system: System, subassembly: Subassembly, requests: RepairRequest, to_system: bool)</tspan><tspan x="5" dy="10">repair(hours: float, request_details: Failure | Maintenance)</tspan><tspan x="5" dy="10">travel(start: str, end: str, set_current: str)</tspan></text></g><g id="classid-Windfarm-11" class="classGroup" transform="translate(669.296875,526.25 )"><rect x="0" y="0" width="193.53125" height="188.15625" class=" "></rect><text y="15" x="0"><tspan class="title" x="74.0546875">Windfarm</tspan></text><line x1="0" y1="21" y2="21" x2="193.53125"></line><text x="5" y="31" fill="white" class="classText"><tspan x="5">env: WombatEnvironment</tspan><tspan x="5" dy="10">windfarm_layout: str</tspan><tspan x="5" dy="10">repair_manager: RepairManager</tspan><tspan x="5" dy="10">capacity: float</tspan><tspan x="5" dy="10">graph: networkx.DiGraph</tspan><tspan x="5" dy="10">system_list: list[str]</tspan><tspan x="5" dy="10">substation_id: list[str]</tspan><tspan x="5" dy="10">turbine_id: list[str]</tspan><tspan x="5" dy="10">distance_matrix: numpy.ndarray</tspan><tspan x="5" dy="10">current_availability: float</tspan><tspan x="5" dy="10">current_availability_wo_servicing: float</tspan></text><line x1="0" y1="137.0625" y2="137.0625" x2="193.53125"></line><text x="5" y="152.0625" fill="white" class="classText"><tspan x="5">calculate_distance_matrix()</tspan><tspan x="5" dy="10">_log_operations()</tspan><tspan x="5" dy="10">system(system_id: str) : System</tspan><tspan x="5" dy="10">cable(cable_id: str | tuple) : Cable</tspan></text></g><g id="classid-System-12" class="classGroup" transform="translate(1204.85546875,764.40625 )"><rect x="0" y="0" width="200.453125" height="298.21875" class=" "></rect><text y="15" x="0"><tspan class="title" x="83.6953125">System</tspan></text><line x1="0" y1="21.0625" y2="21.0625" x2="200.453125"></line><text x="5" y="31.0625" fill="white" class="classText"><tspan x="5">env: WombatEnvironment</tspan><tspan x="5" dy="10">id: str</tspan><tspan x="5" dy="10">name: str</tspan><tspan x="5" dy="10">operating_level: float</tspan><tspan x="5" dy="10">operating_level_wo_servicing: float</tspan><tspan x="5" dy="10">power_curve: Callable</tspan><tspan x="5" dy="10">repair_manager: RepairManager</tspan><tspan x="5" dy="10">servicing: bool</tspan><tspan x="5" dy="10">value: float</tspan><tspan x="5" dy="10">cable_failure: bool</tspan><tspan x="5" dy="10">capacity: float</tspan><tspan x="5" dy="10">subassemblies: list[Subassembly]</tspan><tspan x="5" dy="10">electrical_system: Subasembly</tspan><tspan x="5" dy="10">electronic_control: Subasembly</tspan><tspan x="5" dy="10">gearbox: Subasembly</tspan><tspan x="5" dy="10">generator: Subasembly</tspan><tspan x="5" dy="10">hydraulic_system: Subasembly</tspan><tspan x="5" dy="10">mechanical_brake: Subasembly</tspan><tspan x="5" dy="10">rotor_blades: Subasembly</tspan><tspan x="5" dy="10">rotor_hub: Subasembly</tspan><tspan x="5" dy="10">sensors: Subasembly</tspan><tspan x="5" dy="10">supporting_structure: Subasembly</tspan><tspan x="5" dy="10">yaw_system: Subasembly</tspan><tspan x="5" dy="10">transformer: Subasembly</tspan></text><line x1="0" y1="267.125" y2="267.125" x2="200.453125"></line><text x="5" y="282.125" fill="white" class="classText"><tspan x="5">power(windspeed: float | numpy.ndaray)</tspan><tspan x="5" dy="10">interrupt_all_subassembly_processes()</tspan></text></g><g id="classid-Subassembly-13" class="classGroup" transform="translate(1178.80859375,1182.625 )"><rect x="0" y="0" width="252.546875" height="158.21875" class=" "></rect><text y="15" x="0"><tspan class="title" x="96.6640625">Subassembly</tspan></text><line x1="0" y1="21.0625" y2="21.0625" x2="252.546875"></line><text x="5" y="31.0625" fill="white" class="classText"><tspan x="5">id: str</tspan><tspan x="5" dy="10">name: str</tspan><tspan x="5" dy="10">env: WombatEnvironment</tspan><tspan x="5" dy="10">data: SubassemblyData</tspan><tspan x="5" dy="10">broken: bool</tspan><tspan x="5" dy="10">operating_level: float</tspan><tspan x="5" dy="10">turbine: System</tspan><tspan x="5" dy="10">processes: dict</tspan></text><line x1="0" y1="107.125" y2="107.125" x2="252.546875"></line><text x="5" y="122.125" fill="white" class="classText"><tspan x="5">run_single_failure(failure: Failure)</tspan><tspan x="5" dy="10">run_single_maintenance(maintenance: Maintenance)</tspan><tspan x="5" dy="10">interrupt_processes()</tspan><tspan x="5" dy="10">interrupt_all_subassembly_processes()</tspan></text></g><g id="classid-Cable-14" class="classGroup" transform="translate(437.57421875,1142.65625 )"><rect x="0" y="0" width="252.546875" height="238.15625" class=" "></rect><text y="15" x="0"><tspan class="title" x="113.2890625">Cable</tspan></text><line x1="0" y1="21" y2="21" x2="252.546875"></line><text x="5" y="31" fill="white" class="classText"><tspan x="5">id: str</tspan><tspan x="5" dy="10">name: str</tspan><tspan x="5" dy="10">env: WombatEnvironment</tspan><tspan x="5" dy="10">data: SubassemblyData</tspan><tspan x="5" dy="10">broken: bool</tspan><tspan x="5" dy="10">servicing: bool</tspan><tspan x="5" dy="10">downstream_failure: bool</tspan><tspan x="5" dy="10">processes: dict</tspan><tspan x="5" dy="10">operating_level: float</tspan><tspan x="5" dy="10">operating_level_wo_servicing: float</tspan><tspan x="5" dy="10">repair_manager: RepairManager</tspan><tspan x="5" dy="10">servicing: bool</tspan><tspan x="5" dy="10">value: float</tspan><tspan x="5" dy="10">cable_failure: bool</tspan><tspan x="5" dy="10">capacity: float</tspan></text><line x1="0" y1="177.0625" y2="177.0625" x2="252.546875"></line><text x="5" y="192.0625" fill="white" class="classText"><tspan x="5">run_single_failure(failure: Failure)</tspan><tspan x="5" dy="10">run_single_maintenance(maintenance: Maintenance)</tspan><tspan x="5" dy="10">interrupt_processes()</tspan><tspan x="5" dy="10">interrupt_all_subassembly_processes()</tspan><tspan x="5" dy="10">stop_all_upstream_processes()</tspan></text></g><g id="classid-RepairManager-15" class="classGroup" transform="translate(1513.703125,268.0625 )"><rect x="0" y="0" width="404.578125" height="128.21875" class=" "></rect><text y="15" x="0"><tspan class="title" x="167.6328125">RepairManager</tspan></text><line x1="0" y1="21.0625" y2="21.0625" x2="404.578125"></line><text x="5" y="31.0625" fill="white" class="classText"><tspan x="5">env: WombatEnvironment</tspan><tspan x="5" dy="10">windfarm: Windfarm</tspan><tspan x="5" dy="10">downtime_based_equipment: StrategyMap</tspan><tspan x="5" dy="10">request_based_equipment: StrategyMap</tspan><tspan x="5" dy="10">request_map: dict[str, int]</tspan></text><line x1="0" y1="77.125" y2="77.125" x2="404.578125"></line><text x="5" y="92.125" fill="white" class="classText"><tspan x="5">submit_request(request: RepairRequest) : RepairREquest</tspan><tspan x="5" dy="10">purge_subassembly_requests(system_id: str, subassembly_id: str, exclude: list[str])</tspan><tspan x="5" dy="10">get_next_highest_severity_request(equipment_capability: list[str], severity_level: int)</tspan><tspan x="5" dy="10">get_request_by_system(equipment_capability: list[str], system_id: str)</tspan></text></g><g id="classid-StrategyMap-16" class="classGroup" transform="translate(1591.76953125,556.21875 )"><rect x="0" y="0" width="358.453125" height="128.21875" class=" "></rect><text y="15" x="0"><tspan class="title" x="150.546875">StrategyMap</tspan></text><line x1="0" y1="21.0625" y2="21.0625" x2="358.453125"></line><text x="5" y="31.0625" fill="white" class="classText"><tspan x="5">CTV: list[EquipmentMap]</tspan><tspan x="5" dy="10">LCN: list[EquipmentMap]</tspan><tspan x="5" dy="10">SCN: list[EquipmentMap]</tspan><tspan x="5" dy="10">CAB: list[EquipmentMap]</tspan><tspan x="5" dy="10">DSV: list[EquipmentMap]</tspan><tspan x="5" dy="10">DRN: list[EquipmentMap]</tspan><tspan x="5" dy="10">RMT: list[EquipmentMap]</tspan><tspan x="5" dy="10">is_running: bool</tspan></text><line x1="0" y1="107.125" y2="107.125" x2="358.453125"></line><text x="5" y="122.125" fill="white" class="classText"><tspan x="5">update(capability: str, threshold: float | int, equipment: ServiceEquipment)</tspan></text></g><g id="classid-EquipmentMap-17" class="classGroup" transform="translate(1683.76953125,887.953125 )"><rect x="0" y="0" width="174.453125" height="51.125" class=" "></rect><text y="15" x="0"><tspan class="title" x="52.6953125">EquipmentMap</tspan></text><line x1="0" y1="21.0625" y2="21.0625" x2="174.453125"></line><text x="5" y="31.0625" fill="white" class="classText"><tspan x="5">equipment_map: ServiceEquipment</tspan><tspan x="5" dy="10">strategy_threshold: int | float</tspan></text><line x1="0" y1="47.125" y2="47.125" x2="174.453125"></line><text x="5" y="62.125" fill="white" class="classText"></text></g><g id="classid-WombatEnvironment-18" class="classGroup" transform="translate(235.359375,188.09375 )"><rect x="0" y="0" width="495.703125" height="288.15625" class=" "></rect><text y="15" x="0"><tspan class="title" x="198.8046875">WombatEnvironment</tspan></text><line x1="0" y1="21" y2="21" x2="495.703125"></line><text x="5" y="31" fill="white" class="classText"><tspan x="5">data_dir: pathlib.Path</tspan><tspan x="5" dy="10">weather_file: str</tspan><tspan x="5" dy="10">workday_end: int</tspan><tspan x="5" dy="10">workday_end: int</tspan><tspan x="5" dy="10">simulation_name: str</tspan><tspan x="5" dy="10">start_year: int</tspan><tspan x="5" dy="10">end_year: int</tspan><tspan x="5" dy="10">weather: pandas.DataFrame</tspan><tspan x="5" dy="10">max_run_time: int</tspan><tspan x="5" dy="10">shift_length: int</tspan><tspan x="5" dy="10">weather_now: tuple[float, float]</tspan><tspan x="5" dy="10">simulation_time: datetime.datetime</tspan><tspan x="5" dy="10">current_time: datetime.datetime</tspan><tspan x="5" dy="10">events_log_fname: str</tspan><tspan x="5" dy="10">operations_log_fname: str</tspan><tspan x="5" dy="10">power_potential_fname: str</tspan><tspan x="5" dy="10">power_production_fname: str</tspan></text><line x1="0" y1="197.0625" y2="197.0625" x2="495.703125"></line><text x="5" y="212.0625" fill="white" class="classText"><tspan x="5">run(until: int | float)</tspan><tspan x="5" dy="10">hour_in_shift(hour: int, workday_start: int, workday_end: int) : bool</tspan><tspan x="5" dy="10">hours_to_next_shift(workday_start: int) : float</tspan><tspan x="5" dy="10">date_ix(date: datetime.datetime) int)</tspan><tspan x="5" dy="10">weather_forecast(hours: int | float)</tspan><tspan x="5" dy="10">convert_logs_to_csv(delete_original: bool, return_df: True)</tspan><tspan x="5" dy="10">power_production_potential_to_csv(windfarm: Windfarm, operations: pandas.DataFrame, return_df: bool)</tspan><tspan x="5" dy="10">cleanup_log_files(log_only: bool)</tspan></text></g><g id="classid-Simulation-19" class="classGroup" transform="translate(474.28515625,0 )"><rect x="0" y="0" width="300.703125" height="138.09375" class=" "></rect><text y="15" x="0"><tspan class="title" x="125.65625">Simulation</tspan></text><line x1="0" y1="21" y2="21" x2="300.703125"></line><text x="5" y="31" fill="white" class="classText"><tspan x="5">env: WombatEnvironment</tspan><tspan x="5" dy="10">library_path: pathlib.Path</tspan><tspan x="5" dy="10">config: dict | Configuration</tspan><tspan x="5" dy="10">windfarm: Windfarm</tspan><tspan x="5" dy="10">repair_manager: RepairManager</tspan><tspan x="5" dy="10">service_equipment: list[ServiceEquipment]</tspan><tspan x="5" dy="10">metrics: Metrics</tspan></text><line x1="0" y1="97" y2="97" x2="300.703125"></line><text x="5" y="112" fill="white" class="classText"><tspan x="5">from_config(cls, config: pathlib.Path | dict)</tspan><tspan x="5" dy="10">run(until: int, create_metrics: bool, save_metrics_inputs: bool)</tspan><tspan x="5" dy="10">save_metrics_inputs()</tspan></text></g><g id="classid-Configuration-20" class="classGroup" transform="translate(0,251.609375 )"><rect x="0" y="0" width="165.359375" height="161.125" class=" "></rect><text y="15" x="0"><tspan class="title" x="50.9765625">Configuration</tspan></text><line x1="0" y1="21.0625" y2="21.0625" x2="165.359375"></line><text x="5" y="31.0625" fill="white" class="classText"><tspan x="5">name: str</tspan><tspan x="5" dy="10">library_path: pathlib.Path</tspan><tspan x="5" dy="10">layout: str</tspan><tspan x="5" dy="10">service_equipment: str | list[str]</tspan><tspan x="5" dy="10">weather: str | pandas.DataFrame</tspan><tspan x="5" dy="10">workday_start: int</tspan><tspan x="5" dy="10">workday_end: int</tspan><tspan x="5" dy="10">inflation_rate: float</tspan><tspan x="5" dy="10">fixed_costs: str</tspan><tspan x="5" dy="10">project_capacity: float</tspan><tspan x="5" dy="10">start_year: int</tspan><tspan x="5" dy="10">end_year: int</tspan><tspan x="5" dy="10">SAM_settings: str</tspan></text><line x1="0" y1="157.125" y2="157.125" x2="165.359375"></line><text x="5" y="172.125" fill="white" class="classText"></text></g><g id="classid-Metrics-21" class="classGroup" transform="translate(34.7109375,1460.84375 )"><rect x="0" y="0" width="331.296875" height="348.15625" class=" "></rect><text y="15" x="0"><tspan class="title" x="148.7265625">Metrics</tspan></text><line x1="0" y1="21" y2="21" x2="331.296875"></line><text x="5" y="31" fill="white" class="classText"><tspan x="5">data_dir: pathlib.Path</tspan><tspan x="5" dy="10">events: str | pandas.DataFrame</tspan><tspan x="5" dy="10">operations: str | pandas.DataFrame</tspan><tspan x="5" dy="10">potential: str | pandas.DataFrame</tspan><tspan x="5" dy="10">production: str | pandas.DataFrame</tspan><tspan x="5" dy="10">inflation_rate: float</tspan><tspan x="5" dy="10">project_capacity: float</tspan><tspan x="5" dy="10">turbine_capacities: list[float]</tspan><tspan x="5" dy="10">substation_id: list[str]</tspan><tspan x="5" dy="10">turbine_id: list[str]</tspan><tspan x="5" dy="10">service_equipment_names: list[str]</tspan><tspan x="5" dy="10">fixed_costs: str</tspan><tspan x="5" dy="10">SAM_settings: str</tspan></text><line x1="0" y1="157.0625" y2="157.0625" x2="331.296875"></line><text x="5" y="172.0625" fill="white" class="classText"><tspan x="5">from_simulation_outputs(cls, fpath: Path | str, fname: str)</tspan><tspan x="5" dy="10">time_based_availability(frequency: str, by: str)</tspan><tspan x="5" dy="10">production_based_availability(frequency: str, by: str)</tspan><tspan x="5" dy="10">capacity_factor(which: str, frequency: str, by: str)</tspan><tspan x="5" dy="10">task_completion_rate(which: str, frequency: str)</tspan><tspan x="5" dy="10">equipment_costs(frequency: str, by_equipment: bool)</tspan><tspan x="5" dy="10">service_equipment_utilization(frequency: str)</tspan><tspan x="5" dy="10">labor_costs(frequency: str, by_type: bool)</tspan><tspan x="5" dy="10">equipment_labor_cost_breakdowns(frequency: str, by_category: bool)</tspan><tspan x="5" dy="10">component_costs(frequency: str, by_category: bool, by_action: bool)</tspan><tspan x="5" dy="10">project_fixed_costs(frequency: str, resolution: str)</tspan><tspan x="5" dy="10">process_times()</tspan><tspan x="5" dy="10">power_production(frequency: str, by_turbine: bool)</tspan><tspan x="5" dy="10">pysam_npv()</tspan><tspan x="5" dy="10">pysam_lcoe_real()</tspan><tspan x="5" dy="10">pysam_lcoe_nominal()</tspan><tspan x="5" dy="10">pysam_irr()</tspan><tspan x="5" dy="10">pysam_all_outputs()</tspan></text></g><path d="M1641.7518155316118,2157.21875L1639.5724764846764,2161.3854166666665C1637.3931374377414,2165.5520833333335,1633.0344593438706,2173.8854166666665,1678.8622817552687,2186.6925583087486C1724.6901041666667,2199.4996999508307,1820.7044270833333,2216.780649901661,1868.7115885416667,2225.4211248770766L1916.71875,2234.061599852492" id="edge0" class="relation dashed-line" marker-start="url(#dependencyStart)"></path><path d="M1911.86328125,2103.794245767577L1899.859375,2116.864996472981C1887.85546875,2129.9357471783846,1863.84765625,2156.0772485891925,1864.6569010416667,2175.3452148300894C1865.4661458333333,2194.6131810709862,1891.0924479166667,2207.007612141973,1903.9055989583333,2213.204827677466L1916.71875,2219.402043212959" id="edge1" class="relation dashed-line" marker-start="url(#dependencyStart)"></path><path d="M1860.530799314222,1669.03125L1837.0660306785182,1696.5260416666667C1813.6012620428146,1724.0208333333333,1766.671724771407,1779.0104166666667,1743.2069561357036,1810.671875C1719.7421875,1842.3333333333333,1719.7421875,1850.6666666666667,1719.7421875,1854.8333333333333L1719.7421875,1859" id="edge2" class="relation dashed-line" marker-start="url(#dependencyStart)"></path><path d="M1908.5043863683188,1669.03125L1923.7100355152659,1696.5260416666667C1938.9156846622125,1724.0208333333333,1969.3269829561061,1779.0104166666667,1984.5326321030532,1816.2682291666667C1999.73828125,1853.5260416666667,1999.73828125,1873.0520833333333,1999.73828125,1882.8151041666667L1999.73828125,1892.578125" id="edge3" class="relation dashed-line" marker-start="url(#dependencyStart)"></path><path d="M1035.8984375,2092.1875L1035.8984375,2107.1927083333335C1035.8984375,2122.1979166666665,1035.8984375,2152.2083333333335,1039.2684644424369,2173.3776041666665C1042.6384913848735,2194.546875,1049.378545269747,2206.875,1052.748572212184,2213.0390625L1056.1185991546206,2219.203125" id="edge4" class="relation" marker-start="url(#compositionStart)"></path><path d="M1295.08203125,2067.1875L1295.08203125,2086.359375C1295.08203125,2105.53125,1295.08203125,2143.875,1266.138671875,2170.795908274158C1237.1953125,2197.7168165483163,1179.30859375,2213.2148830966325,1150.365234375,2220.9639163707907L1121.421875,2228.712949644949" id="edge5" class="relation" marker-start="url(#compositionStart)"></path><path d="M1228.82421875,640.3937816400454L1166.8033854166667,656.8958597000378C1104.7825520833333,673.3979377600302,980.7408854166666,706.4020938800151,918.7200520833334,751.9224011066741C856.69921875,797.4427083333334,856.69921875,855.4791666666666,856.69921875,913.515625C856.69921875,971.5520833333334,856.69921875,1029.5885416666667,856.69921875,1087.625C856.69921875,1145.6614583333333,856.69921875,1203.6979166666667,856.69921875,1261.734375C856.69921875,1319.7708333333333,856.69921875,1377.8072916666667,856.69921875,1440.0052083333333C856.69921875,1502.203125,856.69921875,1568.5625,856.69921875,1634.921875C856.69921875,1701.28125,856.69921875,1767.640625,856.69921875,1829.8385416666667C856.69921875,1892.0364583333333,856.69921875,1950.0729166666667,856.69921875,2008.109375C856.69921875,2066.1458333333335,856.69921875,2124.1822916666665,883.3430989583334,2160.7975099534015C909.9869791666666,2197.412728240136,963.2747395833334,2212.606706480272,989.9186197916666,2220.20369560034L1016.5625,2227.800684720408" id="edge6" class="relation" marker-start="url(#compositionStart)"></path><path d="M1802.0625,2151.296925L1805.025390625,2156.4505625C1807.98828125,2161.6042,1813.9140625,2171.9114750000003,1700.4739583333333,2186.4491982327486C1587.0338541666667,2200.986921465497,1354.2278645833333,2219.755092930993,1237.8248697916667,2229.1391786637414L1121.421875,2238.5232643964896" id="edge7" class="relation" marker-start="url(#compositionStart)"></path><path d="M2006.3738372044108,2123.640625L2006.9345778786756,2133.4036458333335C2007.4953185529405,2143.1666666666665,2008.6167999014704,2162.6927083333335,1861.124806200735,2181.9820159481646C1713.6328125,2201.2713235629963,1417.52734375,2220.323897125993,1269.474609375,2229.850183907491L1121.421875,2239.3764706889892" id="edge8" class="relation" marker-start="url(#compositionStart)"></path><path d="M200.359375,2137.15625L200.359375,2144.6666666666665C200.359375,2152.1770833333335,200.359375,2167.1979166666665,336.3932291666667,2184.1879421122453C472.4270833333333,2201.177967557824,744.4947916666666,2220.137185115648,880.5286458333334,2229.6167938945605L1016.5625,2239.0964026734723" id="edge9" class="relation" marker-start="url(#compositionStart)"></path><path d="M960.7671177816694,1670.484375L946.7558012763911,1697.7369791666667C932.744484771113,1724.9895833333333,904.7218517605564,1779.4947916666667,890.7105352552782,1835.765625C876.69921875,1892.0364583333333,876.69921875,1950.0729166666667,876.69921875,2008.109375C876.69921875,2066.1458333333335,876.69921875,2124.1822916666665,900.009765625,2160.5383686480486C923.3203125,2196.8944456294307,969.94140625,2211.570141258862,993.251953125,2218.9079890735775L1016.5625,2226.245836888293" id="edge10" class="relation" marker-start="url(#compositionStart)"></path><path d="M1889.640625,1410.84375L1889.640625,1415.0104166666667C1889.640625,1419.1770833333333,1889.640625,1427.5104166666667,1889.640625,1459.171875C1889.640625,1490.8333333333333,1889.640625,1545.8229166666667,1889.640625,1573.3177083333333L1889.640625,1600.8125" id="edge11" class="relation" marker-start="url(#compositionStart)"></path><path d="M1228.82421875,676.303831872413L1214.6549479166667,686.8209015603442C1200.4856770833333,697.3379712482753,1172.1471354166667,718.3721106241377,1157.9778645833333,757.9074094787355C1143.80859375,797.4427083333334,1143.80859375,855.4791666666666,1143.80859375,913.515625C1143.80859375,971.5520833333334,1143.80859375,1029.5885416666667,1143.80859375,1087.625C1143.80859375,1145.6614583333333,1143.80859375,1203.6979166666667,1143.80859375,1261.734375C1143.80859375,1319.7708333333333,1143.80859375,1377.8072916666667,1143.80859375,1440.0052083333333C1143.80859375,1502.203125,1143.80859375,1568.5625,1143.80859375,1634.921875C1143.80859375,1701.28125,1143.80859375,1767.640625,1134.508609898965,1815.8255208333333C1125.20862604793,1864.0104166666667,1106.6086583458598,1894.0208333333333,1097.3086744948248,1909.0260416666667L1088.0086906437898,1924.03125" id="edge12" class="relation dashed-line" marker-start="url(#dependencyStart)"></path><path d="M1379.65234375,675.7211730759964L1394.1028645833333,686.3353525633303C1408.5533854166667,696.9495320506643,1437.4544270833333,718.1778910253321,1451.9049479166667,757.8102996793327C1466.35546875,797.4427083333334,1466.35546875,855.4791666666666,1466.35546875,913.515625C1466.35546875,971.5520833333334,1466.35546875,1029.5885416666667,1466.35546875,1087.625C1466.35546875,1145.6614583333333,1466.35546875,1203.6979166666667,1466.35546875,1261.734375C1466.35546875,1319.7708333333333,1466.35546875,1377.8072916666667,1466.35546875,1440.0052083333333C1466.35546875,1502.203125,1466.35546875,1568.5625,1466.35546875,1634.921875C1466.35546875,1701.28125,1466.35546875,1767.640625,1447.4958700950149,1819.9921875C1428.6362714400295,1872.34375,1390.9170741300593,1910.6875,1372.0574754750742,1929.859375L1353.1978768200888,1949.03125" id="edge13" class="relation dashed-line" marker-start="url(#dependencyStart)"></path><path d="M1559.8674044537242,396.28125L1517.2625505864369,413.7760416666667C1474.6576967191495,431.2708333333333,1389.4479889845745,466.2604166666667,1346.8431351172874,492.0833333333333C1304.23828125,517.90625,1304.23828125,534.5625,1304.23828125,542.890625L1304.23828125,551.21875" id="edge14" class="relation" marker-start="url(#aggregationStart)"></path><path d="M1770.99609375,684.4375L1770.99609375,693.5989583333334C1770.99609375,702.7604166666666,1770.99609375,721.0833333333334,1770.99609375,755.0026041666666C1770.99609375,788.921875,1770.99609375,838.4375,1770.99609375,863.1953125L1770.99609375,887.953125" id="edge15" class="relation" marker-start="url(#aggregationStart)"></path><path d="M1736.8480259016033,396.28125L1742.5393705430026,413.7760416666667C1748.2307151844022,431.2708333333333,1759.613404467201,466.2604166666667,1765.3047491086006,492.9166666666667C1770.99609375,519.5729166666666,1770.99609375,537.8958333333334,1770.99609375,547.0572916666666L1770.99609375,556.21875" id="edge16" class="relation" marker-start="url(#compositionStart)"></path><path d="M1770.99609375,939.078125L1770.99609375,963.8359375C1770.99609375,988.59375,1770.99609375,1038.109375,1773.8354136518817,1067.0338541666667C1776.6747335537632,1095.9583333333333,1782.3533733575266,1104.2916666666667,1785.192693259408,1108.4583333333333L1788.0320131612896,1112.625" id="edge17" class="relation" marker-start="url(#compositionStart)"></path><path d="M1818.65694417972,396.28125L1846.6731045247668,413.7760416666667C1874.6892648698133,431.2708333333333,1930.7215855599068,466.2604166666667,1958.7377459049533,503.6015625C1986.75390625,540.9427083333334,1986.75390625,580.6354166666666,1986.75390625,620.328125C1986.75390625,660.0208333333334,1986.75390625,699.7135416666666,1986.75390625,748.578125C1986.75390625,797.4427083333334,1986.75390625,855.4791666666666,1986.75390625,913.515625C1986.75390625,971.5520833333334,1986.75390625,1029.5885416666667,1984.4298575198554,1062.7734375C1982.1058087897109,1095.9583333333333,1977.457711329422,1104.2916666666667,1975.1336625992774,1108.4583333333333L1972.809613869133,1112.625" id="edge18" class="relation" marker-start="url(#aggregationStart)"></path><path d="M1379.65234375,654.4311984041922L1410.970703125,668.5937070034935C1442.2890625,682.7562156027948,1504.92578125,711.0812328013975,1536.244140625,754.2619705673654C1567.5625,797.4427083333334,1567.5625,855.4791666666666,1567.5625,913.515625C1567.5625,971.5520833333334,1567.5625,1029.5885416666667,1543.6927873253762,1074.4401041666667C1519.8230746507525,1119.2916666666667,1472.0836493015047,1150.9583333333333,1448.213936626881,1166.7916666666667L1424.344223952257,1182.625" id="edge19" class="relation" marker-start="url(#dependencyStart)"></path><path d="M1379.65234375,648.0073086983481L1421.15625,663.2404655819568C1462.66015625,678.4736224655654,1545.66796875,708.9399362327827,1549.9440104166667,744.2035177929766C1554.2200520833333,779.4670993531709,1479.7643229166667,819.5279487063416,1442.5364583333333,839.558373382927L1405.30859375,859.5887980595123" id="edge20" class="relation" marker-start="url(#dependencyStart)"></path><path d="M979.05078125,1670.484375L979.05078125,1697.7369791666667C979.05078125,1724.9895833333333,979.05078125,1779.4947916666667,983.9500632403751,1821.7526041666667C988.8493452307503,1864.0104166666667,998.6479092115005,1894.0208333333333,1003.5471912018756,1909.0260416666667L1008.4464731922508,1924.03125" id="edge21" class="relation dashed-line" marker-start="url(#extensionStart)"></path><path d="M998.3274091147673,1670.484375L1013.0996638456394,1697.7369791666667C1027.8719185765115,1724.9895833333333,1057.4164280382558,1779.4947916666667,1095.2401150607946,1826.0316999701256C1133.0638020833333,1872.568608273585,1179.1666666666667,1911.13721654717,1202.2180989583333,1930.4215206839624L1225.26953125,1949.705824820755" id="edge22" class="relation dashed-line" marker-start="url(#extensionStart)"></path><path d="M563.84765625,1380.8125L563.84765625,1389.984375C563.84765625,1399.15625,563.84765625,1417.5,620.6864797741216,1453.9244791666667C677.5253032982432,1490.3489583333333,791.2029503464864,1544.8541666666667,848.0417738706079,1572.1067708333333L904.8805973947296,1599.359375" id="edge23" class="relation dashed-line" marker-start="url(#extensionStart)"></path><path d="M1305.08203125,1340.84375L1305.08203125,1356.6770833333333C1305.08203125,1372.5104166666667,1305.08203125,1404.1770833333333,1260.4503038705427,1447.2630208333333C1215.8185764910852,1490.3489583333333,1126.5551217321704,1544.8541666666667,1081.923394352713,1572.1067708333333L1037.2916669732556,1599.359375" id="edge24" class="relation dashed-line" marker-start="url(#extensionStart)"></path><path d="M1305.08203125,1062.625L1305.08203125,1066.7916666666667C1305.08203125,1070.9583333333333,1305.08203125,1079.2916666666667,1305.08203125,1099.2916666666667C1305.08203125,1119.2916666666667,1305.08203125,1150.9583333333333,1305.08203125,1166.7916666666667L1305.08203125,1182.625" id="edge25" class="relation" marker-start="url(#compositionStart)"></path><path d="M669.296875,677.3104363663144L651.7220052083334,687.6597386385953C634.1471354166666,698.0090409108763,598.9973958333334,718.7076454554381,581.4225260416666,758.0751768943857C563.84765625,797.4427083333334,563.84765625,855.4791666666666,563.84765625,913.515625C563.84765625,971.5520833333334,563.84765625,1029.5885416666667,563.84765625,1067.7786458333333C563.84765625,1105.96875,563.84765625,1124.3125,563.84765625,1133.484375L563.84765625,1142.65625" id="edge26" class="relation" marker-start="url(#aggregationStart)"></path><path d="M821.8693079771356,714.40625L824.340959772613,718.5729166666666C826.8126115680903,722.7395833333334,831.7559151590452,731.0729166666666,895.5869419545226,758.0483674016868C959.41796875,785.0238181367071,1082.13671875,830.6413862734142,1143.49609375,853.4501703417677L1204.85546875,876.2589544101213" id="edge27" class="relation" marker-start="url(#aggregationStart)"></path><path d="M200.359375,1809L200.359375,1813.1666666666667C200.359375,1817.3333333333333,200.359375,1825.6666666666667,200.359375,1837.34375C200.359375,1849.0208333333333,200.359375,1864.0416666666667,200.359375,1871.5520833333333L200.359375,1879.0625" id="edge28" class="relation" marker-start="url(#compositionStart)"></path><path d="M474.28515625,95.13767886295327L409.017578125,106.46369071912773C343.75,117.78970257530217,213.21484375,140.4417262876511,147.947265625,166.52034231049223C82.6796875,192.59895833333334,82.6796875,222.10416666666666,82.6796875,236.85677083333334L82.6796875,251.609375" id="edge29" class="relation" marker-start="url(#compositionStart)"></path><path d="M474.28515625,102.37435480251347L428.630859375,112.49425400209456C382.9765625,122.61415320167565,291.66796875,142.85395160083783,246.013671875,181.15353830041894C200.359375,219.453125,200.359375,275.8125,200.359375,332.171875C200.359375,388.53125,200.359375,444.890625,200.359375,492.9166666666667C200.359375,540.9427083333334,200.359375,580.6354166666666,200.359375,620.328125C200.359375,660.0208333333334,200.359375,699.7135416666666,200.359375,748.578125C200.359375,797.4427083333334,200.359375,855.4791666666666,200.359375,913.515625C200.359375,971.5520833333334,200.359375,1029.5885416666667,200.359375,1087.625C200.359375,1145.6614583333333,200.359375,1203.6979166666667,200.359375,1261.734375C200.359375,1319.7708333333333,200.359375,1377.8072916666667,200.359375,1410.9921875C200.359375,1444.1770833333333,200.359375,1452.5104166666667,200.359375,1456.6770833333333L200.359375,1460.84375" id="edge30" class="relation" marker-start="url(#compositionStart)"></path><path d="M520.8054299406048,138.09375L514.539681200504,142.26041666666666C508.27393246040316,146.42708333333334,495.7424349802016,154.76041666666666,489.47668624010083,163.09375C483.2109375,171.42708333333334,483.2109375,179.76041666666666,483.2109375,183.92708333333334L483.2109375,188.09375" id="edge31" class="relation" marker-start="url(#compositionStart)"></path><path d="M728.4680075593952,138.09375L734.7337562994959,142.26041666666666C740.9995050395968,146.42708333333334,753.5310025197983,154.76041666666666,759.7967512598992,187.10677083333334C766.0625,219.453125,766.0625,275.8125,766.0625,332.171875C766.0625,388.53125,766.0625,444.890625,766.0625,477.2369791666667C766.0625,509.5833333333333,766.0625,517.9166666666666,766.0625,522.0833333333334L766.0625,526.25" id="edge32" class="relation" marker-start="url(#compositionStart)"></path><path d="M774.98828125,82.00332687052368L931.822265625,95.51839739210307C1088.65625,109.03346791368244,1402.32421875,136.06360895684122,1559.158203125,167.07347114508727C1715.9921875,198.08333333333334,1715.9921875,233.07291666666666,1715.9921875,250.56770833333334L1715.9921875,268.0625" id="edge33" class="relation" marker-start="url(#compositionStart)"></path><path d="M774.98828125,78.73850941020712L993.0963541666666,92.7977161751726C1211.2044270833333,106.85692294013808,1647.4205729166667,134.97533647006904,1865.5286458333333,177.21423073503453C2083.63671875,219.453125,2083.63671875,275.8125,2083.63671875,332.171875C2083.63671875,388.53125,2083.63671875,444.890625,2083.63671875,492.9166666666667C2083.63671875,540.9427083333334,2083.63671875,580.6354166666666,2083.63671875,620.328125C2083.63671875,660.0208333333334,2083.63671875,699.7135416666666,2083.63671875,748.578125C2083.63671875,797.4427083333334,2083.63671875,855.4791666666666,2083.63671875,913.515625C2083.63671875,971.5520833333334,2083.63671875,1029.5885416666667,2078.9941367104534,1062.7734375C2074.3515546709073,1095.9583333333333,2065.066390591814,1104.2916666666667,2060.4238085522675,1108.4583333333333L2055.781226512721,1112.625" id="edge34" class="relation" marker-start="url(#compositionStart)"></path></svg>
