<svg id="mermaid-1646771797831" width="100%" xmlns="http://www.w3.org/2000/svg" xmlns:xlink="http://www.w3.org/1999/xlink" height="1439.84375" style="max-width: 1476.11328125px;" viewBox="-55 -20 1476.11328125 1439.84375"><style>#mermaid-1646771797831{font-family:"trebuchet ms",verdana,arial,sans-serif;font-size:16px;fill:#333;}#mermaid-1646771797831 .error-icon{fill:hsl(220.5882352941,100%,98.3333333333%);}#mermaid-1646771797831 .error-text{fill:rgb(4.2500000001,4.2500000001,4.2500000001);stroke:rgb(4.2500000001,4.2500000001,4.2500000001);}#mermaid-1646771797831 .edge-thickness-normal{stroke-width:2px;}#mermaid-1646771797831 .edge-thickness-thick{stroke-width:3.5px;}#mermaid-1646771797831 .edge-pattern-solid{stroke-dasharray:0;}#mermaid-1646771797831 .edge-pattern-dashed{stroke-dasharray:3;}#mermaid-1646771797831 .edge-pattern-dotted{stroke-dasharray:2;}#mermaid-1646771797831 .marker{fill:#0b0b0b;stroke:#0b0b0b;}#mermaid-1646771797831 .marker.cross{stroke:#0b0b0b;}#mermaid-1646771797831 svg{font-family:"trebuchet ms",verdana,arial,sans-serif;font-size:16px;}#mermaid-1646771797831 g.classGroup text{fill:hsl(40.5882352941,60%,83.3333333333%);fill:#333;stroke:none;font-family:"trebuchet ms",verdana,arial,sans-serif;font-size:10px;}#mermaid-1646771797831 g.classGroup text .title{font-weight:bolder;}#mermaid-1646771797831 .classTitle{font-weight:bolder;}#mermaid-1646771797831 .node rect,#mermaid-1646771797831 .node circle,#mermaid-1646771797831 .node ellipse,#mermaid-1646771797831 .node polygon,#mermaid-1646771797831 .node path{fill:#fff4dd;stroke:hsl(40.5882352941,60%,83.3333333333%);stroke-width:1px;}#mermaid-1646771797831 .divider{stroke:hsl(40.5882352941,60%,83.3333333333%);stroke:1;}#mermaid-1646771797831 g.clickable{cursor:pointer;}#mermaid-1646771797831 g.classGroup rect{fill:#fff4dd;stroke:hsl(40.5882352941,60%,83.3333333333%);}#mermaid-1646771797831 g.classGroup line{stroke:hsl(40.5882352941,60%,83.3333333333%);stroke-width:1;}#mermaid-1646771797831 .classLabel .box{stroke:none;stroke-width:0;fill:#fff4dd;opacity:0.5;}#mermaid-1646771797831 .classLabel .label{fill:hsl(40.5882352941,60%,83.3333333333%);font-size:10px;}#mermaid-1646771797831 .relation{stroke:#0b0b0b;stroke-width:1;fill:none;}#mermaid-1646771797831 .dashed-line{stroke-dasharray:3;}#mermaid-1646771797831 #compositionStart,#mermaid-1646771797831 .composition{fill:#0b0b0b !important;stroke:#0b0b0b !important;stroke-width:1;}#mermaid-1646771797831 #compositionEnd,#mermaid-1646771797831 .composition{fill:#0b0b0b !important;stroke:#0b0b0b !important;stroke-width:1;}#mermaid-1646771797831 #dependencyStart,#mermaid-1646771797831 .dependency{fill:#0b0b0b !important;stroke:#0b0b0b !important;stroke-width:1;}#mermaid-1646771797831 #dependencyStart,#mermaid-1646771797831 .dependency{fill:#0b0b0b !important;stroke:#0b0b0b !important;stroke-width:1;}#mermaid-1646771797831 #extensionStart,#mermaid-1646771797831 .extension{fill:#0b0b0b !important;stroke:#0b0b0b !important;stroke-width:1;}#mermaid-1646771797831 #extensionEnd,#mermaid-1646771797831 .extension{fill:#0b0b0b !important;stroke:#0b0b0b !important;stroke-width:1;}#mermaid-1646771797831 #aggregationStart,#mermaid-1646771797831 .aggregation{fill:#fff4dd !important;stroke:#0b0b0b !important;stroke-width:1;}#mermaid-1646771797831 #aggregationEnd,#mermaid-1646771797831 .aggregation{fill:#fff4dd !important;stroke:#0b0b0b !important;stroke-width:1;}#mermaid-1646771797831 .edgeTerminals{font-size:11px;}#mermaid-1646771797831:root{--mermaid-font-family:"trebuchet ms",verdana,arial,sans-serif;}</style><g></g><defs><marker id="extensionStart" class="extension" refX="0" refY="7" markerWidth="190" markerHeight="240" orient="auto"><path d="M 1,7 L18,13 V 1 Z"></path></marker></defs><defs><marker id="extensionEnd" refX="19" refY="7" markerWidth="20" markerHeight="28" orient="auto"><path d="M 1,1 V 13 L18,7 Z"></path></marker></defs><defs><marker id="compositionStart" class="extension" refX="0" refY="7" markerWidth="190" markerHeight="240" orient="auto"><path d="M 18,7 L9,13 L1,7 L9,1 Z"></path></marker></defs><defs><marker id="compositionEnd" refX="19" refY="7" markerWidth="20" markerHeight="28" orient="auto"><path d="M 18,7 L9,13 L1,7 L9,1 Z"></path></marker></defs><defs><marker id="aggregationStart" class="extension" refX="0" refY="7" markerWidth="190" markerHeight="240" orient="auto"><path d="M 18,7 L9,13 L1,7 L9,1 Z"></path></marker></defs><defs><marker id="aggregationEnd" refX="19" refY="7" markerWidth="20" markerHeight="28" orient="auto"><path d="M 18,7 L9,13 L1,7 L9,1 Z"></path></marker></defs><defs><marker id="dependencyStart" class="extension" refX="0" refY="7" markerWidth="190" markerHeight="240" orient="auto"><path d="M 5,7 L9,13 L1,7 L9,1 Z"></path></marker></defs><defs><marker id="dependencyEnd" refX="19" refY="7" markerWidth="20" markerHeight="28" orient="auto"><path d="M 18,7 L9,13 L14,7 L9,1 Z"></path></marker></defs><g id="classid-FromDictMixin-0" class="classGroup" transform="translate(666.30859375,1352.75 )"><rect x="0" y="0" width="104.859375" height="47.09375" class=" "></rect><text y="15" x="0"><tspan class="title" x="18.578125">FromDictMixin</tspan></text><line x1="0" y1="21" y2="21" x2="104.859375"></line><text x="5" y="31" fill="white" class="classText"></text><line x1="0" y1="26" y2="26" x2="104.859375"></line><text x="5" y="41" fill="white" class="classText"><tspan x="5">from_dict(cls, data)</tspan></text></g><g id="classid-Failure-1" class="classGroup" transform="translate(0,1089.625 )"><rect x="0" y="0" width="152.015625" height="168.15625" class=" "></rect><text y="15" x="0"><tspan class="title" x="59.4921875">Failure</tspan></text><line x1="0" y1="21" y2="21" x2="152.015625"></line><text x="5" y="31" fill="white" class="classText"><tspan x="5">level: int</tspan><tspan x="5" dy="10">scale: float</tspan><tspan x="5" dy="10">shape: float</tspan><tspan x="5" dy="10">time: float</tspan><tspan x="5" dy="10">materials: float</tspan><tspan x="5" dy="10">description: str</tspan><tspan x="5" dy="10">operation_reduction: float</tspan><tspan x="5" dy="10">service_equipment: list[str]</tspan><tspan x="5" dy="10">system_value: float</tspan><tspan x="5" dy="10">weibull</tspan><tspan x="5" dy="10">request_id: str</tspan></text><line x1="0" y1="137.0625" y2="137.0625" x2="152.015625"></line><text x="5" y="152.0625" fill="white" class="classText"><tspan x="5">assign_id(request_id: str)</tspan><tspan x="5" dy="10">hours_to_next_failure() : float</tspan></text></g><g id="classid-Maintenance-2" class="classGroup" transform="translate(774.90234375,1114.625 )"><rect x="0" y="0" width="139.625" height="118.15625" class=" "></rect><text y="15" x="0"><tspan class="title" x="40.125">Maintenance</tspan></text><line x1="0" y1="21" y2="21" x2="139.625"></line><text x="5" y="31" fill="white" class="classText"><tspan x="5">time: float</tspan><tspan x="5" dy="10">materials: float</tspan><tspan x="5" dy="10">description: str</tspan><tspan x="5" dy="10">operation_reduction: float</tspan><tspan x="5" dy="10">service_equipment: list[str]</tspan><tspan x="5" dy="10">system_value: float</tspan><tspan x="5" dy="10">request_id: str</tspan></text><line x1="0" y1="97.0625" y2="97.0625" x2="139.625"></line><text x="5" y="112.0625" fill="white" class="classText"><tspan x="5">assign_id(request_id: str)</tspan></text></g><g id="classid-RepairRequest-3" class="classGroup" transform="translate(92.62890625,80 )"><rect x="0" y="0" width="150.828125" height="138.21875" class=" "></rect><text y="15" x="0"><tspan class="title" x="41.46875">RepairRequest</tspan></text><line x1="0" y1="21.0625" y2="21.0625" x2="150.828125"></line><text x="5" y="31.0625" fill="white" class="classText"><tspan x="5">cable: bool</tspan><tspan x="5" dy="10">details: Failure | Maintenance</tspan><tspan x="5" dy="10">request_id: str</tspan><tspan x="5" dy="10">severity_level: int</tspan><tspan x="5" dy="10">subassembly_id: str</tspan><tspan x="5" dy="10">subassembly_name: str</tspan><tspan x="5" dy="10">system_id: str</tspan><tspan x="5" dy="10">system_name: str</tspan><tspan x="5" dy="10">upstream_turbines: list[str]</tspan></text><line x1="0" y1="117.125" y2="117.125" x2="150.828125"></line><text x="5" y="132.125" fill="white" class="classText"><tspan x="5">assign_id(request_id: str)</tspan></text></g><g id="classid-ServiceEquipmentData-4" class="classGroup" transform="translate(1106.65234375,463.21875 )"><rect x="0" y="0" width="115.765625" height="68.21875" class=" "></rect><text y="15" x="0"><tspan class="title" x="5">ServiceEquipmentData</tspan></text><line x1="0" y1="21.0625" y2="21.0625" x2="115.765625"></line><text x="5" y="31.0625" fill="white" class="classText"><tspan x="5">data_dict: dict</tspan><tspan x="5" dy="10">strategy: str</tspan></text><line x1="0" y1="47.125" y2="47.125" x2="115.765625"></line><text x="5" y="62.125" fill="white" class="classText"><tspan x="5">determine_type()</tspan></text></g><g id="classid-ServiceCrew-5" class="classGroup" transform="translate(964.52734375,1138.171875 )"><rect x="0" y="0" width="96.546875" height="71.0625" class=" "></rect><text y="15" x="0"><tspan class="title" x="19.15625">ServiceCrew</tspan></text><line x1="0" y1="21" y2="21" x2="96.546875"></line><text x="5" y="31" fill="white" class="classText"><tspan x="5">day_rate: float</tspan><tspan x="5" dy="10">hourly_rate: float</tspan><tspan x="5" dy="10">n_day_rate: int</tspan><tspan x="5" dy="10">n_hourly_rate: int</tspan></text><line x1="0" y1="67.0625" y2="67.0625" x2="96.546875"></line><text x="5" y="82.0625" fill="white" class="classText"></text></g><g id="classid-ScheduledServiceEquipmentData-6" class="classGroup" transform="translate(972.1171875,696.4375 )"><rect x="0" y="0" width="164.640625" height="298.21875" class=" "></rect><text y="15" x="0"><tspan class="title" x="5.3828125">ScheduledServiceEquipmentData</tspan></text><line x1="0" y1="21.0625" y2="21.0625" x2="164.640625"></line><text x="5" y="31.0625" fill="white" class="classText"><tspan x="5">name: str</tspan><tspan x="5" dy="10">capability: list[str]</tspan><tspan x="5" dy="10">equipment_rate: float</tspan><tspan x="5" dy="10">crew: ServiceCrew</tspan><tspan x="5" dy="10">n_crews: int</tspan><tspan x="5" dy="10">crew_transfer_time: float</tspan><tspan x="5" dy="10">start_day: int</tspan><tspan x="5" dy="10">start_month: int</tspan><tspan x="5" dy="10">end_day: int</tspan><tspan x="5" dy="10">end_month: int</tspan><tspan x="5" dy="10">start_year: int</tspan><tspan x="5" dy="10">end_year: int</tspan><tspan x="5" dy="10">strategy: str</tspan><tspan x="5" dy="10">onsite: bool</tspan><tspan x="5" dy="10">workday_start: int</tspan><tspan x="5" dy="10">workday_end: int</tspan><tspan x="5" dy="10">method: str</tspan><tspan x="5" dy="10">mobilization_cost: float</tspan><tspan x="5" dy="10">mobilization_days: int</tspan><tspan x="5" dy="10">speed: float</tspan><tspan x="5" dy="10">max_waveheight_repair: float</tspan><tspan x="5" dy="10">max_waveheight_transport: float</tspan><tspan x="5" dy="10">max_windspeed_repair: float</tspan><tspan x="5" dy="10">max_windspeed_transport: float</tspan><tspan x="5" dy="10">operating_dates: numpy.ndarray</tspan></text><line x1="0" y1="277.125" y2="277.125" x2="164.640625"></line><text x="5" y="292.125" fill="white" class="classText"><tspan x="5">create_date_range()</tspan></text></g><g id="classid-UnscheduledServiceEquipmentData-7" class="classGroup" transform="translate(1186.7578125,730.015625 )"><rect x="0" y="0" width="175.75" height="231.0625" class=" "></rect><text y="15" x="0"><tspan class="title" x="5">UnscheduledServiceEquipmentData</tspan></text><line x1="0" y1="21.0625" y2="21.0625" x2="175.75"></line><text x="5" y="31.0625" fill="white" class="classText"><tspan x="5">name: str</tspan><tspan x="5" dy="10">capability: list[str]</tspan><tspan x="5" dy="10">equipment_rate: float</tspan><tspan x="5" dy="10">crew: ServiceCrew</tspan><tspan x="5" dy="10">n_crews: int</tspan><tspan x="5" dy="10">crew_transfer_time: float</tspan><tspan x="5" dy="10">charter_days: int</tspan><tspan x="5" dy="10">strategy: str</tspan><tspan x="5" dy="10">strategy_threshold: int | float</tspan><tspan x="5" dy="10">workday_start: int</tspan><tspan x="5" dy="10">workday_end: int</tspan><tspan x="5" dy="10">method: str</tspan><tspan x="5" dy="10">mobilization_cost: float</tspan><tspan x="5" dy="10">mobilization_days: int</tspan><tspan x="5" dy="10">speed: float</tspan><tspan x="5" dy="10">max_waveheight_repair: float</tspan><tspan x="5" dy="10">max_waveheight_transport: float</tspan><tspan x="5" dy="10">max_windspeed_repair: float</tspan><tspan x="5" dy="10">max_windspeed_transport: float</tspan><tspan x="5" dy="10">onsite: bool</tspan></text><line x1="0" y1="227.0625" y2="227.0625" x2="175.75"></line><text x="5" y="242.0625" fill="white" class="classText"></text></g><g id="classid-SubassemblyData-8" class="classGroup" transform="translate(446.484375,809.984375 )"><rect x="0" y="0" width="157.390625" height="71.125" class=" "></rect><text y="15" x="0"><tspan class="title" x="38.5625">SubassemblyData</tspan></text><line x1="0" y1="21.0625" y2="21.0625" x2="157.390625"></line><text x="5" y="31.0625" fill="white" class="classText"><tspan x="5">name: str</tspan><tspan x="5" dy="10">system_value: float</tspan><tspan x="5" dy="10">failures: dict[int, Failure]</tspan><tspan x="5" dy="10">maintenance: list[Maintenance]</tspan></text><line x1="0" y1="67.125" y2="67.125" x2="157.390625"></line><text x="5" y="82.125" fill="white" class="classText"></text></g><g id="classid-FixedCosts-9" class="classGroup" transform="translate(358.53515625,1044.65625 )"><rect x="0" y="0" width="264.28125" height="258.09375" class=" "></rect><text y="15" x="0"><tspan class="title" x="107.015625">FixedCosts</tspan></text><line x1="0" y1="21" y2="21" x2="264.28125"></line><text x="5" y="31" fill="white" class="classText"><tspan x="5">operations: float</tspan><tspan x="5" dy="10">annual_lease_fees: float</tspan><tspan x="5" dy="10">brokers_fee: float</tspan><tspan x="5" dy="10">business_interruption: float</tspan><tspan x="5" dy="10">condition_monitoring: float</tspan><tspan x="5" dy="10">environmental_health_safety_monitoring: float</tspan><tspan x="5" dy="10">insurance: float</tspan><tspan x="5" dy="10">labor: float</tspan><tspan x="5" dy="10">marine_management: float</tspan><tspan x="5" dy="10">onshore_electrical_maintenance: float</tspan><tspan x="5" dy="10">operating_facilities: float</tspan><tspan x="5" dy="10">operations_all_risk: float</tspan><tspan x="5" dy="10">operations_management_administration: float</tspan><tspan x="5" dy="10">project_management_administration: float</tspan><tspan x="5" dy="10">storm_coverage: float</tspan><tspan x="5" dy="10">submerge_land_lease_costs: float</tspan><tspan x="5" dy="10">third_party_liability: float</tspan><tspan x="5" dy="10">transmission_charges_rights: float</tspan><tspan x="5" dy="10">weather_forecasting: float</tspan><tspan x="5" dy="10">hierarchy: dict</tspan><tspan x="5" dy="10">resolution: dict</tspan></text><line x1="0" y1="237" y2="237" x2="264.28125"></line><text x="5" y="252" fill="white" class="classText"><tspan x="5">cost_category_validator(name: str, sub_name: list[str])</tspan></text></g><g id="classid-ServiceEquipment-10" class="classGroup" transform="translate(927.95703125,0 )"><rect x="0" y="0" width="473.15625" height="298.21875" class=" "></rect><text y="15" x="0"><tspan class="title" x="194.21875">ServiceEquipment</tspan></text><line x1="0" y1="21.0625" y2="21.0625" x2="473.15625"></line><text x="5" y="31.0625" fill="white" class="classText"><tspan x="5">env: WombatEnvironment</tspan><tspan x="5" dy="10">manager: RepairManager</tspan><tspan x="5" dy="10">windfarm: Windfarm</tspan><tspan x="5" dy="10">settings: ScheduledServiceEquipmentData | UnscheduledServiceEquipmentData</tspan><tspan x="5" dy="10">at_port: bool</tspan><tspan x="5" dy="10">at_system: bool</tspan><tspan x="5" dy="10">onsite: bool</tspan><tspan x="5" dy="10">enroute: bool</tspan><tspan x="5" dy="10">transferring_crew: bool</tspan><tspan x="5" dy="10">current_system: bool</tspan></text><line x1="0" y1="127.125" y2="127.125" x2="473.15625"></line><text x="5" y="142.125" fill="white" class="classText"><tspan x="5">calculate_equipment_cost(duration: float)</tspan><tspan x="5" dy="10">calculate_hourly_cost(duration: float)</tspan><tspan x="5" dy="10">calculate_salary_cost(duration: float)</tspan><tspan x="5" dy="10">find_interrupted_weather_window(hours_required: float)</tspan><tspan x="5" dy="10">find_uninterrupted_weather_window(hours_required: float)</tspan><tspan x="5" dy="10">run_scheduled()</tspan><tspan x="5" dy="10">run_unscheduled()</tspan><tspan x="5" dy="10">mobilize()</tspan><tspan x="5" dy="10">mobilize_scheduled()</tspan><tspan x="5" dy="10">weather_delay(hours: float)</tspan><tspan x="5" dy="10">wait_until_next_shift()</tspan><tspan x="5" dy="10">wait_until_next_operational_period()</tspan><tspan x="5" dy="10">proces_repair(request: RepairRequest, time_processed: float, prior_operational_level: float)</tspan><tspan x="5" dy="10">crew_transfer(system: System, subassembly: Subassembly, requests: RepairRequest, to_system: bool)</tspan><tspan x="5" dy="10">repair(hours: float, request_details: Failure | Maintenance)</tspan><tspan x="5" dy="10">travel(start: str, end: str, set_current: str)</tspan></text></g><g id="classid-System-11" class="classGroup" transform="translate(433.5546875,348.21875 )"><rect x="0" y="0" width="200.453125" height="298.21875" class=" "></rect><text y="15" x="0"><tspan class="title" x="83.6953125">System</tspan></text><line x1="0" y1="21.0625" y2="21.0625" x2="200.453125"></line><text x="5" y="31.0625" fill="white" class="classText"><tspan x="5">env: WombatEnvironment</tspan><tspan x="5" dy="10">id: str</tspan><tspan x="5" dy="10">name: str</tspan><tspan x="5" dy="10">operating_level: float</tspan><tspan x="5" dy="10">operating_level_wo_servicing: float</tspan><tspan x="5" dy="10">power_curve: Callable</tspan><tspan x="5" dy="10">repair_manager: RepairManager</tspan><tspan x="5" dy="10">servicing: bool</tspan><tspan x="5" dy="10">value: float</tspan><tspan x="5" dy="10">cable_failure: bool</tspan><tspan x="5" dy="10">capacity: float</tspan><tspan x="5" dy="10">subassemblies: list[Subassembly]</tspan><tspan x="5" dy="10">electrical_system: Subasembly</tspan><tspan x="5" dy="10">electronic_control: Subasembly</tspan><tspan x="5" dy="10">gearbox: Subasembly</tspan><tspan x="5" dy="10">generator: Subasembly</tspan><tspan x="5" dy="10">hydraulic_system: Subasembly</tspan><tspan x="5" dy="10">mechanical_brake: Subasembly</tspan><tspan x="5" dy="10">rotor_blades: Subasembly</tspan><tspan x="5" dy="10">rotor_hub: Subasembly</tspan><tspan x="5" dy="10">sensors: Subasembly</tspan><tspan x="5" dy="10">supporting_structure: Subasembly</tspan><tspan x="5" dy="10">yaw_system: Subasembly</tspan><tspan x="5" dy="10">transformer: Subasembly</tspan></text><line x1="0" y1="267.125" y2="267.125" x2="200.453125"></line><text x="5" y="282.125" fill="white" class="classText"><tspan x="5">power(windspeed: float | numpy.ndaray)</tspan><tspan x="5" dy="10">interrupt_all_subassembly_processes()</tspan></text></g><g id="classid-Subassembly-12" class="classGroup" transform="translate(131.0078125,418.21875 )"><rect x="0" y="0" width="252.546875" height="158.21875" class=" "></rect><text y="15" x="0"><tspan class="title" x="96.6640625">Subassembly</tspan></text><line x1="0" y1="21.0625" y2="21.0625" x2="252.546875"></line><text x="5" y="31.0625" fill="white" class="classText"><tspan x="5">id: str</tspan><tspan x="5" dy="10">name: str</tspan><tspan x="5" dy="10">env: WombatEnvironment</tspan><tspan x="5" dy="10">data: SubassemblyData</tspan><tspan x="5" dy="10">broken: bool</tspan><tspan x="5" dy="10">operating_level: float</tspan><tspan x="5" dy="10">turbine: System</tspan><tspan x="5" dy="10">processes: dict</tspan></text><line x1="0" y1="107.125" y2="107.125" x2="252.546875"></line><text x="5" y="122.125" fill="white" class="classText"><tspan x="5">run_single_failure(failure: Failure)</tspan><tspan x="5" dy="10">run_single_maintenance(maintenance: Maintenance)</tspan><tspan x="5" dy="10">interrupt_processes()</tspan><tspan x="5" dy="10">interrupt_all_subassembly_processes()</tspan></text></g><g id="classid-Cable-13" class="classGroup" transform="translate(684.0078125,378.25 )"><rect x="0" y="0" width="252.546875" height="238.15625" class=" "></rect><text y="15" x="0"><tspan class="title" x="113.2890625">Cable</tspan></text><line x1="0" y1="21" y2="21" x2="252.546875"></line><text x="5" y="31" fill="white" class="classText"><tspan x="5">id: str</tspan><tspan x="5" dy="10">name: str</tspan><tspan x="5" dy="10">env: WombatEnvironment</tspan><tspan x="5" dy="10">data: SubassemblyData</tspan><tspan x="5" dy="10">broken: bool</tspan><tspan x="5" dy="10">servicing: bool</tspan><tspan x="5" dy="10">downstream_failure: bool</tspan><tspan x="5" dy="10">processes: dict</tspan><tspan x="5" dy="10">operating_level: float</tspan><tspan x="5" dy="10">operating_level_wo_servicing: float</tspan><tspan x="5" dy="10">repair_manager: RepairManager</tspan><tspan x="5" dy="10">servicing: bool</tspan><tspan x="5" dy="10">value: float</tspan><tspan x="5" dy="10">cable_failure: bool</tspan><tspan x="5" dy="10">capacity: float</tspan></text><line x1="0" y1="177.0625" y2="177.0625" x2="252.546875"></line><text x="5" y="192.0625" fill="white" class="classText"><tspan x="5">run_single_failure(failure: Failure)</tspan><tspan x="5" dy="10">run_single_maintenance(maintenance: Maintenance)</tspan><tspan x="5" dy="10">interrupt_processes()</tspan><tspan x="5" dy="10">interrupt_all_subassembly_processes()</tspan><tspan x="5" dy="10">stop_all_upstream_processes()</tspan></text></g><path d="M1018.7793103714215,994.65625L1017.7828888511846,998.8229166666666C1016.7864673309477,1002.9895833333334,1014.7936242904739,1011.3229166666666,1013.7972027702368,1035.2421875C1012.80078125,1059.1614583333333,1012.80078125,1098.6666666666667,1012.80078125,1118.4192708333333L1012.80078125,1138.171875" id="edge0" class="relation dashed-line" marker-start="url(#dependencyStart)"></path><path d="M1208.2124526047744,961.078125L1202.5995698789786,970.8411458333334C1196.9866871531829,980.6041666666666,1185.7609217015915,1000.1302083333334,1159.4097079352068,1029.6458333333333C1133.058494168822,1059.1614583333333,1091.581832087644,1098.6666666666667,1070.843501047055,1118.4192708333333L1050.105170006466,1138.171875" id="edge1" class="relation dashed-line" marker-start="url(#dependencyStart)"></path><path d="M1142.9661727093242,531.4375L1128.2113939244368,554.7708333333334C1113.4566151395495,578.1041666666666,1083.9470575697749,624.7708333333334,1069.1922787848873,652.2708333333334C1054.4375,679.7708333333334,1054.4375,688.1041666666666,1054.4375,692.2708333333334L1054.4375,696.4375" id="edge2" class="relation dashed-line" marker-start="url(#dependencyStart)"></path><path d="M1186.1041397906758,531.4375L1200.8589185755632,554.7708333333334C1215.6136973604505,578.1041666666666,1245.1232549302251,624.7708333333334,1259.8780337151127,657.8671875C1274.6328125,690.9635416666666,1274.6328125,710.4895833333334,1274.6328125,720.2526041666666L1274.6328125,730.015625" id="edge3" class="relation dashed-line" marker-start="url(#dependencyStart)"></path><path d="M490.67578125,1302.75L490.67578125,1306.9166666666667C490.67578125,1311.0833333333333,490.67578125,1319.4166666666667,519.9479166666666,1329.8143914821128C549.2200520833334,1340.2121162975589,607.7643229166666,1352.6742325951175,637.0364583333334,1358.9052907438968L666.30859375,1365.136348892676" id="edge4" class="relation" marker-start="url(#compositionStart)"></path><path d="M76.0078125,1257.78125L76.0078125,1269.4427083333333C76.0078125,1281.1041666666667,76.0078125,1304.4270833333333,174.39127604166666,1323.5196655029356C272.7747395833333,1342.6122476725377,469.5416666666667,1357.4744953450752,567.9251302083334,1364.905619181344L666.30859375,1372.336743017613" id="edge5" class="relation" marker-start="url(#compositionStart)"></path><path d="M844.71484375,1232.78125L844.71484375,1248.609375C844.71484375,1264.4375,844.71484375,1296.09375,832.45703125,1316.6455988372093C820.19921875,1337.1974476744188,795.68359375,1346.6448953488373,783.42578125,1351.3686191860465L771.16796875,1356.0923430232558" id="edge6" class="relation" marker-start="url(#compositionStart)"></path><path d="M92.62890625,213.77694447517268L71.357421875,232.01724539597726C50.0859375,250.2575463167818,7.54296875,286.7381481583909,-13.728515625,333.99667824586214C-35,381.2552083333333,-35,439.2916666666667,-35,497.328125C-35,555.3645833333334,-35,613.4010416666666,-35,671.4375C-35,729.4739583333334,-35,787.5104166666666,-35,845.546875C-35,903.5833333333334,-35,961.6197916666666,-35,1016.3125C-35,1071.0052083333333,-35,1122.3541666666667,-35,1173.703125C-35,1225.0520833333333,-35,1276.4010416666667,81.884765625,1309.603850291127C198.76953125,1342.8066589155874,432.5390625,1357.8633178311748,549.423828125,1365.3916472889684L666.30859375,1372.9199767467621" id="edge7" class="relation" marker-start="url(#compositionStart)"></path><path d="M1012.80078125,1209.234375L1012.80078125,1228.9869791666667C1012.80078125,1248.7395833333333,1012.80078125,1288.2447916666667,972.5286458333334,1314.645935936393C932.2565104166666,1341.0470802061193,851.7122395833334,1354.3441604122388,811.4401041666666,1360.9927005152983L771.16796875,1367.641240618358" id="edge8" class="relation" marker-start="url(#compositionStart)"></path><path d="M1136.7578125,988.734425L1139.720703125,993.8880625C1142.68359375,999.0417000000001,1148.609375,1009.348975,1151.572265625,1040.1770916666667C1154.53515625,1071.0052083333333,1154.53515625,1122.3541666666667,1154.53515625,1173.703125C1154.53515625,1225.0520833333333,1154.53515625,1276.4010416666667,1090.640625,1309.1932401189003C1026.74609375,1341.985438571134,898.95703125,1356.2208771422681,835.0625,1363.338596427835L771.16796875,1370.456315713402" id="edge9" class="relation" marker-start="url(#compositionStart)"></path><path d="M1281.2683684544108,961.078125L1281.8291091286758,970.8411458333334C1282.3898498029405,980.6041666666666,1283.5113311514704,1000.1302083333334,1284.072071825735,1035.5677083333333C1284.6328125,1071.0052083333333,1284.6328125,1122.3541666666667,1284.6328125,1173.703125C1284.6328125,1225.0520833333333,1284.6328125,1276.4010416666667,1199.0553385416667,1309.4170283080462C1113.4778645833333,1342.4330149494256,942.3229166666666,1357.1160298988511,856.7454427083334,1364.457537373564L771.16796875,1371.7990448482767" id="edge10" class="relation" marker-start="url(#compositionStart)"></path><path d="M461.5275039542762,881.109375L420.1973991285635,904.2005208333334C378.8672943028508,927.2916666666666,296.2070846514254,973.4739583333334,254.8769798257127,1022.2395833333334C213.546875,1071.0052083333333,213.546875,1122.3541666666667,213.546875,1173.703125C213.546875,1225.0520833333333,213.546875,1276.4010416666667,289.0071614583333,1309.3269527635591C364.4674479166667,1342.2528638604515,515.3880208333334,1356.755727720903,590.8483072916666,1364.0071596511286L666.30859375,1371.2585915813545" id="edge11" class="relation" marker-start="url(#compositionStart)"></path><path d="M1164.53515625,298.21875L1164.53515625,302.3854166666667C1164.53515625,306.5520833333333,1164.53515625,314.8854166666667,1164.53515625,342.3854166666667C1164.53515625,369.8854166666667,1164.53515625,416.5520833333333,1164.53515625,439.8854166666667L1164.53515625,463.21875" id="edge12" class="relation" marker-start="url(#compositionStart)"></path><path d="M131.51137976195818,218.21875L122.2607852182985,235.71875C113.01019067463879,253.21875,94.5090015873194,288.21875,85.2584070436597,334.7369791666667C76.0078125,381.2552083333333,76.0078125,439.2916666666667,76.0078125,497.328125C76.0078125,555.3645833333334,76.0078125,613.4010416666666,76.0078125,671.4375C76.0078125,729.4739583333334,76.0078125,787.5104166666666,76.0078125,845.546875C76.0078125,903.5833333333334,76.0078125,961.6197916666666,76.0078125,1002.2994791666666C76.0078125,1042.9791666666667,76.0078125,1066.3020833333333,76.0078125,1077.9635416666667L76.0078125,1089.625" id="edge13" class="relation dashed-line" marker-start="url(#dependencyStart)"></path><path d="M139.44999593354572,218.21875L132.20963202795477,235.71875C124.96926812236381,253.21875,110.48854031118191,288.21875,103.24817640559097,334.7369791666667C96.0078125,381.2552083333333,96.0078125,439.2916666666667,96.0078125,497.328125C96.0078125,555.3645833333334,96.0078125,613.4010416666666,96.0078125,671.4375C96.0078125,729.4739583333334,96.0078125,787.5104166666666,96.0078125,845.546875C96.0078125,903.5833333333334,96.0078125,961.6197916666666,209.15690104166666,1013.9185067529612C322.3059895833333,1066.217221839256,548.6041666666666,1112.7781936785118,661.7532552083334,1136.0586795981396L774.90234375,1159.3391655177677" id="edge14" class="relation dashed-line" marker-start="url(#dependencyStart)"></path><path d="M203.46439188279638,218.21875L212.43386823566365,235.71875C221.4033445885309,253.21875,239.34229729426545,288.21875,248.31177364713275,321.5520833333333C257.28125,354.8854166666667,257.28125,386.5520833333333,257.28125,402.3854166666667L257.28125,418.21875" id="edge15" class="relation" marker-start="url(#dependencyStart)"></path><path d="M243.45703125,185.0101706268891L291.8444010416667,208.04493385574094C340.2317708333333,231.07969708459277,437.0065104166667,277.1492235422964,485.3938802083333,304.35065343781486C533.78125,331.5520833333333,533.78125,339.8854166666667,533.78125,344.0520833333333L533.78125,348.21875" id="edge16" class="relation" marker-start="url(#dependencyStart)"></path><path d="M243.45703125,169.5539602441717L337.927734375,195.16475853680973C432.3984375,220.77555682944777,621.33984375,271.99715341472387,715.810546875,306.77982670736196C810.28125,341.5625,810.28125,359.90625,810.28125,369.078125L810.28125,378.25" id="edge17" class="relation" marker-start="url(#dependencyStart)"></path><path d="M525.1796875,881.109375L525.1796875,904.2005208333334C525.1796875,927.2916666666666,525.1796875,973.4739583333334,462.9856770833333,1017.8950081113536C400.7916666666667,1062.316057889374,276.4036458333333,1104.975865778748,214.20963541666666,1126.3057697234349L152.015625,1147.6356736681219" id="edge18" class="relation dashed-line" marker-start="url(#extensionStart)"></path><path d="M590.4459547193305,881.109375L632.8241028911087,904.2005208333334C675.2022510628871,927.2916666666666,759.9585474064435,973.4739583333334,802.3366955782218,1012.3932291666666C844.71484375,1051.3125,844.71484375,1082.96875,844.71484375,1098.796875L844.71484375,1114.625" id="edge19" class="relation dashed-line" marker-start="url(#extensionStart)"></path><path d="M810.28125,616.40625L810.28125,625.578125C810.28125,634.75,810.28125,653.09375,772.4698354394762,685.3567708333334C734.6584208789524,717.6197916666666,659.0355917579049,763.8020833333334,621.224177197381,786.8932291666666L583.4127626368572,809.984375" id="edge20" class="relation dashed-line" marker-start="url(#extensionStart)"></path><path d="M257.28125,576.4375L257.28125,592.2708333333334C257.28125,608.1041666666666,257.28125,639.7708333333334,292.8111109786787,678.6953125C328.3409719573574,717.6197916666666,399.4006939147148,763.8020833333334,434.9305548933935,786.8932291666666L470.46041587207213,809.984375" id="edge21" class="relation dashed-line" marker-start="url(#extensionStart)"></path></svg>
