<svg width="3281" height="770" xmlns="http://www.w3.org/2000/svg" xmlns:xlink="http://www.w3.org/1999/xlink" overflow="hidden"><defs><clipPath id="clip0"><rect x="9" y="760" width="3281" height="770"/></clipPath></defs><g clip-path="url(#clip0)" transform="translate(-9 -760)"><path d="M165.5 981.5 3138.12 981.5" stroke="#323232" stroke-width="6.875" stroke-linecap="butt" stroke-linejoin="round" stroke-miterlimit="10" stroke-opacity="1" fill="none" fill-rule="evenodd"/><text fill="#000000" fill-opacity="1" font-family="Arial,Arial_MSFontService,sans-serif" font-style="normal" font-variant="normal" font-weight="400" font-stretch="normal" font-size="55" text-anchor="start" direction="ltr" writing-mode="lr-tb" unicode-bidi="normal" text-decoration="none" transform="matrix(1 0 0 1 106.849 1075)">Start <tspan fill="#000000" fill-opacity="1" font-family="Arial,Arial_MSFontService,sans-serif" font-style="normal" font-variant="normal" font-weight="400" font-stretch="normal" font-size="55" text-anchor="start" direction="ltr" writing-mode="lr-tb" unicode-bidi="normal" text-decoration="none" x="-49.8438" y="66">simulatio</tspan><tspan fill="#000000" fill-opacity="1" font-family="Arial,Arial_MSFontService,sans-serif" font-style="normal" font-variant="normal" font-weight="400" font-stretch="normal" font-size="55" text-anchor="start" direction="ltr" writing-mode="lr-tb" unicode-bidi="normal" text-decoration="none" x="42.9687" y="132">n</tspan></text><path d="M0 0 0.000360892 55" stroke="#323232" stroke-width="6.875" stroke-linecap="butt" stroke-linejoin="round" stroke-miterlimit="10" stroke-opacity="1" fill="none" fill-rule="evenodd" transform="matrix(1 0 0 -1 164.5 1008.5)"/><path d="M0 0 0.000360892 55" stroke="#323232" stroke-width="6.875" stroke-linecap="butt" stroke-linejoin="round" stroke-miterlimit="10" stroke-opacity="1" fill="none" fill-rule="evenodd" transform="matrix(1 0 0 -1 3137.5 1007.5)"/><text fill="#000000" fill-opacity="1" font-family="Arial,Arial_MSFontService,sans-serif" font-style="normal" font-variant="normal" font-weight="400" font-stretch="normal" font-size="55" text-anchor="start" direction="ltr" writing-mode="lr-tb" unicode-bidi="normal" text-decoration="none" transform="matrix(1 0 0 1 3086.29 1105)">End <tspan fill="#000000" fill-opacity="1" font-family="Arial,Arial_MSFontService,sans-serif" font-style="normal" font-variant="normal" font-weight="400" font-stretch="normal" font-size="55" text-anchor="start" direction="ltr" writing-mode="lr-tb" unicode-bidi="normal" text-decoration="none" x="-59.2854" y="66">simulatio</tspan><tspan fill="#000000" fill-opacity="1" font-family="Arial,Arial_MSFontService,sans-serif" font-style="normal" font-variant="normal" font-weight="400" font-stretch="normal" font-size="55" text-anchor="start" direction="ltr" writing-mode="lr-tb" unicode-bidi="normal" text-decoration="none" x="33.5271" y="132">n</tspan></text><path d="M220.5 980.5 342.837 980.5" stroke="#FFFFFF" stroke-width="6.875" stroke-linecap="butt" stroke-linejoin="round" stroke-miterlimit="10" stroke-dasharray="6.875 6.875" stroke-opacity="1" fill="none" fill-rule="evenodd"/><path d="M2971.5 980.5 3093.84 980.5" stroke="#FFFFFF" stroke-width="6.875" stroke-linecap="butt" stroke-linejoin="round" stroke-miterlimit="10" stroke-dasharray="6.875 6.875" stroke-opacity="1" fill="none" fill-rule="evenodd"/><path d="M163 765 3091 765 3137 811 3091 857 163 857Z" fill="#C7EFFF" fill-rule="evenodd" fill-opacity="1"/><text fill="#333333" fill-opacity="1" font-family="Calibri,Calibri_MSFontService,sans-serif" font-style="normal" font-variant="normal" font-weight="400" font-stretch="normal" font-size="55" text-anchor="start" direction="ltr" writing-mode="lr-tb" unicode-bidi="normal" text-decoration="none" transform="matrix(1 0 0 1 195.943 829)">Wind (and wave) time series</text><path d="M493.5 981C493.5 970.783 501.783 962.5 512 962.5 522.217 962.5 530.5 970.783 530.5 981 530.5 991.217 522.217 999.5 512 999.5 501.783 999.5 493.5 991.217 493.5 981Z" stroke="#333333" stroke-width="9.16667" stroke-linecap="butt" stroke-linejoin="round" stroke-miterlimit="10" stroke-opacity="1" fill="#FFFFFF" fill-rule="evenodd" fill-opacity="1"/><path d="M943.5 981C943.5 970.783 951.783 962.5 962 962.5 972.217 962.5 980.5 970.783 980.5 981 980.5 991.217 972.217 999.5 962 999.5 951.783 999.5 943.5 991.217 943.5 981Z" stroke="#333333" stroke-width="9.16667" stroke-linecap="butt" stroke-linejoin="round" stroke-miterlimit="10" stroke-opacity="1" fill="#FFFFFF" fill-rule="evenodd" fill-opacity="1"/><path d="M1392.5 981C1392.5 970.783 1400.78 962.5 1411 962.5 1421.22 962.5 1429.5 970.783 1429.5 981 1429.5 991.217 1421.22 999.5 1411 999.5 1400.78 999.5 1392.5 991.217 1392.5 981Z" stroke="#333333" stroke-width="9.16667" stroke-linecap="butt" stroke-linejoin="round" stroke-miterlimit="10" stroke-opacity="1" fill="#FFFFFF" fill-rule="evenodd" fill-opacity="1"/><path d="M1841.5 981C1841.5 970.783 1849.78 962.5 1860 962.5 1870.22 962.5 1878.5 970.783 1878.5 981 1878.5 991.217 1870.22 999.5 1860 999.5 1849.78 999.5 1841.5 991.217 1841.5 981Z" stroke="#333333" stroke-width="9.16667" stroke-linecap="butt" stroke-linejoin="round" stroke-miterlimit="10" stroke-opacity="1" fill="#FFFFFF" fill-rule="evenodd" fill-opacity="1"/><path d="M2740.5 981C2740.5 970.783 2748.78 962.5 2759 962.5 2769.22 962.5 2777.5 970.783 2777.5 981 2777.5 991.217 2769.22 999.5 2759 999.5 2748.78 999.5 2740.5 991.217 2740.5 981Z" stroke="#333333" stroke-width="9.16667" stroke-linecap="butt" stroke-linejoin="round" stroke-miterlimit="10" stroke-opacity="1" fill="#FFFFFF" fill-rule="evenodd" fill-opacity="1"/><path d="M339.5 1020.5C339.5 1013.87 349.827 1008.5 362.567 1008.5L662.433 1008.5C675.173 1008.5 685.5 1013.87 685.5 1020.5L685.5 1116.5C685.5 1123.13 675.173 1128.5 662.433 1128.5L362.567 1128.5C349.827 1128.5 339.5 1123.13 339.5 1116.5L339.5 1020.5Z" stroke="#FFFFFF" stroke-width="9.16667" stroke-linecap="butt" stroke-linejoin="round" stroke-miterlimit="10" stroke-opacity="1" fill="#6A737B" fill-rule="evenodd" fill-opacity="1"/><text fill="#FFFFFF" fill-opacity="1" font-family="Calibri,Calibri_MSFontService,sans-serif" font-style="normal" font-variant="normal" font-weight="400" font-stretch="normal" font-size="55" text-anchor="start" direction="ltr" writing-mode="lr-tb" unicode-bidi="normal" text-decoration="none" transform="matrix(1 0 0 1 367.015 1083)">Subassembly<tspan fill="#000000" fill-opacity="1" font-family="Arial,Arial_MSFontService,sans-serif" font-style="normal" font-variant="normal" font-weight="400" font-stretch="normal" font-size="55" text-anchor="start" direction="ltr" writing-mode="lr-tb" unicode-bidi="normal" text-decoration="none" x="-57.0213" y="104">Fails or reaches </tspan><tspan fill="#000000" fill-opacity="1" font-family="Arial,Arial_MSFontService,sans-serif" font-style="normal" font-variant="normal" font-weight="400" font-stretch="normal" font-size="55" text-anchor="start" direction="ltr" writing-mode="lr-tb" unicode-bidi="normal" text-decoration="none" x="-18.6359" y="170">maintenance </tspan><tspan fill="#000000" fill-opacity="1" font-family="Arial,Arial_MSFontService,sans-serif" font-style="normal" font-variant="normal" font-weight="400" font-stretch="normal" font-size="55" text-anchor="start" direction="ltr" writing-mode="lr-tb" unicode-bidi="normal" text-decoration="none" x="49.8162" y="236">interval</tspan></text><path d="M788.5 1020.5C788.5 1013.87 798.797 1008.5 811.5 1008.5L1110.5 1008.5C1123.2 1008.5 1133.5 1013.87 1133.5 1020.5L1133.5 1116.5C1133.5 1123.13 1123.2 1128.5 1110.5 1128.5L811.5 1128.5C798.797 1128.5 788.5 1123.13 788.5 1116.5L788.5 1020.5Z" stroke="#FFFFFF" stroke-width="9.16667" stroke-linecap="butt" stroke-linejoin="round" stroke-miterlimit="10" stroke-opacity="1" fill="#5E9732" fill-rule="evenodd" fill-opacity="1"/><text fill="#FFFFFF" fill-opacity="1" font-family="Calibri,Calibri_MSFontService,sans-serif" font-style="normal" font-variant="normal" font-weight="400" font-stretch="normal" font-size="55" text-anchor="start" direction="ltr" writing-mode="lr-tb" unicode-bidi="normal" text-decoration="none" transform="matrix(1 0 0 1 879.436 1083)">Syste<tspan fill="#FFFFFF" fill-opacity="1" font-family="Calibri,Calibri_MSFontService,sans-serif" font-style="normal" font-variant="normal" font-weight="400" font-stretch="normal" font-size="55" text-anchor="start" direction="ltr" writing-mode="lr-tb" unicode-bidi="normal" text-decoration="none" x="117.448" y="0">m</tspan><tspan fill="#000000" fill-opacity="1" font-family="Arial,Arial_MSFontService,sans-serif" font-style="normal" font-variant="normal" font-weight="400" font-stretch="normal" font-size="55" text-anchor="start" direction="ltr" writing-mode="lr-tb" unicode-bidi="normal" text-decoration="none" x="-129.214" y="104">Requests service</tspan></text><path d="M1236.5 1020.5C1236.5 1013.87 1246.8 1008.5 1259.5 1008.5L1558.5 1008.5C1571.2 1008.5 1581.5 1013.87 1581.5 1020.5L1581.5 1116.5C1581.5 1123.13 1571.2 1128.5 1558.5 1128.5L1259.5 1128.5C1246.8 1128.5 1236.5 1123.13 1236.5 1116.5L1236.5 1020.5Z" stroke="#FFFFFF" stroke-width="9.16667" stroke-linecap="butt" stroke-linejoin="round" stroke-miterlimit="10" stroke-opacity="1" fill="#00A4E4" fill-rule="evenodd" fill-opacity="1"/><text fill="#FFFFFF" fill-opacity="1" font-family="Calibri,Calibri_MSFontService,sans-serif" font-style="normal" font-variant="normal" font-weight="400" font-stretch="normal" font-size="55" text-anchor="start" direction="ltr" writing-mode="lr-tb" unicode-bidi="normal" text-decoration="none" transform="matrix(1 0 0 1 1337.06 1053)">Repair <tspan fill="#FFFFFF" fill-opacity="1" font-family="Calibri,Calibri_MSFontService,sans-serif" font-style="normal" font-variant="normal" font-weight="400" font-stretch="normal" font-size="55" text-anchor="start" direction="ltr" writing-mode="lr-tb" unicode-bidi="normal" text-decoration="none" x="-28.6229" y="59">Manager</tspan><tspan fill="#000000" fill-opacity="1" font-family="Arial,Arial_MSFontService,sans-serif" font-style="normal" font-variant="normal" font-weight="400" font-stretch="normal" font-size="55" text-anchor="start" direction="ltr" writing-mode="lr-tb" unicode-bidi="normal" text-decoration="none" x="-82.1779" y="134">Assigns task</tspan></text><path d="M1684.5 1020.5C1684.5 1013.87 1694.8 1008.5 1707.5 1008.5L2006.5 1008.5C2019.2 1008.5 2029.5 1013.87 2029.5 1020.5L2029.5 1116.5C2029.5 1123.13 2019.2 1128.5 2006.5 1128.5L1707.5 1128.5C1694.8 1128.5 1684.5 1123.13 1684.5 1116.5L1684.5 1020.5Z" stroke="#FFFFFF" stroke-width="9.16667" stroke-linecap="butt" stroke-linejoin="round" stroke-miterlimit="10" stroke-opacity="1" fill="#F6A01A" fill-rule="evenodd" fill-opacity="1"/><text fill="#FFFFFF" fill-opacity="1" font-family="Calibri,Calibri_MSFontService,sans-serif" font-style="normal" font-variant="normal" font-weight="400" font-stretch="normal" font-size="55" text-anchor="start" direction="ltr" writing-mode="lr-tb" unicode-bidi="normal" text-decoration="none" transform="matrix(1 0 0 1 1756.78 1053)">Servicing <tspan fill="#FFFFFF" fill-opacity="1" font-family="Calibri,Calibri_MSFontService,sans-serif" font-style="normal" font-variant="normal" font-weight="400" font-stretch="normal" font-size="55" text-anchor="start" direction="ltr" writing-mode="lr-tb" unicode-bidi="normal" text-decoration="none" x="-21.4271" y="59">Equipment</tspan><tspan fill="#000000" fill-opacity="1" font-family="Arial,Arial_MSFontService,sans-serif" font-style="normal" font-variant="normal" font-weight="400" font-stretch="normal" font-size="55" text-anchor="start" direction="ltr" writing-mode="lr-tb" unicode-bidi="normal" text-decoration="none" x="-103.348" y="134">Conducts service</tspan></text><path d="M2581.5 1020.5C2581.5 1013.87 2591.8 1008.5 2604.5 1008.5L2903.5 1008.5C2916.2 1008.5 2926.5 1013.87 2926.5 1020.5L2926.5 1116.5C2926.5 1123.13 2916.2 1128.5 2903.5 1128.5L2604.5 1128.5C2591.8 1128.5 2581.5 1123.13 2581.5 1116.5L2581.5 1020.5Z" stroke="#FFFFFF" stroke-width="9.16667" stroke-linecap="butt" stroke-linejoin="round" stroke-miterlimit="10" stroke-opacity="1" fill="#5E9732" fill-rule="evenodd" fill-opacity="1"/><text fill="#FFFFFF" fill-opacity="1" font-family="Calibri,Calibri_MSFontService,sans-serif" font-style="normal" font-variant="normal" font-weight="400" font-stretch="normal" font-size="55" text-anchor="start" direction="ltr" writing-mode="lr-tb" unicode-bidi="normal" text-decoration="none" transform="matrix(1 0 0 1 2673.65 1083)">System<tspan fill="#000000" fill-opacity="1" font-family="Arial,Arial_MSFontService,sans-serif" font-style="normal" font-variant="normal" font-weight="400" font-stretch="normal" font-size="55" text-anchor="start" direction="ltr" writing-mode="lr-tb" unicode-bidi="normal" text-decoration="none" x="-44.6043" y="104">Returns to </tspan><tspan fill="#000000" fill-opacity="1" font-family="Arial,Arial_MSFontService,sans-serif" font-style="normal" font-variant="normal" font-weight="400" font-stretch="normal" font-size="55" text-anchor="start" direction="ltr" writing-mode="lr-tb" unicode-bidi="normal" text-decoration="none" x="-32" y="170">operation</tspan></text><path d="M493 1289 2731 1289 2777 1335 2731 1381 493 1381Z" fill="#FCD4BA" fill-rule="evenodd" fill-opacity="1"/><text fill="#333333" fill-opacity="1" font-family="Calibri,Calibri_MSFontService,sans-serif" font-style="normal" font-variant="normal" font-weight="400" font-stretch="normal" font-size="55" text-anchor="start" direction="ltr" writing-mode="lr-tb" unicode-bidi="normal" text-decoration="none" transform="matrix(1 0 0 1 526.459 1353)">Accumulate downtime (failures only)</text><path d="M1878 1416 2731 1416 2777 1462 2731 1508 1878 1508Z" fill="#FFE7A8" fill-rule="evenodd" fill-opacity="1"/><text fill="#333333" fill-opacity="1" font-family="Calibri,Calibri_MSFontService,sans-serif" font-style="normal" font-variant="normal" font-weight="400" font-stretch="normal" font-size="55" text-anchor="start" direction="ltr" writing-mode="lr-tb" unicode-bidi="normal" text-decoration="none" transform="matrix(1 0 0 1 1911.23 1480)">Track O&amp;M costs</text><path d="M1602.5 980.5 1668.5 980.5" stroke="#FFFFFF" stroke-width="6.875" stroke-linecap="butt" stroke-linejoin="round" stroke-miterlimit="10" stroke-dasharray="6.875 6.875" stroke-opacity="1" fill="none" fill-rule="evenodd"/><text fill="#333333" fill-opacity="1" font-family="Calibri,Calibri_MSFontService,sans-serif" font-style="normal" font-variant="normal" font-weight="400" font-stretch="normal" font-size="50" text-anchor="start" direction="ltr" writing-mode="lr-tb" unicode-bidi="normal" text-decoration="none" transform="matrix(1 0 0 1 1451.69 903)">Wait for weather, <tspan fill="#333333" fill-opacity="1" font-family="Calibri,Calibri_MSFontService,sans-serif" font-style="normal" font-variant="normal" font-weight="400" font-stretch="normal" font-size="50" text-anchor="start" direction="ltr" writing-mode="lr-tb" unicode-bidi="normal" text-decoration="none" x="-7.17285" y="55">equipment, parts*</tspan></text><path d="M2971 1289 3091 1289 3137 1335 3091 1381 2971 1381 3017 1335Z" fill="#FCD4BA" fill-rule="evenodd" fill-opacity="1"/><path d="M2971 1418 3091 1418 3137 1464 3091 1510 2971 1510 3017 1464Z" fill="#FFE7A8" fill-rule="evenodd" fill-opacity="1"/><path d="M2789 1289 2910 1289 2956 1335 2910 1381 2789 1381 2835 1335Z" fill="#FCD4BA" fill-rule="evenodd" fill-opacity="1"/><path d="M2789 1416 2910 1416 2956 1462 2910 1508 2789 1508 2835 1462Z" fill="#FFE7A8" fill-rule="evenodd" fill-opacity="1"/><path d="M2290.5 980C2290.5 969.783 2298.78 961.5 2309 961.5 2319.22 961.5 2327.5 969.783 2327.5 980 2327.5 990.217 2319.22 998.5 2309 998.5 2298.78 998.5 2290.5 990.217 2290.5 980Z" stroke="#333333" stroke-width="9.16667" stroke-linecap="butt" stroke-linejoin="round" stroke-miterlimit="10" stroke-opacity="1" fill="#FFFFFF" fill-rule="evenodd" fill-opacity="1"/><path d="M2132.5 1019.5C2132.5 1012.87 2142.83 1007.5 2155.57 1007.5L2455.43 1007.5C2468.17 1007.5 2478.5 1012.87 2478.5 1019.5L2478.5 1115.5C2478.5 1122.13 2468.17 1127.5 2455.43 1127.5L2155.57 1127.5C2142.83 1127.5 2132.5 1122.13 2132.5 1115.5L2132.5 1019.5Z" stroke="#FFFFFF" stroke-width="9.16667" stroke-linecap="butt" stroke-linejoin="round" stroke-miterlimit="10" stroke-opacity="1" fill="#6A737B" fill-rule="evenodd" fill-opacity="1"/><text fill="#FFFFFF" fill-opacity="1" font-family="Calibri,Calibri_MSFontService,sans-serif" font-style="normal" font-variant="normal" font-weight="400" font-stretch="normal" font-size="55" text-anchor="start" direction="ltr" writing-mode="lr-tb" unicode-bidi="normal" text-decoration="none" transform="matrix(1 0 0 1 2160.03 1082)">Subassembly<tspan fill="#000000" fill-opacity="1" font-family="Arial,Arial_MSFontService,sans-serif" font-style="normal" font-variant="normal" font-weight="400" font-stretch="normal" font-size="55" text-anchor="start" direction="ltr" writing-mode="lr-tb" unicode-bidi="normal" text-decoration="none" x="64.0732" y="104">Resets </tspan><tspan fill="#000000" fill-opacity="1" font-family="Arial,Arial_MSFontService,sans-serif" font-style="normal" font-variant="normal" font-weight="400" font-stretch="normal" font-size="55" text-anchor="start" direction="ltr" writing-mode="lr-tb" unicode-bidi="normal" text-decoration="none" x="76.1045" y="170">status</tspan></text></g></svg>
