<svg width="2026" height="1393" xmlns="http://www.w3.org/2000/svg" xmlns:xlink="http://www.w3.org/1999/xlink" overflow="hidden"><defs><clipPath id="clip0"><rect x="9" y="334" width="2026" height="1393"/></clipPath></defs><g clip-path="url(#clip0)" transform="translate(-9 -334)"><rect x="902.5" y="343.5" width="315" height="226" stroke="#FFFFFF" stroke-width="9.16667" stroke-linecap="butt" stroke-linejoin="round" stroke-miterlimit="10" stroke-opacity="1" fill="#0079C1" fill-opacity="1"/><text fill="#FFFFFF" fill-opacity="1" font-family="Calibri,Calibri_MSFontService,sans-serif" font-style="normal" font-variant="normal" font-weight="400" font-stretch="normal" font-size="48" text-anchor="start" direction="ltr" writing-mode="lr-tb" unicode-bidi="normal" text-decoration="none" transform="matrix(1 0 0 1 961.135 469)">Windf<tspan fill="#FFFFFF" fill-opacity="1" font-family="Calibri,Calibri_MSFontService,sans-serif" font-style="normal" font-variant="normal" font-weight="400" font-stretch="normal" font-size="48" text-anchor="start" direction="ltr" writing-mode="lr-tb" unicode-bidi="normal" text-decoration="none" x="119.167" y="0">arm</tspan></text><rect x="895.5" y="664.5" width="330" height="198" stroke="#FFFFFF" stroke-width="9.16667" stroke-linecap="butt" stroke-linejoin="round" stroke-miterlimit="10" stroke-opacity="1" fill="#5E9732" fill-opacity="1"/><text fill="#FFFFFF" fill-opacity="1" font-family="Calibri,Calibri_MSFontService,sans-serif" font-style="normal" font-variant="normal" font-weight="400" font-stretch="normal" font-size="46" text-anchor="start" direction="ltr" writing-mode="lr-tb" unicode-bidi="normal" text-decoration="none" transform="matrix(1 0 0 1 978.896 776)">Turbines</text><rect x="1625.5" y="667.5" width="330" height="198" stroke="#FFFFFF" stroke-width="9.16667" stroke-linecap="butt" stroke-linejoin="round" stroke-miterlimit="10" stroke-opacity="1" fill="#5E9732" fill-opacity="1"/><text fill="#FFFFFF" fill-opacity="1" font-family="Calibri,Calibri_MSFontService,sans-serif" font-style="normal" font-variant="normal" font-weight="400" font-stretch="normal" font-size="46" text-anchor="start" direction="ltr" writing-mode="lr-tb" unicode-bidi="normal" text-decoration="none" transform="matrix(1 0 0 1 1682.19 778)">Substations</text><rect x="177.5" y="667.5" width="330" height="198" stroke="#FFFFFF" stroke-width="9.16667" stroke-linecap="butt" stroke-linejoin="round" stroke-miterlimit="10" stroke-opacity="1" fill="#5E9732" fill-opacity="1"/><text fill="#FFFFFF" fill-opacity="1" font-family="Calibri,Calibri_MSFontService,sans-serif" font-style="normal" font-variant="normal" font-weight="400" font-stretch="normal" font-size="46" text-anchor="start" direction="ltr" writing-mode="lr-tb" unicode-bidi="normal" text-decoration="none" transform="matrix(1 0 0 1 281.103 778)">Cables</text><path d="M541 991.5C541 982.387 550.85 975 563 975L849 975C861.15 975 871 982.387 871 991.5L871 1123.5C871 1132.61 861.15 1140 849 1140L563 1140C550.85 1140 541 1132.61 541 1123.5L541 991.5Z" fill="#6A737B" fill-rule="evenodd" fill-opacity="1"/><text fill="#FFFFFF" fill-opacity="1" font-family="Calibri,Calibri_MSFontService,sans-serif" font-style="normal" font-variant="normal" font-weight="400" font-stretch="normal" font-size="46" text-anchor="start" direction="ltr" writing-mode="lr-tb" unicode-bidi="normal" text-decoration="none" transform="matrix(1 0 0 1 621.98 1045)">Electrical <tspan fill="#FFFFFF" fill-opacity="1" font-family="Calibri,Calibri_MSFontService,sans-serif" font-style="normal" font-variant="normal" font-weight="400" font-stretch="normal" font-size="46" text-anchor="start" direction="ltr" writing-mode="lr-tb" unicode-bidi="normal" text-decoration="none" x="16.9125" y="50">System</tspan></text><path d="M895 991.5C895 982.387 904.85 975 917 975L1203 975C1215.15 975 1225 982.387 1225 991.5L1225 1123.5C1225 1132.61 1215.15 1140 1203 1140L917 1140C904.85 1140 895 1132.61 895 1123.5L895 991.5Z" fill="#6A737B" fill-rule="evenodd" fill-opacity="1"/><text fill="#FFFFFF" fill-opacity="1" font-family="Calibri,Calibri_MSFontService,sans-serif" font-style="normal" font-variant="normal" font-weight="400" font-stretch="normal" font-size="46" text-anchor="start" direction="ltr" writing-mode="lr-tb" unicode-bidi="normal" text-decoration="none" transform="matrix(1 0 0 1 967.437 1045)">Electronic <tspan fill="#FFFFFF" fill-opacity="1" font-family="Calibri,Calibri_MSFontService,sans-serif" font-style="normal" font-variant="normal" font-weight="400" font-stretch="normal" font-size="46" text-anchor="start" direction="ltr" writing-mode="lr-tb" unicode-bidi="normal" text-decoration="none" x="22.9167" y="50">Control</tspan></text><path d="M895 1180.5C895 1171.39 904.85 1164 917 1164L1203 1164C1215.15 1164 1225 1171.39 1225 1180.5L1225 1312.5C1225 1321.61 1215.15 1329 1203 1329L917 1329C904.85 1329 895 1321.61 895 1312.5L895 1180.5Z" fill="#6A737B" fill-rule="evenodd" fill-opacity="1"/><text fill="#FFFFFF" fill-opacity="1" font-family="Calibri,Calibri_MSFontService,sans-serif" font-style="normal" font-variant="normal" font-weight="400" font-stretch="normal" font-size="46" text-anchor="start" direction="ltr" writing-mode="lr-tb" unicode-bidi="normal" text-decoration="none" transform="matrix(1 0 0 1 941.37 1259)">Rotor Blades</text><path d="M895 1549.5C895 1540.39 904.85 1533 917 1533L1203 1533C1215.15 1533 1225 1540.39 1225 1549.5L1225 1681.5C1225 1690.61 1215.15 1698 1203 1698L917 1698C904.85 1698 895 1690.61 895 1681.5L895 1549.5Z" fill="#6A737B" fill-rule="evenodd" fill-opacity="1"/><text fill="#FFFFFF" fill-opacity="1" font-family="Calibri,Calibri_MSFontService,sans-serif" font-style="normal" font-variant="normal" font-weight="400" font-stretch="normal" font-size="46" text-anchor="start" direction="ltr" writing-mode="lr-tb" unicode-bidi="normal" text-decoration="none" transform="matrix(1 0 0 1 966.865 1628)">Drivetrain</text><path d="M895 1361.5C895 1352.39 904.85 1345 917 1345L1203 1345C1215.15 1345 1225 1352.39 1225 1361.5L1225 1493.5C1225 1502.61 1215.15 1510 1203 1510L917 1510C904.85 1510 895 1502.61 895 1493.5L895 1361.5Z" fill="#6A737B" fill-rule="evenodd" fill-opacity="1"/><text fill="#FFFFFF" fill-opacity="1" font-family="Calibri,Calibri_MSFontService,sans-serif" font-style="normal" font-variant="normal" font-weight="400" font-stretch="normal" font-size="46" text-anchor="start" direction="ltr" writing-mode="lr-tb" unicode-bidi="normal" text-decoration="none" transform="matrix(1 0 0 1 980.901 1440)">Gearbox</text><path d="M1252 1178.5C1252 1169.39 1261.85 1162 1274 1162L1560 1162C1572.15 1162 1582 1169.39 1582 1178.5L1582 1310.5C1582 1319.61 1572.15 1327 1560 1327L1274 1327C1261.85 1327 1252 1319.61 1252 1310.5L1252 1178.5Z" fill="#6A737B" fill-rule="evenodd" fill-opacity="1"/><text fill="#FFFFFF" fill-opacity="1" font-family="Calibri,Calibri_MSFontService,sans-serif" font-style="normal" font-variant="normal" font-weight="400" font-stretch="normal" font-size="46" text-anchor="start" direction="ltr" writing-mode="lr-tb" unicode-bidi="normal" text-decoration="none" transform="matrix(1 0 0 1 1320.74 1257)">Generator</text><path d="M541 1363.5C541 1354.39 550.85 1347 563 1347L849 1347C861.15 1347 871 1354.39 871 1363.5L871 1495.5C871 1504.61 861.15 1512 849 1512L563 1512C550.85 1512 541 1504.61 541 1495.5L541 1363.5Z" fill="#6A737B" fill-rule="evenodd" fill-opacity="1"/><text fill="#FFFFFF" fill-opacity="1" font-family="Calibri,Calibri_MSFontService,sans-serif" font-style="normal" font-variant="normal" font-weight="400" font-stretch="normal" font-size="46" text-anchor="start" direction="ltr" writing-mode="lr-tb" unicode-bidi="normal" text-decoration="none" transform="matrix(1 0 0 1 634.298 1442)">Sensors</text><path d="M1248 1366.5C1248 1357.39 1257.85 1350 1270 1350L1556 1350C1568.15 1350 1578 1357.39 1578 1366.5L1578 1498.5C1578 1507.61 1568.15 1515 1556 1515L1270 1515C1257.85 1515 1248 1507.61 1248 1498.5L1248 1366.5Z" fill="#6A737B" fill-rule="evenodd" fill-opacity="1"/><text fill="#FFFFFF" fill-opacity="1" font-family="Calibri,Calibri_MSFontService,sans-serif" font-style="normal" font-variant="normal" font-weight="400" font-stretch="normal" font-size="46" text-anchor="start" direction="ltr" writing-mode="lr-tb" unicode-bidi="normal" text-decoration="none" transform="matrix(1 0 0 1 1306.59 1420)">Mechanical <tspan fill="#FFFFFF" fill-opacity="1" font-family="Calibri,Calibri_MSFontService,sans-serif" font-style="normal" font-variant="normal" font-weight="400" font-stretch="normal" font-size="46" text-anchor="start" direction="ltr" writing-mode="lr-tb" unicode-bidi="normal" text-decoration="none" x="53.2813" y="50">Brake</tspan></text><path d="M541 1178.5C541 1169.39 550.85 1162 563 1162L849 1162C861.15 1162 871 1169.39 871 1178.5L871 1310.5C871 1319.61 861.15 1327 849 1327L563 1327C550.85 1327 541 1319.61 541 1310.5L541 1178.5Z" fill="#6A737B" fill-rule="evenodd" fill-opacity="1"/><text fill="#FFFFFF" fill-opacity="1" font-family="Calibri,Calibri_MSFontService,sans-serif" font-style="normal" font-variant="normal" font-weight="400" font-stretch="normal" font-size="46" text-anchor="start" direction="ltr" writing-mode="lr-tb" unicode-bidi="normal" text-decoration="none" transform="matrix(1 0 0 1 618.542 1232)">Hydraulic <tspan fill="#FFFFFF" fill-opacity="1" font-family="Calibri,Calibri_MSFontService,sans-serif" font-style="normal" font-variant="normal" font-weight="400" font-stretch="normal" font-size="46" text-anchor="start" direction="ltr" writing-mode="lr-tb" unicode-bidi="normal" text-decoration="none" x="20.35" y="50">System</tspan></text><path d="M541 1548.5C541 1539.39 550.85 1532 563 1532L849 1532C861.15 1532 871 1539.39 871 1548.5L871 1680.5C871 1689.61 861.15 1697 849 1697L563 1697C550.85 1697 541 1689.61 541 1680.5L541 1548.5Z" fill="#6A737B" fill-rule="evenodd" fill-opacity="1"/><text fill="#FFFFFF" fill-opacity="1" font-family="Calibri,Calibri_MSFontService,sans-serif" font-style="normal" font-variant="normal" font-weight="400" font-stretch="normal" font-size="46" text-anchor="start" direction="ltr" writing-mode="lr-tb" unicode-bidi="normal" text-decoration="none" transform="matrix(1 0 0 1 603.647 1602)">Supporting <tspan fill="#FFFFFF" fill-opacity="1" font-family="Calibri,Calibri_MSFontService,sans-serif" font-style="normal" font-variant="normal" font-weight="400" font-stretch="normal" font-size="46" text-anchor="start" direction="ltr" writing-mode="lr-tb" unicode-bidi="normal" text-decoration="none" x="15.1938" y="50">Structure</tspan></text><path d="M1248 1548.5C1248 1539.39 1257.85 1532 1270 1532L1556 1532C1568.15 1532 1578 1539.39 1578 1548.5L1578 1680.5C1578 1689.61 1568.15 1697 1556 1697L1270 1697C1257.85 1697 1248 1689.61 1248 1680.5L1248 1548.5Z" fill="#6A737B" fill-rule="evenodd" fill-opacity="1"/><text fill="#FFFFFF" fill-opacity="1" font-family="Calibri,Calibri_MSFontService,sans-serif" font-style="normal" font-variant="normal" font-weight="400" font-stretch="normal" font-size="46" text-anchor="start" direction="ltr" writing-mode="lr-tb" unicode-bidi="normal" text-decoration="none" transform="matrix(1 0 0 1 1317.48 1627)">Rotor Hub</text><path d="M1248 991.5C1248 982.387 1257.85 975 1270 975L1556 975C1568.15 975 1578 982.387 1578 991.5L1578 1123.5C1578 1132.61 1568.15 1140 1556 1140L1270 1140C1257.85 1140 1248 1132.61 1248 1123.5L1248 991.5Z" fill="#6A737B" fill-rule="evenodd" fill-opacity="1"/><text fill="#FFFFFF" fill-opacity="1" font-family="Calibri,Calibri_MSFontService,sans-serif" font-style="normal" font-variant="normal" font-weight="400" font-stretch="normal" font-size="46" text-anchor="start" direction="ltr" writing-mode="lr-tb" unicode-bidi="normal" text-decoration="none" transform="matrix(1 0 0 1 1302.3 1070)">Yaw System</text><path d="M1661 1049.6C1661 1037.12 1669.98 1027 1681.07 1027L1941.93 1027C1953.02 1027 1962 1037.12 1962 1049.6L1962 1230.4C1962 1242.88 1953.02 1253 1941.93 1253L1681.07 1253C1669.98 1253 1661 1242.88 1661 1230.4L1661 1049.6Z" fill="#6A737B" fill-rule="evenodd" fill-opacity="1"/><text fill="#FFFFFF" fill-opacity="1" font-family="Calibri,Calibri_MSFontService,sans-serif" font-style="normal" font-variant="normal" font-weight="400" font-stretch="normal" font-size="46" text-anchor="start" direction="ltr" writing-mode="lr-tb" unicode-bidi="normal" text-decoration="none" transform="matrix(1 0 0 1 1695.86 1152)">Transformer</text><path d="M190 1071.7C190 1059.16 198.984 1049 210.067 1049L470.933 1049C482.016 1049 491 1059.16 491 1071.7L491 1253.3C491 1265.84 482.016 1276 470.933 1276L210.067 1276C198.984 1276 190 1265.84 190 1253.3L190 1071.7Z" fill="#6A737B" fill-rule="evenodd" fill-opacity="1"/><text fill="#FFFFFF" fill-opacity="1" font-family="Calibri,Calibri_MSFontService,sans-serif" font-style="normal" font-variant="normal" font-weight="400" font-stretch="normal" font-size="46" text-anchor="start" direction="ltr" writing-mode="lr-tb" unicode-bidi="normal" text-decoration="none" transform="matrix(1 0 0 1 288.618 1175)">Cable</text><path d="M1060.34 569.5 1060.34 618.15 342.5 618.15 342.5 666.799" stroke="#677079" stroke-width="3.4375" stroke-linecap="butt" stroke-linejoin="round" stroke-miterlimit="10" stroke-opacity="1" fill="none" fill-rule="evenodd"/><path d="M0 0 48.6496 0 48.6496 730.506 97.2984 730.506" stroke="#677079" stroke-width="3.4375" stroke-linecap="butt" stroke-linejoin="round" stroke-miterlimit="10" stroke-opacity="1" fill="none" fill-rule="evenodd" transform="matrix(1.83697e-16 1 1 -1.83697e-16 1060.5 569.5)"/><path d="M1060.5 569.5 1060.5 664.557" stroke="#677079" stroke-width="3.4375" stroke-linecap="butt" stroke-linejoin="round" stroke-miterlimit="10" stroke-opacity="1" fill="none" fill-rule="evenodd"/><path d="M1060.5 858.5 1060.5 971.804" stroke="#677079" stroke-width="3.4375" stroke-linecap="butt" stroke-linejoin="round" stroke-miterlimit="10" stroke-opacity="1" fill="none" fill-rule="evenodd"/><path d="M1806.5 858.5 1806.5 1052.14" stroke="#677079" stroke-width="3.4375" stroke-linecap="butt" stroke-linejoin="round" stroke-miterlimit="10" stroke-opacity="1" fill="none" fill-rule="evenodd"/><path d="M340.5 858.5 340.501 1049.3" stroke="#677079" stroke-width="3.4375" stroke-linecap="butt" stroke-linejoin="round" stroke-miterlimit="10" stroke-opacity="1" fill="none" fill-rule="evenodd"/><rect x="127" y="955" width="1901" height="767" stroke="#6A737B" stroke-width="10.3125" stroke-linecap="butt" stroke-linejoin="round" stroke-miterlimit="10" stroke-dasharray="10.3125 10.3125" stroke-opacity="1" fill="none"/><rect x="127" y="650" width="1901" height="227" stroke="#8DC63F" stroke-width="10.3125" stroke-linecap="butt" stroke-linejoin="round" stroke-miterlimit="10" stroke-dasharray="41.25 30.9375" stroke-opacity="1" fill="none"/><text fill="#6A972D" fill-opacity="1" font-family="Arial,Arial_MSFontService,sans-serif" font-style="normal" font-variant="normal" font-weight="400" font-stretch="normal" font-size="64" text-anchor="start" direction="ltr" writing-mode="lr-tb" unicode-bidi="normal" text-decoration="none" transform="matrix(-1.83697e-16 -1 1 -1.83697e-16 92.2288 870)">Systems<tspan fill="#6A737B" fill-opacity="1" font-family="Arial,Arial_MSFontService,sans-serif" font-style="normal" font-variant="normal" font-weight="400" font-stretch="normal" font-size="64" text-anchor="start" direction="ltr" writing-mode="lr-tb" unicode-bidi="normal" text-decoration="none" x="-651" y="0.000366211">Subassemblies</tspan></text></g></svg>
