<svg id="mermaid-1656613542740" width="100%" xmlns="http://www.w3.org/2000/svg" xmlns:xlink="http://www.w3.org/1999/xlink" height="1439.84375" style="max-width: 1937.02734375px;" viewBox="-55 -20 1937.02734375 1439.84375"><style>#mermaid-1656613542740{font-family:"trebuchet ms",verdana,arial,sans-serif;font-size:16px;fill:#333;}#mermaid-1656613542740 .error-icon{fill:hsl(220.5882352941,100%,98.3333333333%);}#mermaid-1656613542740 .error-text{fill:rgb(4.2500000001,4.2500000001,4.2500000001);stroke:rgb(4.2500000001,4.2500000001,4.2500000001);}#mermaid-1656613542740 .edge-thickness-normal{stroke-width:2px;}#mermaid-1656613542740 .edge-thickness-thick{stroke-width:3.5px;}#mermaid-1656613542740 .edge-pattern-solid{stroke-dasharray:0;}#mermaid-1656613542740 .edge-pattern-dashed{stroke-dasharray:3;}#mermaid-1656613542740 .edge-pattern-dotted{stroke-dasharray:2;}#mermaid-1656613542740 .marker{fill:#0b0b0b;stroke:#0b0b0b;}#mermaid-1656613542740 .marker.cross{stroke:#0b0b0b;}#mermaid-1656613542740 svg{font-family:"trebuchet ms",verdana,arial,sans-serif;font-size:16px;}#mermaid-1656613542740 g.classGroup text{fill:hsl(40.5882352941,60%,83.3333333333%);fill:#333;stroke:none;font-family:"trebuchet ms",verdana,arial,sans-serif;font-size:10px;}#mermaid-1656613542740 g.classGroup text .title{font-weight:bolder;}#mermaid-1656613542740 .classTitle{font-weight:bolder;}#mermaid-1656613542740 .node rect,#mermaid-1656613542740 .node circle,#mermaid-1656613542740 .node ellipse,#mermaid-1656613542740 .node polygon,#mermaid-1656613542740 .node path{fill:#fff4dd;stroke:hsl(40.5882352941,60%,83.3333333333%);stroke-width:1px;}#mermaid-1656613542740 .divider{stroke:hsl(40.5882352941,60%,83.3333333333%);stroke:1;}#mermaid-1656613542740 g.clickable{cursor:pointer;}#mermaid-1656613542740 g.classGroup rect{fill:#fff4dd;stroke:hsl(40.5882352941,60%,83.3333333333%);}#mermaid-1656613542740 g.classGroup line{stroke:hsl(40.5882352941,60%,83.3333333333%);stroke-width:1;}#mermaid-1656613542740 .classLabel .box{stroke:none;stroke-width:0;fill:#fff4dd;opacity:0.5;}#mermaid-1656613542740 .classLabel .label{fill:hsl(40.5882352941,60%,83.3333333333%);font-size:10px;}#mermaid-1656613542740 .relation{stroke:#0b0b0b;stroke-width:1;fill:none;}#mermaid-1656613542740 .dashed-line{stroke-dasharray:3;}#mermaid-1656613542740 #compositionStart,#mermaid-1656613542740 .composition{fill:#0b0b0b !important;stroke:#0b0b0b !important;stroke-width:1;}#mermaid-1656613542740 #compositionEnd,#mermaid-1656613542740 .composition{fill:#0b0b0b !important;stroke:#0b0b0b !important;stroke-width:1;}#mermaid-1656613542740 #dependencyStart,#mermaid-1656613542740 .dependency{fill:#0b0b0b !important;stroke:#0b0b0b !important;stroke-width:1;}#mermaid-1656613542740 #dependencyStart,#mermaid-1656613542740 .dependency{fill:#0b0b0b !important;stroke:#0b0b0b !important;stroke-width:1;}#mermaid-1656613542740 #extensionStart,#mermaid-1656613542740 .extension{fill:#0b0b0b !important;stroke:#0b0b0b !important;stroke-width:1;}#mermaid-1656613542740 #extensionEnd,#mermaid-1656613542740 .extension{fill:#0b0b0b !important;stroke:#0b0b0b !important;stroke-width:1;}#mermaid-1656613542740 #aggregationStart,#mermaid-1656613542740 .aggregation{fill:#fff4dd !important;stroke:#0b0b0b !important;stroke-width:1;}#mermaid-1656613542740 #aggregationEnd,#mermaid-1656613542740 .aggregation{fill:#fff4dd !important;stroke:#0b0b0b !important;stroke-width:1;}#mermaid-1656613542740 .edgeTerminals{font-size:11px;}#mermaid-1656613542740:root{--mermaid-font-family:"trebuchet ms",verdana,arial,sans-serif;}</style><g></g><defs><marker id="extensionStart" class="extension" refX="0" refY="7" markerWidth="190" markerHeight="240" orient="auto"><path d="M 1,7 L18,13 V 1 Z"></path></marker></defs><defs><marker id="extensionEnd" refX="19" refY="7" markerWidth="20" markerHeight="28" orient="auto"><path d="M 1,1 V 13 L18,7 Z"></path></marker></defs><defs><marker id="compositionStart" class="extension" refX="0" refY="7" markerWidth="190" markerHeight="240" orient="auto"><path d="M 18,7 L9,13 L1,7 L9,1 Z"></path></marker></defs><defs><marker id="compositionEnd" refX="19" refY="7" markerWidth="20" markerHeight="28" orient="auto"><path d="M 18,7 L9,13 L1,7 L9,1 Z"></path></marker></defs><defs><marker id="aggregationStart" class="extension" refX="0" refY="7" markerWidth="190" markerHeight="240" orient="auto"><path d="M 18,7 L9,13 L1,7 L9,1 Z"></path></marker></defs><defs><marker id="aggregationEnd" refX="19" refY="7" markerWidth="20" markerHeight="28" orient="auto"><path d="M 18,7 L9,13 L1,7 L9,1 Z"></path></marker></defs><defs><marker id="dependencyStart" class="extension" refX="0" refY="7" markerWidth="190" markerHeight="240" orient="auto"><path d="M 5,7 L9,13 L1,7 L9,1 Z"></path></marker></defs><defs><marker id="dependencyEnd" refX="19" refY="7" markerWidth="20" markerHeight="28" orient="auto"><path d="M 18,7 L9,13 L14,7 L9,1 Z"></path></marker></defs><g id="classid-FromDictMixin-0" class="classGroup" transform="translate(649.10546875,1352.75 )"><rect x="0" y="0" width="104.859375" height="47.09375" class=" "></rect><text y="15" x="0"><tspan class="title" x="18.578125">FromDictMixin</tspan></text><line x1="0" y1="21" y2="21" x2="104.859375"></line><text x="5" y="31" fill="white" class="classText"></text><line x1="0" y1="26" y2="26" x2="104.859375"></line><text x="5" y="41" fill="white" class="classText"><tspan x="5">from_dict(cls, data)</tspan></text></g><g id="classid-Failure-1" class="classGroup" transform="translate(0,1089.625 )"><rect x="0" y="0" width="152.015625" height="168.15625" class=" "></rect><text y="15" x="0"><tspan class="title" x="59.4921875">Failure</tspan></text><line x1="0" y1="21" y2="21" x2="152.015625"></line><text x="5" y="31" fill="white" class="classText"><tspan x="5">level: int</tspan><tspan x="5" dy="10">scale: float</tspan><tspan x="5" dy="10">shape: float</tspan><tspan x="5" dy="10">time: float</tspan><tspan x="5" dy="10">materials: float</tspan><tspan x="5" dy="10">description: str</tspan><tspan x="5" dy="10">operation_reduction: float</tspan><tspan x="5" dy="10">service_equipment: list[str]</tspan><tspan x="5" dy="10">system_value: float</tspan><tspan x="5" dy="10">weibull</tspan><tspan x="5" dy="10">request_id: str</tspan></text><line x1="0" y1="137.0625" y2="137.0625" x2="152.015625"></line><text x="5" y="152.0625" fill="white" class="classText"><tspan x="5">assign_id(request_id: str)</tspan><tspan x="5" dy="10">hours_to_next_failure() : float</tspan></text></g><g id="classid-Maintenance-2" class="classGroup" transform="translate(504.328125,1114.625 )"><rect x="0" y="0" width="139.625" height="118.15625" class=" "></rect><text y="15" x="0"><tspan class="title" x="40.125">Maintenance</tspan></text><line x1="0" y1="21" y2="21" x2="139.625"></line><text x="5" y="31" fill="white" class="classText"><tspan x="5">time: float</tspan><tspan x="5" dy="10">materials: float</tspan><tspan x="5" dy="10">description: str</tspan><tspan x="5" dy="10">operation_reduction: float</tspan><tspan x="5" dy="10">service_equipment: list[str]</tspan><tspan x="5" dy="10">system_value: float</tspan><tspan x="5" dy="10">request_id: str</tspan></text><line x1="0" y1="97.0625" y2="97.0625" x2="139.625"></line><text x="5" y="112.0625" fill="white" class="classText"><tspan x="5">assign_id(request_id: str)</tspan></text></g><g id="classid-RepairRequest-3" class="classGroup" transform="translate(333.78125,80 )"><rect x="0" y="0" width="150.828125" height="138.21875" class=" "></rect><text y="15" x="0"><tspan class="title" x="41.46875">RepairRequest</tspan></text><line x1="0" y1="21.0625" y2="21.0625" x2="150.828125"></line><text x="5" y="31.0625" fill="white" class="classText"><tspan x="5">cable: bool</tspan><tspan x="5" dy="10">details: Failure | Maintenance</tspan><tspan x="5" dy="10">request_id: str</tspan><tspan x="5" dy="10">severity_level: int</tspan><tspan x="5" dy="10">subassembly_id: str</tspan><tspan x="5" dy="10">subassembly_name: str</tspan><tspan x="5" dy="10">system_id: str</tspan><tspan x="5" dy="10">system_name: str</tspan><tspan x="5" dy="10">upstream_turbines: list[str]</tspan></text><line x1="0" y1="117.125" y2="117.125" x2="150.828125"></line><text x="5" y="132.125" fill="white" class="classText"><tspan x="5">assign_id(request_id: str)</tspan></text></g><g id="classid-ServiceEquipmentData-4" class="classGroup" transform="translate(1567.56640625,463.21875 )"><rect x="0" y="0" width="115.765625" height="68.21875" class=" "></rect><text y="15" x="0"><tspan class="title" x="5">ServiceEquipmentData</tspan></text><line x1="0" y1="21.0625" y2="21.0625" x2="115.765625"></line><text x="5" y="31.0625" fill="white" class="classText"><tspan x="5">data_dict: dict</tspan><tspan x="5" dy="10">strategy: str</tspan></text><line x1="0" y1="47.125" y2="47.125" x2="115.765625"></line><text x="5" y="62.125" fill="white" class="classText"><tspan x="5">determine_type()</tspan></text></g><g id="classid-ServiceCrew-5" class="classGroup" transform="translate(1393.20703125,1138.171875 )"><rect x="0" y="0" width="96.546875" height="71.0625" class=" "></rect><text y="15" x="0"><tspan class="title" x="19.15625">ServiceCrew</tspan></text><line x1="0" y1="21" y2="21" x2="96.546875"></line><text x="5" y="31" fill="white" class="classText"><tspan x="5">day_rate: float</tspan><tspan x="5" dy="10">hourly_rate: float</tspan><tspan x="5" dy="10">n_day_rate: int</tspan><tspan x="5" dy="10">n_hourly_rate: int</tspan></text><line x1="0" y1="67.0625" y2="67.0625" x2="96.546875"></line><text x="5" y="82.0625" fill="white" class="classText"></text></g><g id="classid-ScheduledServiceEquipmentData-6" class="classGroup" transform="translate(1433.03125,696.4375 )"><rect x="0" y="0" width="164.640625" height="298.21875" class=" "></rect><text y="15" x="0"><tspan class="title" x="5.3828125">ScheduledServiceEquipmentData</tspan></text><line x1="0" y1="21.0625" y2="21.0625" x2="164.640625"></line><text x="5" y="31.0625" fill="white" class="classText"><tspan x="5">name: str</tspan><tspan x="5" dy="10">capability: list[str]</tspan><tspan x="5" dy="10">equipment_rate: float</tspan><tspan x="5" dy="10">crew: ServiceCrew</tspan><tspan x="5" dy="10">n_crews: int</tspan><tspan x="5" dy="10">crew_transfer_time: float</tspan><tspan x="5" dy="10">start_day: int</tspan><tspan x="5" dy="10">start_month: int</tspan><tspan x="5" dy="10">end_day: int</tspan><tspan x="5" dy="10">end_month: int</tspan><tspan x="5" dy="10">start_year: int</tspan><tspan x="5" dy="10">end_year: int</tspan><tspan x="5" dy="10">strategy: str</tspan><tspan x="5" dy="10">onsite: bool</tspan><tspan x="5" dy="10">workday_start: int</tspan><tspan x="5" dy="10">workday_end: int</tspan><tspan x="5" dy="10">method: str</tspan><tspan x="5" dy="10">mobilization_cost: float</tspan><tspan x="5" dy="10">mobilization_days: int</tspan><tspan x="5" dy="10">speed: float</tspan><tspan x="5" dy="10">max_waveheight_repair: float</tspan><tspan x="5" dy="10">max_waveheight_transport: float</tspan><tspan x="5" dy="10">max_windspeed_repair: float</tspan><tspan x="5" dy="10">max_windspeed_transport: float</tspan><tspan x="5" dy="10">operating_dates: numpy.ndarray</tspan></text><line x1="0" y1="277.125" y2="277.125" x2="164.640625"></line><text x="5" y="292.125" fill="white" class="classText"><tspan x="5">create_date_range()</tspan></text></g><g id="classid-UnscheduledServiceEquipmentData-7" class="classGroup" transform="translate(1647.671875,705.015625 )"><rect x="0" y="0" width="175.75" height="281.0625" class=" "></rect><text y="15" x="0"><tspan class="title" x="5">UnscheduledServiceEquipmentData</tspan></text><line x1="0" y1="21.0625" y2="21.0625" x2="175.75"></line><text x="5" y="31.0625" fill="white" class="classText"><tspan x="5">name: str</tspan><tspan x="5" dy="10">capability: list[str]</tspan><tspan x="5" dy="10">equipment_rate: float</tspan><tspan x="5" dy="10">crew: ServiceCrew</tspan><tspan x="5" dy="10">n_crews: int</tspan><tspan x="5" dy="10">crew_transfer_time: float</tspan><tspan x="5" dy="10">charter_days: int</tspan><tspan x="5" dy="10">strategy: str</tspan><tspan x="5" dy="10">strategy_threshold: int | float</tspan><tspan x="5" dy="10">workday_start: int</tspan><tspan x="5" dy="10">workday_end: int</tspan><tspan x="5" dy="10">method: str</tspan><tspan x="5" dy="10">mobilization_cost: float</tspan><tspan x="5" dy="10">mobilization_days: int</tspan><tspan x="5" dy="10">speed: float</tspan><tspan x="5" dy="10">tow_sped: float</tspan><tspan x="5" dy="10">speed_reduction_factor: float</tspan><tspan x="5" dy="10">max_waveheight_repair: float</tspan><tspan x="5" dy="10">max_waveheight_transport: float</tspan><tspan x="5" dy="10">max_windspeed_repair: float</tspan><tspan x="5" dy="10">max_windspeed_transport: float</tspan><tspan x="5" dy="10">port_distance: float</tspan><tspan x="5" dy="10">unmoor_hours: float</tspan><tspan x="5" dy="10">reconnection_hours: float</tspan><tspan x="5" dy="10">onsite: bool</tspan></text><line x1="0" y1="277.0625" y2="277.0625" x2="175.75"></line><text x="5" y="292.0625" fill="white" class="classText"></text></g><g id="classid-PortConfig-8" class="classGroup" transform="translate(215.046875,1113.171875 )"><rect x="0" y="0" width="239.28125" height="121.0625" class=" "></rect><text y="15" x="0"><tspan class="title" x="95.0625">PortConfig</tspan></text><line x1="0" y1="21.0625" y2="21.0625" x2="239.28125"></line><text x="5" y="31.0625" fill="white" class="classText"><tspan x="5">name: str</tspan><tspan x="5" dy="10">tugboats: list[UnscheduledServiceEquipmentData]</tspan><tspan x="5" dy="10">crew: ServiceCrew</tspan><tspan x="5" dy="10">n_crews: int</tspan><tspan x="5" dy="10">max_operations: int</tspan><tspan x="5" dy="10">workday_start: int</tspan><tspan x="5" dy="10">workday_end: int</tspan><tspan x="5" dy="10">site_distance: float</tspan><tspan x="5" dy="10">annual_fee: float</tspan></text><line x1="0" y1="117.0625" y2="117.0625" x2="239.28125"></line><text x="5" y="132.0625" fill="white" class="classText"></text></g><g id="classid-SubassemblyData-9" class="classGroup" transform="translate(947.5703125,809.984375 )"><rect x="0" y="0" width="157.390625" height="71.125" class=" "></rect><text y="15" x="0"><tspan class="title" x="38.5625">SubassemblyData</tspan></text><line x1="0" y1="21.0625" y2="21.0625" x2="157.390625"></line><text x="5" y="31.0625" fill="white" class="classText"><tspan x="5">name: str</tspan><tspan x="5" dy="10">system_value: float</tspan><tspan x="5" dy="10">failures: dict[int, Failure]</tspan><tspan x="5" dy="10">maintenance: list[Maintenance]</tspan></text><line x1="0" y1="67.125" y2="67.125" x2="157.390625"></line><text x="5" y="82.125" fill="white" class="classText"></text></g><g id="classid-FixedCosts-10" class="classGroup" transform="translate(706.984375,1044.65625 )"><rect x="0" y="0" width="264.28125" height="258.09375" class=" "></rect><text y="15" x="0"><tspan class="title" x="107.015625">FixedCosts</tspan></text><line x1="0" y1="21" y2="21" x2="264.28125"></line><text x="5" y="31" fill="white" class="classText"><tspan x="5">operations: float</tspan><tspan x="5" dy="10">annual_lease_fees: float</tspan><tspan x="5" dy="10">brokers_fee: float</tspan><tspan x="5" dy="10">business_interruption: float</tspan><tspan x="5" dy="10">condition_monitoring: float</tspan><tspan x="5" dy="10">environmental_health_safety_monitoring: float</tspan><tspan x="5" dy="10">insurance: float</tspan><tspan x="5" dy="10">labor: float</tspan><tspan x="5" dy="10">marine_management: float</tspan><tspan x="5" dy="10">onshore_electrical_maintenance: float</tspan><tspan x="5" dy="10">operating_facilities: float</tspan><tspan x="5" dy="10">operations_all_risk: float</tspan><tspan x="5" dy="10">operations_management_administration: float</tspan><tspan x="5" dy="10">project_management_administration: float</tspan><tspan x="5" dy="10">storm_coverage: float</tspan><tspan x="5" dy="10">submerge_land_lease_costs: float</tspan><tspan x="5" dy="10">third_party_liability: float</tspan><tspan x="5" dy="10">transmission_charges_rights: float</tspan><tspan x="5" dy="10">weather_forecasting: float</tspan><tspan x="5" dy="10">hierarchy: dict</tspan><tspan x="5" dy="10">resolution: dict</tspan></text><line x1="0" y1="237" y2="237" x2="264.28125"></line><text x="5" y="252" fill="white" class="classText"><tspan x="5">cost_category_validator(name: str, sub_name: list[str])</tspan></text></g><g id="classid-ServiceEquipment-11" class="classGroup" transform="translate(1388.87109375,0 )"><rect x="0" y="0" width="473.15625" height="298.21875" class=" "></rect><text y="15" x="0"><tspan class="title" x="194.21875">ServiceEquipment</tspan></text><line x1="0" y1="21.0625" y2="21.0625" x2="473.15625"></line><text x="5" y="31.0625" fill="white" class="classText"><tspan x="5">env: WombatEnvironment</tspan><tspan x="5" dy="10">manager: RepairManager</tspan><tspan x="5" dy="10">windfarm: Windfarm</tspan><tspan x="5" dy="10">settings: ScheduledServiceEquipmentData | UnscheduledServiceEquipmentData</tspan><tspan x="5" dy="10">at_port: bool</tspan><tspan x="5" dy="10">at_system: bool</tspan><tspan x="5" dy="10">onsite: bool</tspan><tspan x="5" dy="10">enroute: bool</tspan><tspan x="5" dy="10">transferring_crew: bool</tspan><tspan x="5" dy="10">current_system: bool</tspan></text><line x1="0" y1="127.125" y2="127.125" x2="473.15625"></line><text x="5" y="142.125" fill="white" class="classText"><tspan x="5">calculate_equipment_cost(duration: float)</tspan><tspan x="5" dy="10">calculate_hourly_cost(duration: float)</tspan><tspan x="5" dy="10">calculate_salary_cost(duration: float)</tspan><tspan x="5" dy="10">find_interrupted_weather_window(hours_required: float)</tspan><tspan x="5" dy="10">find_uninterrupted_weather_window(hours_required: float)</tspan><tspan x="5" dy="10">run_scheduled()</tspan><tspan x="5" dy="10">run_unscheduled()</tspan><tspan x="5" dy="10">mobilize()</tspan><tspan x="5" dy="10">mobilize_scheduled()</tspan><tspan x="5" dy="10">weather_delay(hours: float)</tspan><tspan x="5" dy="10">wait_until_next_shift()</tspan><tspan x="5" dy="10">wait_until_next_operational_period()</tspan><tspan x="5" dy="10">proces_repair(request: RepairRequest, time_processed: float, prior_operational_level: float)</tspan><tspan x="5" dy="10">crew_transfer(system: System, subassembly: Subassembly, requests: RepairRequest, to_system: bool)</tspan><tspan x="5" dy="10">repair(hours: float, request_details: Failure | Maintenance)</tspan><tspan x="5" dy="10">travel(start: str, end: str, set_current: str)</tspan></text></g><g id="classid-System-12" class="classGroup" transform="translate(916.0390625,348.21875 )"><rect x="0" y="0" width="200.453125" height="298.21875" class=" "></rect><text y="15" x="0"><tspan class="title" x="83.6953125">System</tspan></text><line x1="0" y1="21.0625" y2="21.0625" x2="200.453125"></line><text x="5" y="31.0625" fill="white" class="classText"><tspan x="5">env: WombatEnvironment</tspan><tspan x="5" dy="10">id: str</tspan><tspan x="5" dy="10">name: str</tspan><tspan x="5" dy="10">operating_level: float</tspan><tspan x="5" dy="10">operating_level_wo_servicing: float</tspan><tspan x="5" dy="10">power_curve: Callable</tspan><tspan x="5" dy="10">repair_manager: RepairManager</tspan><tspan x="5" dy="10">servicing: bool</tspan><tspan x="5" dy="10">value: float</tspan><tspan x="5" dy="10">cable_failure: bool</tspan><tspan x="5" dy="10">capacity: float</tspan><tspan x="5" dy="10">subassemblies: list[Subassembly]</tspan><tspan x="5" dy="10">electrical_system: Subasembly</tspan><tspan x="5" dy="10">electronic_control: Subasembly</tspan><tspan x="5" dy="10">gearbox: Subasembly</tspan><tspan x="5" dy="10">generator: Subasembly</tspan><tspan x="5" dy="10">hydraulic_system: Subasembly</tspan><tspan x="5" dy="10">mechanical_brake: Subasembly</tspan><tspan x="5" dy="10">rotor_blades: Subasembly</tspan><tspan x="5" dy="10">rotor_hub: Subasembly</tspan><tspan x="5" dy="10">sensors: Subasembly</tspan><tspan x="5" dy="10">supporting_structure: Subasembly</tspan><tspan x="5" dy="10">yaw_system: Subasembly</tspan><tspan x="5" dy="10">transformer: Subasembly</tspan></text><line x1="0" y1="267.125" y2="267.125" x2="200.453125"></line><text x="5" y="282.125" fill="white" class="classText"><tspan x="5">power(windspeed: float | numpy.ndaray)</tspan><tspan x="5" dy="10">interrupt_all_subassembly_processes()</tspan></text></g><g id="classid-Subassembly-13" class="classGroup" transform="translate(613.4921875,418.21875 )"><rect x="0" y="0" width="252.546875" height="158.21875" class=" "></rect><text y="15" x="0"><tspan class="title" x="96.6640625">Subassembly</tspan></text><line x1="0" y1="21.0625" y2="21.0625" x2="252.546875"></line><text x="5" y="31.0625" fill="white" class="classText"><tspan x="5">id: str</tspan><tspan x="5" dy="10">name: str</tspan><tspan x="5" dy="10">env: WombatEnvironment</tspan><tspan x="5" dy="10">data: SubassemblyData</tspan><tspan x="5" dy="10">broken: bool</tspan><tspan x="5" dy="10">operating_level: float</tspan><tspan x="5" dy="10">turbine: System</tspan><tspan x="5" dy="10">processes: dict</tspan></text><line x1="0" y1="107.125" y2="107.125" x2="252.546875"></line><text x="5" y="122.125" fill="white" class="classText"><tspan x="5">run_single_failure(failure: Failure)</tspan><tspan x="5" dy="10">run_single_maintenance(maintenance: Maintenance)</tspan><tspan x="5" dy="10">interrupt_processes()</tspan><tspan x="5" dy="10">interrupt_all_subassembly_processes()</tspan></text></g><g id="classid-Cable-14" class="classGroup" transform="translate(1166.4921875,378.25 )"><rect x="0" y="0" width="252.546875" height="238.15625" class=" "></rect><text y="15" x="0"><tspan class="title" x="113.2890625">Cable</tspan></text><line x1="0" y1="21" y2="21" x2="252.546875"></line><text x="5" y="31" fill="white" class="classText"><tspan x="5">id: str</tspan><tspan x="5" dy="10">name: str</tspan><tspan x="5" dy="10">env: WombatEnvironment</tspan><tspan x="5" dy="10">data: SubassemblyData</tspan><tspan x="5" dy="10">broken: bool</tspan><tspan x="5" dy="10">servicing: bool</tspan><tspan x="5" dy="10">downstream_failure: bool</tspan><tspan x="5" dy="10">processes: dict</tspan><tspan x="5" dy="10">operating_level: float</tspan><tspan x="5" dy="10">operating_level_wo_servicing: float</tspan><tspan x="5" dy="10">repair_manager: RepairManager</tspan><tspan x="5" dy="10">servicing: bool</tspan><tspan x="5" dy="10">value: float</tspan><tspan x="5" dy="10">cable_failure: bool</tspan><tspan x="5" dy="10">capacity: float</tspan></text><line x1="0" y1="177.0625" y2="177.0625" x2="252.546875"></line><text x="5" y="192.0625" fill="white" class="classText"><tspan x="5">run_single_failure(failure: Failure)</tspan><tspan x="5" dy="10">run_single_maintenance(maintenance: Maintenance)</tspan><tspan x="5" dy="10">interrupt_processes()</tspan><tspan x="5" dy="10">interrupt_all_subassembly_processes()</tspan><tspan x="5" dy="10">stop_all_upstream_processes()</tspan></text></g><g id="classid-Port-15" class="classGroup" transform="translate(239,751.46875 )"><rect x="0" y="0" width="433.421875" height="188.15625" class=" "></rect><text y="15" x="0"><tspan class="title" x="206.828125">Port</tspan></text><line x1="0" y1="21" y2="21" x2="433.421875"></line><text x="5" y="31" fill="white" class="classText"><tspan x="5">env: WombatEnvironment</tspan><tspan x="5" dy="10">manager: RepairManager</tspan><tspan x="5" dy="10">windfarm: Windfarm</tspan><tspan x="5" dy="10">settings: PortConfig</tspan><tspan x="5" dy="10">turbine_manager: simpy.Resource</tspan><tspan x="5" dy="10">crew_manager: simpy.Resource</tspan><tspan x="5" dy="10">tugboat_manager: simpy.Resource</tspan><tspan x="5" dy="10">active_repairs: dict[str, dict[str, simpy.events.Event]]</tspan></text><line x1="0" y1="107.0625" y2="107.0625" x2="433.421875"></line><text x="5" y="122.0625" fill="white" class="classText"><tspan x="5">wait_until_next_shift()</tspan><tspan x="5" dy="10">proces_repair(request: RepairRequest, time_processed: float, prior_operational_level: float)</tspan><tspan x="5" dy="10">repair_single(request: RepairRequest)</tspan><tspan x="5" dy="10">transfer_requests_from_manager(system_id: str)</tspan><tspan x="5" dy="10">run_repairs(system_id: str)</tspan><tspan x="5" dy="10">run_tow_to_port(request: RepairRequest)</tspan><tspan x="5" dy="10">run_unscheduled_in_situ(request: RepairRequest)</tspan></text></g><path d="M1452.0874641731357,994.65625L1450.319631602613,998.8229166666666C1448.5517990320905,1002.9895833333334,1445.016133891045,1011.3229166666666,1443.2483013205226,1035.2421875C1441.48046875,1059.1614583333333,1441.48046875,1098.6666666666667,1441.48046875,1118.4192708333333L1441.48046875,1138.171875" id="edge0" class="relation dashed-line" marker-start="url(#dependencyStart)"></path><path d="M1654.7537025767297,986.078125L1651.5362886056082,991.6744791666666C1648.3188746344865,997.2708333333334,1641.8840466922431,1008.4635416666666,1613.7950607437406,1033.8125C1585.706074795238,1059.1614583333333,1535.9629308404758,1098.6666666666667,1511.0913588630947,1118.4192708333333L1486.2197868857136,1138.171875" id="edge1" class="relation dashed-line" marker-start="url(#dependencyStart)"></path><path d="M1603.8802352093242,531.4375L1589.1254564244366,554.7708333333334C1574.3706776395495,578.1041666666666,1544.8611200697749,624.7708333333334,1530.1063412848873,652.2708333333334C1515.3515625,679.7708333333334,1515.3515625,688.1041666666666,1515.3515625,692.2708333333334L1515.3515625,696.4375" id="edge2" class="relation dashed-line" marker-start="url(#dependencyStart)"></path><path d="M1647.0182022906758,531.4375L1661.7729810755634,554.7708333333334C1676.5277598604505,578.1041666666666,1706.0373174302251,624.7708333333334,1720.7920962151127,653.7005208333334C1735.546875,682.6302083333334,1735.546875,693.8229166666666,1735.546875,699.4192708333334L1735.546875,705.015625" id="edge3" class="relation dashed-line" marker-start="url(#dependencyStart)"></path><path d="M839.125,1302.75L839.125,1306.9166666666667C839.125,1311.0833333333333,839.125,1319.4166666666667,824.931640625,1328.5912846808194C810.73828125,1337.765902694972,782.3515625,1347.781805389944,768.158203125,1352.78975673743L753.96484375,1357.7977080849162" id="edge4" class="relation" marker-start="url(#compositionStart)"></path><path d="M76.0078125,1257.78125L76.0078125,1269.4427083333333C76.0078125,1281.1041666666667,76.0078125,1304.4270833333333,171.52408854166666,1323.501513713039C267.0403645833333,1342.5759440927447,458.0729166666667,1357.4018881854893,553.5891927083334,1364.8148602318618L649.10546875,1372.227832278234" id="edge5" class="relation" marker-start="url(#compositionStart)"></path><path d="M574.140625,1232.78125L574.140625,1248.609375C574.140625,1264.4375,574.140625,1296.09375,586.634765625,1316.6830800313526C599.12890625,1337.272410062705,624.1171875,1346.79482012541,636.611328125,1351.5560251567626L649.10546875,1356.3172301881152" id="edge6" class="relation" marker-start="url(#compositionStart)"></path><path d="M333.78125,178.66910901472113L272.3177083333333,202.7607158456009C210.85416666666666,226.85232267648075,87.92708333333333,275.0355363382404,26.463541666666668,328.1453723357868C-35,381.2552083333333,-35,439.2916666666667,-35,497.328125C-35,555.3645833333334,-35,613.4010416666666,-35,671.4375C-35,729.4739583333334,-35,787.5104166666666,-35,845.546875C-35,903.5833333333334,-35,961.6197916666666,-35,1016.3125C-35,1071.0052083333333,-35,1122.3541666666667,-35,1173.703125C-35,1225.0520833333333,-35,1276.4010416666667,79.017578125,1309.5907046858176C193.03515625,1342.780367704969,421.0703125,1357.8107354099377,535.087890625,1365.325919262422L649.10546875,1372.8411031149067" id="edge7" class="relation" marker-start="url(#compositionStart)"></path><path d="M1441.48046875,1209.234375L1441.48046875,1228.9869791666667C1441.48046875,1248.7395833333333,1441.48046875,1288.2447916666667,1326.89453125,1315.5152340986717C1212.30859375,1342.785676530677,983.13671875,1357.8213530613536,868.55078125,1365.3391913266921L753.96484375,1372.8570295920306" id="edge8" class="relation" marker-start="url(#compositionStart)"></path><path d="M1597.671875,988.734425L1600.634765625,993.8880625C1603.59765625,999.0417000000001,1609.5234375,1009.348975,1612.486328125,1040.1770916666667C1615.44921875,1071.0052083333333,1615.44921875,1122.3541666666667,1615.44921875,1173.703125C1615.44921875,1225.0520833333333,1615.44921875,1276.4010416666667,1471.8684895833333,1309.7024914613983C1328.2877604166667,1343.00394125613,1041.1263020833333,1358.2578825122598,897.5455729166666,1365.8848531403248L753.96484375,1373.5118237683898" id="edge9" class="relation" marker-start="url(#compositionStart)"></path><path d="M1743.6183099816028,986.078125L1743.9397374846692,991.6744791666666C1744.2611649877351,997.2708333333334,1744.9040199938675,1008.4635416666666,1745.2254474969338,1039.734375C1745.546875,1071.0052083333333,1745.546875,1122.3541666666667,1745.546875,1173.703125C1745.546875,1225.0520833333333,1745.546875,1276.4010416666667,1580.283203125,1309.7603338258184C1415.01953125,1343.11962598497,1084.4921875,1358.4892519699401,919.228515625,1366.1740649624253L753.96484375,1373.8588779549102" id="edge10" class="relation" marker-start="url(#compositionStart)"></path><path d="M334.6875,1234.234375L334.6875,1249.8203125C334.6875,1265.40625,334.6875,1296.578125,387.0904947916667,1319.0988257305519C439.4934895833333,1341.619526461104,544.2994791666666,1355.4890529222082,596.7024739583334,1362.42381615276L649.10546875,1369.3585793833122" id="edge11" class="relation" marker-start="url(#compositionStart)"></path><path d="M1022.1805491676389,881.109375L1019.5280618063657,904.2005208333334C1016.8755744450926,927.2916666666666,1011.5705997225463,973.4739583333334,1008.9181123612731,1022.2395833333334C1006.265625,1071.0052083333333,1006.265625,1122.3541666666667,1006.265625,1173.703125C1006.265625,1225.0520833333333,1006.265625,1276.4010416666667,964.2154947916666,1308.7745635097401C922.1653645833334,1341.1480853528135,838.0651041666666,1354.546170705627,796.0149739583334,1361.2452133820336L753.96484375,1367.9442560584405" id="edge12" class="relation" marker-start="url(#compositionStart)"></path><path d="M455.7109375,939.625L455.7109375,952.9635416666666C455.7109375,966.3020833333334,455.7109375,992.9791666666666,443.466198793615,1021.9036458333334C431.2214600872299,1050.828125,406.73198267445986,1082,394.48724396807484,1097.5859375L382.2425052616898,1113.171875" id="edge13" class="relation" marker-start="url(#compositionStart)"></path><path d="M1625.44921875,298.21875L1625.44921875,302.3854166666667C1625.44921875,306.5520833333333,1625.44921875,314.8854166666667,1625.44921875,342.3854166666667C1625.44921875,369.8854166666667,1625.44921875,416.5520833333333,1625.44921875,439.8854166666667L1625.44921875,463.21875" id="edge14" class="relation" marker-start="url(#compositionStart)"></path><path d="M333.78125,188.51750191978522L290.8190104166667,210.96770993315434C247.85677083333334,233.4179179465235,161.93229166666666,278.31833397326176,118.97005208333333,329.78677115329754C76.0078125,381.2552083333333,76.0078125,439.2916666666667,76.0078125,497.328125C76.0078125,555.3645833333334,76.0078125,613.4010416666666,76.0078125,671.4375C76.0078125,729.4739583333334,76.0078125,787.5104166666666,76.0078125,845.546875C76.0078125,903.5833333333334,76.0078125,961.6197916666666,76.0078125,1002.2994791666666C76.0078125,1042.9791666666667,76.0078125,1066.3020833333333,76.0078125,1077.9635416666667L76.0078125,1089.625" id="edge15" class="relation dashed-line" marker-start="url(#dependencyStart)"></path><path d="M333.78125,213.0986305444508L312.1510416666667,231.45198378704234C290.5208333333333,249.80533702963385,247.26041666666666,286.5120435148169,225.63020833333334,333.88362592407515C204,381.2552083333333,204,439.2916666666667,204,497.328125C204,555.3645833333334,204,613.4010416666666,204,671.4375C204,729.4739583333334,204,787.5104166666666,204,845.546875C204,903.5833333333334,204,961.6197916666666,254.0546875,1011.470017290022C304.109375,1061.3202429133773,404.21875,1102.984235826755,454.2734375,1123.8162322834437L504.328125,1144.6482287401325" id="edge16" class="relation dashed-line" marker-start="url(#dependencyStart)"></path><path d="M484.609375,188.82950349183466L527.1354166666666,211.22771124319556C569.6614583333334,233.62591899455643,654.7135416666666,278.4223344972782,697.2395833333334,316.65387558197244C739.765625,354.8854166666667,739.765625,386.5520833333333,739.765625,402.3854166666667L739.765625,418.21875" id="edge17" class="relation" marker-start="url(#dependencyStart)"></path><path d="M484.609375,170.73832805160544L573.21875,196.15173170967122C661.828125,221.56513536773696,839.046875,272.3919426838685,927.65625,301.9720130086009C1016.265625,331.5520833333333,1016.265625,339.8854166666667,1016.265625,344.0520833333333L1016.265625,348.21875" id="edge18" class="relation" marker-start="url(#dependencyStart)"></path><path d="M484.609375,163.96987348249732L619.3020833333334,190.5113529020811C753.9947916666666,217.05283232166485,1023.3802083333334,270.1357911608324,1158.0729166666667,305.84914558041623C1292.765625,341.5625,1292.765625,359.90625,1292.765625,369.078125L1292.765625,378.25" id="edge19" class="relation" marker-start="url(#dependencyStart)"></path><path d="M1039.7423859149242,881.109375L1048.4930038874368,904.2005208333334C1057.2436218599494,927.2916666666666,1074.7448578049746,973.4739583333334,926.7903976524873,1020.3193043647683C778.8359375,1067.1646503962031,465.42578125,1114.673050792406,308.720703125,1138.4272509905077L152.015625,1162.1814511886091" id="edge20" class="relation dashed-line" marker-start="url(#extensionStart)"></path><path d="M1104.6129114129947,881.109375L1155.484717844162,904.2005208333334C1206.3565242753298,927.2916666666666,1308.100137137665,973.4739583333334,1231.3235060688323,1020.094803060048C1154.546875,1066.7156477867627,899.25,1113.7750455735252,771.6015625,1137.3047444669066L643.953125,1160.8344433602879" id="edge21" class="relation dashed-line" marker-start="url(#extensionStart)"></path><path d="M1292.765625,616.40625L1292.765625,625.578125C1292.765625,634.75,1292.765625,653.09375,1257.4212309110353,685.3567708333334C1222.0768368220706,717.6197916666666,1151.3880486441415,763.8020833333334,1116.0436545551768,786.8932291666666L1080.699260466212,809.984375" id="edge22" class="relation dashed-line" marker-start="url(#extensionStart)"></path><path d="M739.765625,576.4375L739.765625,592.2708333333334C739.765625,608.1041666666666,739.765625,639.7708333333334,777.7625064502378,678.6953125C815.7593879004756,717.6197916666666,891.7531508009512,763.8020833333334,929.750032251189,786.8932291666666L967.7469137014269,809.984375" id="edge23" class="relation dashed-line" marker-start="url(#extensionStart)"></path></svg>
