<svg id="mermaid-1646771169784" width="100%" xmlns="http://www.w3.org/2000/svg" xmlns:xlink="http://www.w3.org/1999/xlink" height="1510.84375" style="max-width: 2227.41796875px;" viewBox="-20 -20 2227.41796875 1510.84375"><style>#mermaid-1646771169784{font-family:"trebuchet ms",verdana,arial,sans-serif;font-size:16px;fill:#333;}#mermaid-1646771169784 .error-icon{fill:hsl(220.5882352941,100%,98.3333333333%);}#mermaid-1646771169784 .error-text{fill:rgb(4.2500000001,4.2500000001,4.2500000001);stroke:rgb(4.2500000001,4.2500000001,4.2500000001);}#mermaid-1646771169784 .edge-thickness-normal{stroke-width:2px;}#mermaid-1646771169784 .edge-thickness-thick{stroke-width:3.5px;}#mermaid-1646771169784 .edge-pattern-solid{stroke-dasharray:0;}#mermaid-1646771169784 .edge-pattern-dashed{stroke-dasharray:3;}#mermaid-1646771169784 .edge-pattern-dotted{stroke-dasharray:2;}#mermaid-1646771169784 .marker{fill:#0b0b0b;stroke:#0b0b0b;}#mermaid-1646771169784 .marker.cross{stroke:#0b0b0b;}#mermaid-1646771169784 svg{font-family:"trebuchet ms",verdana,arial,sans-serif;font-size:16px;}#mermaid-1646771169784 g.classGroup text{fill:hsl(40.5882352941,60%,83.3333333333%);fill:#333;stroke:none;font-family:"trebuchet ms",verdana,arial,sans-serif;font-size:10px;}#mermaid-1646771169784 g.classGroup text .title{font-weight:bolder;}#mermaid-1646771169784 .classTitle{font-weight:bolder;}#mermaid-1646771169784 .node rect,#mermaid-1646771169784 .node circle,#mermaid-1646771169784 .node ellipse,#mermaid-1646771169784 .node polygon,#mermaid-1646771169784 .node path{fill:#fff4dd;stroke:hsl(40.5882352941,60%,83.3333333333%);stroke-width:1px;}#mermaid-1646771169784 .divider{stroke:hsl(40.5882352941,60%,83.3333333333%);stroke:1;}#mermaid-1646771169784 g.clickable{cursor:pointer;}#mermaid-1646771169784 g.classGroup rect{fill:#fff4dd;stroke:hsl(40.5882352941,60%,83.3333333333%);}#mermaid-1646771169784 g.classGroup line{stroke:hsl(40.5882352941,60%,83.3333333333%);stroke-width:1;}#mermaid-1646771169784 .classLabel .box{stroke:none;stroke-width:0;fill:#fff4dd;opacity:0.5;}#mermaid-1646771169784 .classLabel .label{fill:hsl(40.5882352941,60%,83.3333333333%);font-size:10px;}#mermaid-1646771169784 .relation{stroke:#0b0b0b;stroke-width:1;fill:none;}#mermaid-1646771169784 .dashed-line{stroke-dasharray:3;}#mermaid-1646771169784 #compositionStart,#mermaid-1646771169784 .composition{fill:#0b0b0b !important;stroke:#0b0b0b !important;stroke-width:1;}#mermaid-1646771169784 #compositionEnd,#mermaid-1646771169784 .composition{fill:#0b0b0b !important;stroke:#0b0b0b !important;stroke-width:1;}#mermaid-1646771169784 #dependencyStart,#mermaid-1646771169784 .dependency{fill:#0b0b0b !important;stroke:#0b0b0b !important;stroke-width:1;}#mermaid-1646771169784 #dependencyStart,#mermaid-1646771169784 .dependency{fill:#0b0b0b !important;stroke:#0b0b0b !important;stroke-width:1;}#mermaid-1646771169784 #extensionStart,#mermaid-1646771169784 .extension{fill:#0b0b0b !important;stroke:#0b0b0b !important;stroke-width:1;}#mermaid-1646771169784 #extensionEnd,#mermaid-1646771169784 .extension{fill:#0b0b0b !important;stroke:#0b0b0b !important;stroke-width:1;}#mermaid-1646771169784 #aggregationStart,#mermaid-1646771169784 .aggregation{fill:#fff4dd !important;stroke:#0b0b0b !important;stroke-width:1;}#mermaid-1646771169784 #aggregationEnd,#mermaid-1646771169784 .aggregation{fill:#fff4dd !important;stroke:#0b0b0b !important;stroke-width:1;}#mermaid-1646771169784 .edgeTerminals{font-size:11px;}#mermaid-1646771169784:root{--mermaid-font-family:"trebuchet ms",verdana,arial,sans-serif;}</style><g></g><defs><marker id="extensionStart" class="extension" refX="0" refY="7" markerWidth="190" markerHeight="240" orient="auto"><path d="M 1,7 L18,13 V 1 Z"></path></marker></defs><defs><marker id="extensionEnd" refX="19" refY="7" markerWidth="20" markerHeight="28" orient="auto"><path d="M 1,1 V 13 L18,7 Z"></path></marker></defs><defs><marker id="compositionStart" class="extension" refX="0" refY="7" markerWidth="190" markerHeight="240" orient="auto"><path d="M 18,7 L9,13 L1,7 L9,1 Z"></path></marker></defs><defs><marker id="compositionEnd" refX="19" refY="7" markerWidth="20" markerHeight="28" orient="auto"><path d="M 18,7 L9,13 L1,7 L9,1 Z"></path></marker></defs><defs><marker id="aggregationStart" class="extension" refX="0" refY="7" markerWidth="190" markerHeight="240" orient="auto"><path d="M 18,7 L9,13 L1,7 L9,1 Z"></path></marker></defs><defs><marker id="aggregationEnd" refX="19" refY="7" markerWidth="20" markerHeight="28" orient="auto"><path d="M 18,7 L9,13 L1,7 L9,1 Z"></path></marker></defs><defs><marker id="dependencyStart" class="extension" refX="0" refY="7" markerWidth="190" markerHeight="240" orient="auto"><path d="M 5,7 L9,13 L1,7 L9,1 Z"></path></marker></defs><defs><marker id="dependencyEnd" refX="19" refY="7" markerWidth="20" markerHeight="28" orient="auto"><path d="M 18,7 L9,13 L14,7 L9,1 Z"></path></marker></defs><g id="classid-ServiceEquipment-0" class="classGroup" transform="translate(1714.26171875,1172.625 )"><rect x="0" y="0" width="473.15625" height="298.21875" class=" "></rect><text y="15" x="0"><tspan class="title" x="194.21875">ServiceEquipment</tspan></text><line x1="0" y1="21.0625" y2="21.0625" x2="473.15625"></line><text x="5" y="31.0625" fill="white" class="classText"><tspan x="5">env: WombatEnvironment</tspan><tspan x="5" dy="10">manager: RepairManager</tspan><tspan x="5" dy="10">windfarm: Windfarm</tspan><tspan x="5" dy="10">settings: ScheduledServiceEquipmentData | UnscheduledServiceEquipmentData</tspan><tspan x="5" dy="10">at_port: bool</tspan><tspan x="5" dy="10">at_system: bool</tspan><tspan x="5" dy="10">onsite: bool</tspan><tspan x="5" dy="10">enroute: bool</tspan><tspan x="5" dy="10">transferring_crew: bool</tspan><tspan x="5" dy="10">current_system: bool</tspan></text><line x1="0" y1="127.125" y2="127.125" x2="473.15625"></line><text x="5" y="142.125" fill="white" class="classText"><tspan x="5">calculate_equipment_cost(duration: float)</tspan><tspan x="5" dy="10">calculate_hourly_cost(duration: float)</tspan><tspan x="5" dy="10">calculate_salary_cost(duration: float)</tspan><tspan x="5" dy="10">find_interrupted_weather_window(hours_required: float)</tspan><tspan x="5" dy="10">find_uninterrupted_weather_window(hours_required: float)</tspan><tspan x="5" dy="10">run_scheduled()</tspan><tspan x="5" dy="10">run_unscheduled()</tspan><tspan x="5" dy="10">mobilize()</tspan><tspan x="5" dy="10">mobilize_scheduled()</tspan><tspan x="5" dy="10">weather_delay(hours: float)</tspan><tspan x="5" dy="10">wait_until_next_shift()</tspan><tspan x="5" dy="10">wait_until_next_operational_period()</tspan><tspan x="5" dy="10">proces_repair(request: RepairRequest, time_processed: float, prior_operational_level: float)</tspan><tspan x="5" dy="10">crew_transfer(system: System, subassembly: Subassembly, requests: RepairRequest, to_system: bool)</tspan><tspan x="5" dy="10">repair(hours: float, request_details: Failure | Maintenance)</tspan><tspan x="5" dy="10">travel(start: str, end: str, set_current: str)</tspan></text></g><g id="classid-Windfarm-1" class="classGroup" transform="translate(1030.59375,586.25 )"><rect x="0" y="0" width="193.53125" height="188.15625" class=" "></rect><text y="15" x="0"><tspan class="title" x="74.0546875">Windfarm</tspan></text><line x1="0" y1="21" y2="21" x2="193.53125"></line><text x="5" y="31" fill="white" class="classText"><tspan x="5">env: WombatEnvironment</tspan><tspan x="5" dy="10">windfarm_layout: str</tspan><tspan x="5" dy="10">repair_manager: RepairManager</tspan><tspan x="5" dy="10">capacity: float</tspan><tspan x="5" dy="10">graph: networkx.DiGraph</tspan><tspan x="5" dy="10">system_list: list[str]</tspan><tspan x="5" dy="10">substation_id: list[str]</tspan><tspan x="5" dy="10">turbine_id: list[str]</tspan><tspan x="5" dy="10">distance_matrix: numpy.ndarray</tspan><tspan x="5" dy="10">current_availability: float</tspan><tspan x="5" dy="10">current_availability_wo_servicing: float</tspan></text><line x1="0" y1="137.0625" y2="137.0625" x2="193.53125"></line><text x="5" y="152.0625" fill="white" class="classText"><tspan x="5">calculate_distance_matrix()</tspan><tspan x="5" dy="10">_log_operations()</tspan><tspan x="5" dy="10">system(system_id: str) : System</tspan><tspan x="5" dy="10">cable(cable_id: str | tuple) : Cable</tspan></text></g><g id="classid-System-2" class="classGroup" transform="translate(1260.15625,824.40625 )"><rect x="0" y="0" width="200.453125" height="298.21875" class=" "></rect><text y="15" x="0"><tspan class="title" x="83.6953125">System</tspan></text><line x1="0" y1="21.0625" y2="21.0625" x2="200.453125"></line><text x="5" y="31.0625" fill="white" class="classText"><tspan x="5">env: WombatEnvironment</tspan><tspan x="5" dy="10">id: str</tspan><tspan x="5" dy="10">name: str</tspan><tspan x="5" dy="10">operating_level: float</tspan><tspan x="5" dy="10">operating_level_wo_servicing: float</tspan><tspan x="5" dy="10">power_curve: Callable</tspan><tspan x="5" dy="10">repair_manager: RepairManager</tspan><tspan x="5" dy="10">servicing: bool</tspan><tspan x="5" dy="10">value: float</tspan><tspan x="5" dy="10">cable_failure: bool</tspan><tspan x="5" dy="10">capacity: float</tspan><tspan x="5" dy="10">subassemblies: list[Subassembly]</tspan><tspan x="5" dy="10">electrical_system: Subasembly</tspan><tspan x="5" dy="10">electronic_control: Subasembly</tspan><tspan x="5" dy="10">gearbox: Subasembly</tspan><tspan x="5" dy="10">generator: Subasembly</tspan><tspan x="5" dy="10">hydraulic_system: Subasembly</tspan><tspan x="5" dy="10">mechanical_brake: Subasembly</tspan><tspan x="5" dy="10">rotor_blades: Subasembly</tspan><tspan x="5" dy="10">rotor_hub: Subasembly</tspan><tspan x="5" dy="10">sensors: Subasembly</tspan><tspan x="5" dy="10">supporting_structure: Subasembly</tspan><tspan x="5" dy="10">yaw_system: Subasembly</tspan><tspan x="5" dy="10">transformer: Subasembly</tspan></text><line x1="0" y1="267.125" y2="267.125" x2="200.453125"></line><text x="5" y="282.125" fill="white" class="classText"><tspan x="5">power(windspeed: float | numpy.ndaray)</tspan><tspan x="5" dy="10">interrupt_all_subassembly_processes()</tspan></text></g><g id="classid-Subassembly-3" class="classGroup" transform="translate(1277.5859375,1242.625 )"><rect x="0" y="0" width="252.546875" height="158.21875" class=" "></rect><text y="15" x="0"><tspan class="title" x="96.6640625">Subassembly</tspan></text><line x1="0" y1="21.0625" y2="21.0625" x2="252.546875"></line><text x="5" y="31.0625" fill="white" class="classText"><tspan x="5">id: str</tspan><tspan x="5" dy="10">name: str</tspan><tspan x="5" dy="10">env: WombatEnvironment</tspan><tspan x="5" dy="10">data: SubassemblyData</tspan><tspan x="5" dy="10">broken: bool</tspan><tspan x="5" dy="10">operating_level: float</tspan><tspan x="5" dy="10">turbine: System</tspan><tspan x="5" dy="10">processes: dict</tspan></text><line x1="0" y1="107.125" y2="107.125" x2="252.546875"></line><text x="5" y="122.125" fill="white" class="classText"><tspan x="5">run_single_failure(failure: Failure)</tspan><tspan x="5" dy="10">run_single_maintenance(maintenance: Maintenance)</tspan><tspan x="5" dy="10">interrupt_processes()</tspan><tspan x="5" dy="10">interrupt_all_subassembly_processes()</tspan></text></g><g id="classid-Cable-4" class="classGroup" transform="translate(957.609375,854.4375 )"><rect x="0" y="0" width="252.546875" height="238.15625" class=" "></rect><text y="15" x="0"><tspan class="title" x="113.2890625">Cable</tspan></text><line x1="0" y1="21" y2="21" x2="252.546875"></line><text x="5" y="31" fill="white" class="classText"><tspan x="5">id: str</tspan><tspan x="5" dy="10">name: str</tspan><tspan x="5" dy="10">env: WombatEnvironment</tspan><tspan x="5" dy="10">data: SubassemblyData</tspan><tspan x="5" dy="10">broken: bool</tspan><tspan x="5" dy="10">servicing: bool</tspan><tspan x="5" dy="10">downstream_failure: bool</tspan><tspan x="5" dy="10">processes: dict</tspan><tspan x="5" dy="10">operating_level: float</tspan><tspan x="5" dy="10">operating_level_wo_servicing: float</tspan><tspan x="5" dy="10">repair_manager: RepairManager</tspan><tspan x="5" dy="10">servicing: bool</tspan><tspan x="5" dy="10">value: float</tspan><tspan x="5" dy="10">cable_failure: bool</tspan><tspan x="5" dy="10">capacity: float</tspan></text><line x1="0" y1="177.0625" y2="177.0625" x2="252.546875"></line><text x="5" y="192.0625" fill="white" class="classText"><tspan x="5">run_single_failure(failure: Failure)</tspan><tspan x="5" dy="10">run_single_maintenance(maintenance: Maintenance)</tspan><tspan x="5" dy="10">interrupt_processes()</tspan><tspan x="5" dy="10">interrupt_all_subassembly_processes()</tspan><tspan x="5" dy="10">stop_all_upstream_processes()</tspan></text></g><g id="classid-RepairManager-5" class="classGroup" transform="translate(1641.4375,298.0625 )"><rect x="0" y="0" width="404.578125" height="128.21875" class=" "></rect><text y="15" x="0"><tspan class="title" x="167.6328125">RepairManager</tspan></text><line x1="0" y1="21.0625" y2="21.0625" x2="404.578125"></line><text x="5" y="31.0625" fill="white" class="classText"><tspan x="5">env: WombatEnvironment</tspan><tspan x="5" dy="10">windfarm: Windfarm</tspan><tspan x="5" dy="10">downtime_based_equipment: StrategyMap</tspan><tspan x="5" dy="10">request_based_equipment: StrategyMap</tspan><tspan x="5" dy="10">request_map: dict[str, int]</tspan></text><line x1="0" y1="77.125" y2="77.125" x2="404.578125"></line><text x="5" y="92.125" fill="white" class="classText"><tspan x="5">submit_request(request: RepairRequest) : RepairREquest</tspan><tspan x="5" dy="10">purge_subassembly_requests(system_id: str, subassembly_id: str, exclude: list[str])</tspan><tspan x="5" dy="10">get_next_highest_severity_request(equipment_capability: list[str], severity_level: int)</tspan><tspan x="5" dy="10">get_request_by_system(equipment_capability: list[str], system_id: str)</tspan></text></g><g id="classid-RepairRequest-6" class="classGroup" transform="translate(1463.671875,611.21875 )"><rect x="0" y="0" width="150.828125" height="138.21875" class=" "></rect><text y="15" x="0"><tspan class="title" x="41.46875">RepairRequest</tspan></text><line x1="0" y1="21.0625" y2="21.0625" x2="150.828125"></line><text x="5" y="31.0625" fill="white" class="classText"><tspan x="5">cable: bool</tspan><tspan x="5" dy="10">details: Failure | Maintenance</tspan><tspan x="5" dy="10">request_id: str</tspan><tspan x="5" dy="10">severity_level: int</tspan><tspan x="5" dy="10">subassembly_id: str</tspan><tspan x="5" dy="10">subassembly_name: str</tspan><tspan x="5" dy="10">system_id: str</tspan><tspan x="5" dy="10">system_name: str</tspan><tspan x="5" dy="10">upstream_turbines: list[str]</tspan></text><line x1="0" y1="117.125" y2="117.125" x2="150.828125"></line><text x="5" y="132.125" fill="white" class="classText"><tspan x="5">assign_id(request_id: str)</tspan></text></g><g id="classid-StrategyMap-7" class="classGroup" transform="translate(1664.5,616.21875 )"><rect x="0" y="0" width="358.453125" height="128.21875" class=" "></rect><text y="15" x="0"><tspan class="title" x="150.546875">StrategyMap</tspan></text><line x1="0" y1="21.0625" y2="21.0625" x2="358.453125"></line><text x="5" y="31.0625" fill="white" class="classText"><tspan x="5">CTV: list[EquipmentMap]</tspan><tspan x="5" dy="10">LCN: list[EquipmentMap]</tspan><tspan x="5" dy="10">SCN: list[EquipmentMap]</tspan><tspan x="5" dy="10">CAB: list[EquipmentMap]</tspan><tspan x="5" dy="10">DSV: list[EquipmentMap]</tspan><tspan x="5" dy="10">DRN: list[EquipmentMap]</tspan><tspan x="5" dy="10">RMT: list[EquipmentMap]</tspan><tspan x="5" dy="10">is_running: bool</tspan></text><line x1="0" y1="107.125" y2="107.125" x2="358.453125"></line><text x="5" y="122.125" fill="white" class="classText"><tspan x="5">update(capability: str, threshold: float | int, equipment: ServiceEquipment)</tspan></text></g><g id="classid-EquipmentMap-8" class="classGroup" transform="translate(1756.5,947.953125 )"><rect x="0" y="0" width="174.453125" height="51.125" class=" "></rect><text y="15" x="0"><tspan class="title" x="52.6953125">EquipmentMap</tspan></text><line x1="0" y1="21.0625" y2="21.0625" x2="174.453125"></line><text x="5" y="31.0625" fill="white" class="classText"><tspan x="5">equipment_map: ServiceEquipment</tspan><tspan x="5" dy="10">strategy_threshold: int | float</tspan></text><line x1="0" y1="47.125" y2="47.125" x2="174.453125"></line><text x="5" y="62.125" fill="white" class="classText"></text></g><g id="classid-WombatEnvironment-9" class="classGroup" transform="translate(596.65625,218.09375 )"><rect x="0" y="0" width="495.703125" height="288.15625" class=" "></rect><text y="15" x="0"><tspan class="title" x="198.8046875">WombatEnvironment</tspan></text><line x1="0" y1="21" y2="21" x2="495.703125"></line><text x="5" y="31" fill="white" class="classText"><tspan x="5">data_dir: pathlib.Path</tspan><tspan x="5" dy="10">weather_file: str</tspan><tspan x="5" dy="10">workday_end: int</tspan><tspan x="5" dy="10">workday_end: int</tspan><tspan x="5" dy="10">simulation_name: str</tspan><tspan x="5" dy="10">start_year: int</tspan><tspan x="5" dy="10">end_year: int</tspan><tspan x="5" dy="10">weather: pandas.DataFrame</tspan><tspan x="5" dy="10">max_run_time: int</tspan><tspan x="5" dy="10">shift_length: int</tspan><tspan x="5" dy="10">weather_now: tuple[float, float]</tspan><tspan x="5" dy="10">simulation_time: datetime.datetime</tspan><tspan x="5" dy="10">current_time: datetime.datetime</tspan><tspan x="5" dy="10">events_log_fname: str</tspan><tspan x="5" dy="10">operations_log_fname: str</tspan><tspan x="5" dy="10">power_potential_fname: str</tspan><tspan x="5" dy="10">power_production_fname: str</tspan></text><line x1="0" y1="197.0625" y2="197.0625" x2="495.703125"></line><text x="5" y="212.0625" fill="white" class="classText"><tspan x="5">run(until: int | float)</tspan><tspan x="5" dy="10">hour_in_shift(hour: int, workday_start: int, workday_end: int) : bool</tspan><tspan x="5" dy="10">hours_to_next_shift(workday_start: int) : float</tspan><tspan x="5" dy="10">date_ix(date: datetime.datetime) int)</tspan><tspan x="5" dy="10">weather_forecast(hours: int | float)</tspan><tspan x="5" dy="10">convert_logs_to_csv(delete_original: bool, return_df: True)</tspan><tspan x="5" dy="10">power_production_potential_to_csv(windfarm: Windfarm, operations: pandas.DataFrame, return_df: bool)</tspan><tspan x="5" dy="10">cleanup_log_files(log_only: bool)</tspan></text></g><g id="classid-Simulation-10" class="classGroup" transform="translate(930.35546875,0 )"><rect x="0" y="0" width="300.703125" height="138.09375" class=" "></rect><text y="15" x="0"><tspan class="title" x="125.65625">Simulation</tspan></text><line x1="0" y1="21" y2="21" x2="300.703125"></line><text x="5" y="31" fill="white" class="classText"><tspan x="5">env: WombatEnvironment</tspan><tspan x="5" dy="10">library_path: pathlib.Path</tspan><tspan x="5" dy="10">config: dict | Configuration</tspan><tspan x="5" dy="10">windfarm: Windfarm</tspan><tspan x="5" dy="10">repair_manager: RepairManager</tspan><tspan x="5" dy="10">service_equipment: list[ServiceEquipment]</tspan><tspan x="5" dy="10">metrics: Metrics</tspan></text><line x1="0" y1="97" y2="97" x2="300.703125"></line><text x="5" y="112" fill="white" class="classText"><tspan x="5">from_config(cls, config: pathlib.Path | dict)</tspan><tspan x="5" dy="10">run(until: int, create_metrics: bool, save_metrics_inputs: bool)</tspan><tspan x="5" dy="10">save_metrics_inputs()</tspan></text></g><g id="classid-Configuration-11" class="classGroup" transform="translate(0,281.609375 )"><rect x="0" y="0" width="165.359375" height="161.125" class=" "></rect><text y="15" x="0"><tspan class="title" x="50.9765625">Configuration</tspan></text><line x1="0" y1="21.0625" y2="21.0625" x2="165.359375"></line><text x="5" y="31.0625" fill="white" class="classText"><tspan x="5">name: str</tspan><tspan x="5" dy="10">library_path: pathlib.Path</tspan><tspan x="5" dy="10">layout: str</tspan><tspan x="5" dy="10">service_equipment: str | list[str]</tspan><tspan x="5" dy="10">weather: str | pandas.DataFrame</tspan><tspan x="5" dy="10">workday_start: int</tspan><tspan x="5" dy="10">workday_end: int</tspan><tspan x="5" dy="10">inflation_rate: float</tspan><tspan x="5" dy="10">fixed_costs: str</tspan><tspan x="5" dy="10">project_capacity: float</tspan><tspan x="5" dy="10">start_year: int</tspan><tspan x="5" dy="10">end_year: int</tspan><tspan x="5" dy="10">SAM_settings: str</tspan></text><line x1="0" y1="157.125" y2="157.125" x2="165.359375"></line><text x="5" y="172.125" fill="white" class="classText"></text></g><g id="classid-Metrics-12" class="classGroup" transform="translate(215.359375,188.09375 )"><rect x="0" y="0" width="331.296875" height="348.15625" class=" "></rect><text y="15" x="0"><tspan class="title" x="148.7265625">Metrics</tspan></text><line x1="0" y1="21" y2="21" x2="331.296875"></line><text x="5" y="31" fill="white" class="classText"><tspan x="5">data_dir: pathlib.Path</tspan><tspan x="5" dy="10">events: str | pandas.DataFrame</tspan><tspan x="5" dy="10">operations: str | pandas.DataFrame</tspan><tspan x="5" dy="10">potential: str | pandas.DataFrame</tspan><tspan x="5" dy="10">production: str | pandas.DataFrame</tspan><tspan x="5" dy="10">inflation_rate: float</tspan><tspan x="5" dy="10">project_capacity: float</tspan><tspan x="5" dy="10">turbine_capacities: list[float]</tspan><tspan x="5" dy="10">substation_id: list[str]</tspan><tspan x="5" dy="10">turbine_id: list[str]</tspan><tspan x="5" dy="10">service_equipment_names: list[str]</tspan><tspan x="5" dy="10">fixed_costs: str</tspan><tspan x="5" dy="10">SAM_settings: str</tspan></text><line x1="0" y1="157.0625" y2="157.0625" x2="331.296875"></line><text x="5" y="172.0625" fill="white" class="classText"><tspan x="5">from_simulation_outputs(cls, fpath: Path | str, fname: str)</tspan><tspan x="5" dy="10">time_based_availability(frequency: str, by: str)</tspan><tspan x="5" dy="10">production_based_availability(frequency: str, by: str)</tspan><tspan x="5" dy="10">capacity_factor(which: str, frequency: str, by: str)</tspan><tspan x="5" dy="10">task_completion_rate(which: str, frequency: str)</tspan><tspan x="5" dy="10">equipment_costs(frequency: str, by_equipment: bool)</tspan><tspan x="5" dy="10">service_equipment_utilization(frequency: str)</tspan><tspan x="5" dy="10">labor_costs(frequency: str, by_type: bool)</tspan><tspan x="5" dy="10">equipment_labor_cost_breakdowns(frequency: str, by_category: bool)</tspan><tspan x="5" dy="10">component_costs(frequency: str, by_category: bool, by_action: bool)</tspan><tspan x="5" dy="10">project_fixed_costs(frequency: str, resolution: str)</tspan><tspan x="5" dy="10">process_times()</tspan><tspan x="5" dy="10">power_production(frequency: str, by_turbine: bool)</tspan><tspan x="5" dy="10">pysam_npv()</tspan><tspan x="5" dy="10">pysam_lcoe_real()</tspan><tspan x="5" dy="10">pysam_lcoe_nominal()</tspan><tspan x="5" dy="10">pysam_irr()</tspan><tspan x="5" dy="10">pysam_all_outputs()</tspan></text></g><path d="M1745.622764966447,426.28125L1711.199960388706,448.7760416666667C1676.7771558109646,471.2708333333333,1607.9315466554824,516.2604166666666,1573.508742077741,547.0833333333334C1539.0859375,577.90625,1539.0859375,594.5625,1539.0859375,602.890625L1539.0859375,611.21875" id="edge0" class="relation" marker-start="url(#aggregationStart)"></path><path d="M1843.7265625,744.4375L1843.7265625,753.5989583333334C1843.7265625,762.7604166666666,1843.7265625,781.0833333333334,1843.7265625,815.0026041666666C1843.7265625,848.921875,1843.7265625,898.4375,1843.7265625,923.1953125L1843.7265625,947.953125" id="edge1" class="relation" marker-start="url(#aggregationStart)"></path><path d="M1843.7265625,426.28125L1843.7265625,448.7760416666667C1843.7265625,471.2708333333333,1843.7265625,516.2604166666666,1843.7265625,547.9166666666666C1843.7265625,579.5729166666666,1843.7265625,597.8958333333334,1843.7265625,607.0572916666666L1843.7265625,616.21875" id="edge2" class="relation" marker-start="url(#compositionStart)"></path><path d="M1843.7265625,999.078125L1843.7265625,1023.8359375C1843.7265625,1048.59375,1843.7265625,1098.109375,1846.2899244013431,1127.0338541666667C1848.8532863026865,1155.9583333333333,1853.9800101053727,1164.2916666666667,1856.5433720067158,1168.4583333333333L1859.106733908059,1172.625" id="edge3" class="relation" marker-start="url(#compositionStart)"></path><path d="M1912.7142075778982,426.28125L1936.9206938149152,448.7760416666667C1961.1271800519323,471.2708333333333,2009.540152525966,516.2604166666666,2033.746638762983,558.6015625C2057.953125,600.9427083333334,2057.953125,640.6354166666666,2057.953125,680.328125C2057.953125,720.0208333333334,2057.953125,759.7135416666666,2057.953125,808.578125C2057.953125,857.4427083333334,2057.953125,915.4791666666666,2057.953125,973.515625C2057.953125,1031.5520833333333,2057.953125,1089.5885416666667,2055.389763098657,1122.7734375C2052.8264011973138,1155.9583333333333,2047.6996773946273,1164.2916666666667,2045.1363154932842,1168.4583333333333L2042.572953591941,1172.625" id="edge4" class="relation" marker-start="url(#aggregationStart)"></path><path d="M1513.8534436097625,749.4375L1510.8127655081353,757.765625C1507.7720874065083,766.09375,1501.6907312032542,782.75,1498.650053101627,820.0963541666666C1495.609375,857.4427083333334,1495.609375,915.4791666666666,1495.609375,973.515625C1495.609375,1031.5520833333333,1495.609375,1089.5885416666667,1487.2657212861586,1134.4401041666667C1478.9220675723175,1179.2916666666667,1462.2347601446352,1210.9583333333333,1453.8911064307938,1226.7916666666667L1445.5474527169524,1242.625" id="edge5" class="relation" marker-start="url(#dependencyStart)"></path><path d="M1614.5,743.426392586595L1625.6510416666667,752.7563688221625C1636.8020833333333,762.0863450577299,1659.1041666666667,780.746297528865,1633.4557291666667,810.0347365107355C1607.8072916666667,839.3231754926059,1534.2083333333333,879.2401009852116,1497.4088541666667,899.1985637315146L1460.609375,919.1570264778176" id="edge6" class="relation" marker-start="url(#dependencyStart)"></path><path d="M1360.3828125,1122.625L1360.3828125,1126.7916666666667C1360.3828125,1130.9583333333333,1360.3828125,1139.2916666666667,1364.336527836983,1159.2916666666667C1368.2902431739658,1179.2916666666667,1376.1976738479316,1210.9583333333333,1380.1513891849143,1226.7916666666667L1384.1051045218971,1242.625" id="edge7" class="relation" marker-start="url(#compositionStart)"></path><path d="M1093.0105516418448,774.40625L1091.4892617848707,778.5729166666666C1089.9679719278965,782.7395833333334,1086.9253922139483,791.0729166666666,1085.4041023569741,804.4114583333334C1083.8828125,817.75,1083.8828125,836.09375,1083.8828125,845.265625L1083.8828125,854.4375" id="edge8" class="relation" marker-start="url(#aggregationStart)"></path><path d="M1224.125,729.7766667993764L1246.8346354166667,741.3815973328137C1269.5442708333333,752.986527866251,1314.9635416666667,776.1963889331255,1337.6731770833333,791.9679861332294C1360.3828125,807.7395833333334,1360.3828125,816.0729166666666,1360.3828125,820.2395833333334L1360.3828125,824.40625" id="edge9" class="relation" marker-start="url(#aggregationStart)"></path><path d="M930.35546875,83.2149182836259L789.076171875,96.5280569030216C647.796875,109.84119552241727,365.23828125,136.46747276120865,223.958984375,169.533215547271C82.6796875,202.59895833333334,82.6796875,242.10416666666666,82.6796875,261.8567708333333L82.6796875,281.609375" id="edge10" class="relation" marker-start="url(#compositionStart)"></path><path d="M930.35546875,89.25569362602792L838.7975260416666,101.56203635502327C747.2395833333334,113.86837908401861,564.1236979166666,138.4810645420093,472.5657552083333,154.95407393767132C381.0078125,171.42708333333334,381.0078125,179.76041666666666,381.0078125,183.92708333333334L381.0078125,188.09375" id="edge11" class="relation" marker-start="url(#compositionStart)"></path><path d="M930.35546875,128.91199512750757L916.0475260416666,134.60895427292297C901.7395833333334,140.30591341833838,873.1236979166666,151.6998317091692,858.8157552083334,166.56345752125125C844.5078125,181.42708333333334,844.5078125,199.76041666666666,844.5078125,208.92708333333334L844.5078125,218.09375" id="edge12" class="relation" marker-start="url(#compositionStart)"></path><path d="M1114.9580209544774,138.09375L1117.024913295398,142.26041666666666C1119.0918056363182,146.42708333333334,1123.2255903181592,154.76041666666666,1125.2924826590795,192.10677083333334C1127.359375,229.453125,1127.359375,295.8125,1127.359375,362.171875C1127.359375,428.53125,1127.359375,494.890625,1127.359375,532.2369791666666C1127.359375,569.5833333333334,1127.359375,577.9166666666666,1127.359375,582.0833333333334L1127.359375,586.25" id="edge13" class="relation" marker-start="url(#compositionStart)"></path><path d="M1231.05859375,87.5786347065012L1333.169921875,100.16448725541767C1435.28125,112.75033980433413,1639.50390625,137.92204490216707,1741.615234375,173.00268911775024C1843.7265625,208.08333333333334,1843.7265625,253.07291666666666,1843.7265625,275.5677083333333L1843.7265625,298.0625" id="edge14" class="relation" marker-start="url(#compositionStart)"></path><path d="M1231.05859375,83.18260740582008L1372.7180989583333,96.50113117151675C1514.3776041666667,109.81965493721339,1797.6966145833333,136.4567024686067,1939.3561197916667,182.95491373430335C2081.015625,229.453125,2081.015625,295.8125,2081.015625,362.171875C2081.015625,428.53125,2081.015625,494.890625,2081.015625,547.9166666666666C2081.015625,600.9427083333334,2081.015625,640.6354166666666,2081.015625,680.328125C2081.015625,720.0208333333334,2081.015625,759.7135416666666,2081.015625,808.578125C2081.015625,857.4427083333334,2081.015625,915.4791666666666,2081.015625,973.515625C2081.015625,1031.5520833333333,2081.015625,1089.5885416666667,2077.90034709758,1122.7734375C2074.78506919516,1155.9583333333333,2068.5545133903197,1164.2916666666667,2065.4392354878996,1168.4583333333333L2062.3239575854795,1172.625" id="edge15" class="relation" marker-start="url(#compositionStart)"></path></svg>
