<svg width="4134" height="948" xmlns="http://www.w3.org/2000/svg" xmlns:xlink="http://www.w3.org/1999/xlink" overflow="hidden"><defs><clipPath id="clip0"><rect x="123" y="747" width="4134" height="948"/></clipPath></defs><g clip-path="url(#clip0)" transform="translate(-123 -747)"><path d="M318.5 1022.5 4067.16 1022.5" stroke="#323232" stroke-width="6.875" stroke-linecap="butt" stroke-linejoin="round" stroke-miterlimit="10" stroke-opacity="1" fill="none" fill-rule="evenodd"/><text fill="#333333" fill-opacity="1" font-family="Arial,Arial_MSFontService,sans-serif" font-style="normal" font-variant="normal" font-weight="400" font-stretch="normal" font-size="55" text-anchor="start" direction="ltr" writing-mode="lr-tb" unicode-bidi="normal" text-decoration="none" transform="matrix(1 0 0 1 259.899 1123)">Start <tspan fill="#333333" fill-opacity="1" font-family="Arial,Arial_MSFontService,sans-serif" font-style="normal" font-variant="normal" font-weight="400" font-stretch="normal" font-size="55" text-anchor="start" direction="ltr" writing-mode="lr-tb" unicode-bidi="normal" text-decoration="none" x="-65.0146" y="66">simulation</tspan></text><path d="M0 0 0.000360892 69.3585" stroke="#323232" stroke-width="6.875" stroke-linecap="butt" stroke-linejoin="round" stroke-miterlimit="10" stroke-opacity="1" fill="none" fill-rule="evenodd" transform="matrix(1 0 0 -1 317.5 1056.86)"/><path d="M0 0 0.000360892 69.3585" stroke="#323232" stroke-width="6.875" stroke-linecap="butt" stroke-linejoin="round" stroke-miterlimit="10" stroke-opacity="1" fill="none" fill-rule="evenodd" transform="matrix(1 0 0 -1 4066.5 1055.86)"/><text fill="#333333" fill-opacity="1" font-family="Arial,Arial_MSFontService,sans-serif" font-style="normal" font-variant="normal" font-weight="400" font-stretch="normal" font-size="55" text-anchor="start" direction="ltr" writing-mode="lr-tb" unicode-bidi="normal" text-decoration="none" transform="matrix(1 0 0 1 4014.73 1160)">End <tspan fill="#333333" fill-opacity="1" font-family="Arial,Arial_MSFontService,sans-serif" font-style="normal" font-variant="normal" font-weight="400" font-stretch="normal" font-size="55" text-anchor="start" direction="ltr" writing-mode="lr-tb" unicode-bidi="normal" text-decoration="none" x="-74.4793" y="66">simulation</tspan></text><path d="M387.5 1021.5 541.775 1021.5" stroke="#FFFFFF" stroke-width="6.875" stroke-linecap="butt" stroke-linejoin="round" stroke-miterlimit="10" stroke-dasharray="6.875 6.875" stroke-opacity="1" fill="none" fill-rule="evenodd"/><path d="M3856.5 1021.5 4010.77 1021.5" stroke="#FFFFFF" stroke-width="6.875" stroke-linecap="butt" stroke-linejoin="round" stroke-miterlimit="10" stroke-dasharray="6.875 6.875" stroke-opacity="1" fill="none" fill-rule="evenodd"/><path d="M315 750 4008 750 4066 808.002 4008 866 315 866Z" fill="#C7EFFF" fill-rule="evenodd" fill-opacity="1"/><text fill="#333333" fill-opacity="1" font-family="Calibri,Calibri_MSFontService,sans-serif" font-style="normal" font-variant="normal" font-weight="400" font-stretch="normal" font-size="55" text-anchor="start" direction="ltr" writing-mode="lr-tb" unicode-bidi="normal" text-decoration="none" transform="matrix(1 0 0 1 348.468 826)">Wind (and wave) time series</text><path d="M732.5 1022.5C732.5 1009.8 743.021 999.5 756 999.5 768.979 999.5 779.5 1009.8 779.5 1022.5 779.5 1035.2 768.979 1045.5 756 1045.5 743.021 1045.5 732.5 1035.2 732.5 1022.5Z" stroke="#333333" stroke-width="9.16667" stroke-linecap="butt" stroke-linejoin="round" stroke-miterlimit="10" stroke-opacity="1" fill="#FFFFFF" fill-rule="evenodd" fill-opacity="1"/><path d="M1299.5 1022.5C1299.5 1009.8 1309.8 999.5 1322.5 999.5 1335.2 999.5 1345.5 1009.8 1345.5 1022.5 1345.5 1035.2 1335.2 1045.5 1322.5 1045.5 1309.8 1045.5 1299.5 1035.2 1299.5 1022.5Z" stroke="#333333" stroke-width="9.16667" stroke-linecap="butt" stroke-linejoin="round" stroke-miterlimit="10" stroke-opacity="1" fill="#FFFFFF" fill-rule="evenodd" fill-opacity="1"/><path d="M1865.5 1022.5C1865.5 1009.8 1876.02 999.5 1889 999.5 1901.98 999.5 1912.5 1009.8 1912.5 1022.5 1912.5 1035.2 1901.98 1045.5 1889 1045.5 1876.02 1045.5 1865.5 1035.2 1865.5 1022.5Z" stroke="#333333" stroke-width="9.16667" stroke-linecap="butt" stroke-linejoin="round" stroke-miterlimit="10" stroke-opacity="1" fill="#FFFFFF" fill-rule="evenodd" fill-opacity="1"/><path d="M2432.5 1022.5C2432.5 1009.8 2443.02 999.5 2456 999.5 2468.98 999.5 2479.5 1009.8 2479.5 1022.5 2479.5 1035.2 2468.98 1045.5 2456 1045.5 2443.02 1045.5 2432.5 1035.2 2432.5 1022.5Z" stroke="#333333" stroke-width="9.16667" stroke-linecap="butt" stroke-linejoin="round" stroke-miterlimit="10" stroke-opacity="1" fill="#FFFFFF" fill-rule="evenodd" fill-opacity="1"/><path d="M3565.5 1022.5C3565.5 1009.8 3576.02 999.5 3589 999.5 3601.98 999.5 3612.5 1009.8 3612.5 1022.5 3612.5 1035.2 3601.98 1045.5 3589 1045.5 3576.02 1045.5 3565.5 1035.2 3565.5 1022.5Z" stroke="#333333" stroke-width="9.16667" stroke-linecap="butt" stroke-linejoin="round" stroke-miterlimit="10" stroke-opacity="1" fill="#FFFFFF" fill-rule="evenodd" fill-opacity="1"/><path d="M538.5 1071.6C538.5 1063.26 551.484 1056.5 567.5 1056.5L944.5 1056.5C960.516 1056.5 973.5 1063.26 973.5 1071.6L973.5 1192.4C973.5 1200.74 960.516 1207.5 944.5 1207.5L567.5 1207.5C551.484 1207.5 538.5 1200.74 538.5 1192.4L538.5 1071.6Z" stroke="#FFFFFF" stroke-width="9.16667" stroke-linecap="butt" stroke-linejoin="round" stroke-miterlimit="10" stroke-opacity="1" fill="#6A737B" fill-rule="evenodd" fill-opacity="1"/><text fill="#FFFFFF" fill-opacity="1" font-family="Calibri,Calibri_MSFontService,sans-serif" font-style="normal" font-variant="normal" font-weight="400" font-stretch="normal" font-size="55" text-anchor="start" direction="ltr" writing-mode="lr-tb" unicode-bidi="normal" text-decoration="none" transform="matrix(1 0 0 1 610.657 1147)">Subassembly<tspan fill="#333333" fill-opacity="1" font-family="Arial,Arial_MSFontService,sans-serif" font-style="normal" font-variant="normal" font-weight="400" font-stretch="normal" font-size="55" text-anchor="start" direction="ltr" writing-mode="lr-tb" unicode-bidi="normal" text-decoration="none" x="-58.8091" y="117">Fails or reaches </tspan><tspan fill="#333333" fill-opacity="1" font-family="Arial,Arial_MSFontService,sans-serif" font-style="normal" font-variant="normal" font-weight="400" font-stretch="normal" font-size="55" text-anchor="start" direction="ltr" writing-mode="lr-tb" unicode-bidi="normal" text-decoration="none" x="-116.399" y="183">maintenance interval</tspan></text><path d="M1103.5 1071.6C1103.5 1063.26 1116.51 1056.5 1132.57 1056.5L1510.43 1056.5C1526.49 1056.5 1539.5 1063.26 1539.5 1071.6L1539.5 1192.4C1539.5 1200.74 1526.49 1207.5 1510.43 1207.5L1132.57 1207.5C1116.51 1207.5 1103.5 1200.74 1103.5 1192.4L1103.5 1071.6Z" stroke="#FFFFFF" stroke-width="9.16667" stroke-linecap="butt" stroke-linejoin="round" stroke-miterlimit="10" stroke-opacity="1" fill="#5E9732" fill-rule="evenodd" fill-opacity="1"/><text fill="#FFFFFF" fill-opacity="1" font-family="Calibri,Calibri_MSFontService,sans-serif" font-style="normal" font-variant="normal" font-weight="400" font-stretch="normal" font-size="55" text-anchor="start" direction="ltr" writing-mode="lr-tb" unicode-bidi="normal" text-decoration="none" transform="matrix(1 0 0 1 1240.1 1147)">System<tspan fill="#333333" fill-opacity="1" font-family="Arial,Arial_MSFontService,sans-serif" font-style="normal" font-variant="normal" font-weight="400" font-stretch="normal" font-size="55" text-anchor="start" direction="ltr" writing-mode="lr-tb" unicode-bidi="normal" text-decoration="none" x="-129.144" y="117">Requests service</tspan></text><path d="M1668.5 1071.6C1668.5 1063.26 1681.51 1056.5 1697.57 1056.5L2075.43 1056.5C2091.49 1056.5 2104.5 1063.26 2104.5 1071.6L2104.5 1192.4C2104.5 1200.74 2091.49 1207.5 2075.43 1207.5L1697.57 1207.5C1681.51 1207.5 1668.5 1200.74 1668.5 1192.4L1668.5 1071.6Z" stroke="#FFFFFF" stroke-width="9.16667" stroke-linecap="butt" stroke-linejoin="round" stroke-miterlimit="10" stroke-opacity="1" fill="#00A4E4" fill-rule="evenodd" fill-opacity="1"/><text fill="#FFFFFF" fill-opacity="1" font-family="Calibri,Calibri_MSFontService,sans-serif" font-style="normal" font-variant="normal" font-weight="400" font-stretch="normal" font-size="55" text-anchor="start" direction="ltr" writing-mode="lr-tb" unicode-bidi="normal" text-decoration="none" transform="matrix(1 0 0 1 1707.7 1147)">Repair Manager<tspan fill="#333333" fill-opacity="1" font-family="Arial,Arial_MSFontService,sans-serif" font-style="normal" font-variant="normal" font-weight="400" font-stretch="normal" font-size="55" text-anchor="start" direction="ltr" writing-mode="lr-tb" unicode-bidi="normal" text-decoration="none" x="25.0153" y="117">Assigns task</tspan></text><path d="M2234.5 1071.6C2234.5 1063.26 2247.48 1056.5 2263.5 1056.5L2640.5 1056.5C2656.52 1056.5 2669.5 1063.26 2669.5 1071.6L2669.5 1192.4C2669.5 1200.74 2656.52 1207.5 2640.5 1207.5L2263.5 1207.5C2247.48 1207.5 2234.5 1200.74 2234.5 1192.4L2234.5 1071.6Z" stroke="#FFFFFF" stroke-width="9.16667" stroke-linecap="butt" stroke-linejoin="round" stroke-miterlimit="10" stroke-opacity="1" fill="#F6A01A" fill-rule="evenodd" fill-opacity="1"/><text fill="#FFFFFF" fill-opacity="1" font-family="Calibri,Calibri_MSFontService,sans-serif" font-style="normal" font-variant="normal" font-weight="400" font-stretch="normal" font-size="55" text-anchor="start" direction="ltr" writing-mode="lr-tb" unicode-bidi="normal" text-decoration="none" transform="matrix(1 0 0 1 2351.75 1117)">Servicing <tspan fill="#FFFFFF" fill-opacity="1" font-family="Calibri,Calibri_MSFontService,sans-serif" font-style="normal" font-variant="normal" font-weight="400" font-stretch="normal" font-size="55" text-anchor="start" direction="ltr" writing-mode="lr-tb" unicode-bidi="normal" text-decoration="none" x="-22.3438" y="59">Equipment</tspan><tspan fill="#333333" fill-opacity="1" font-family="Arial,Arial_MSFontService,sans-serif" font-style="normal" font-variant="normal" font-weight="400" font-stretch="normal" font-size="55" text-anchor="start" direction="ltr" writing-mode="lr-tb" unicode-bidi="normal" text-decoration="none" x="-101.794" y="147">Conducts service</tspan></text><path d="M3364.5 1071.6C3364.5 1063.26 3377.51 1056.5 3393.57 1056.5L3771.43 1056.5C3787.49 1056.5 3800.5 1063.26 3800.5 1071.6L3800.5 1192.4C3800.5 1200.74 3787.49 1207.5 3771.43 1207.5L3393.57 1207.5C3377.51 1207.5 3364.5 1200.74 3364.5 1192.4L3364.5 1071.6Z" stroke="#FFFFFF" stroke-width="9.16667" stroke-linecap="butt" stroke-linejoin="round" stroke-miterlimit="10" stroke-opacity="1" fill="#5E9732" fill-rule="evenodd" fill-opacity="1"/><text fill="#FFFFFF" fill-opacity="1" font-family="Calibri,Calibri_MSFontService,sans-serif" font-style="normal" font-variant="normal" font-weight="400" font-stretch="normal" font-size="55" text-anchor="start" direction="ltr" writing-mode="lr-tb" unicode-bidi="normal" text-decoration="none" transform="matrix(1 0 0 1 3501.21 1147)">System<tspan fill="#333333" fill-opacity="1" font-family="Arial,Arial_MSFontService,sans-serif" font-style="normal" font-variant="normal" font-weight="400" font-stretch="normal" font-size="55" text-anchor="start" direction="ltr" writing-mode="lr-tb" unicode-bidi="normal" text-decoration="none" x="-42.78" y="117">Returns to </tspan><tspan fill="#333333" fill-opacity="1" font-family="Arial,Arial_MSFontService,sans-serif" font-style="normal" font-variant="normal" font-weight="400" font-stretch="normal" font-size="55" text-anchor="start" direction="ltr" writing-mode="lr-tb" unicode-bidi="normal" text-decoration="none" x="-30.1758" y="183">operation</tspan></text><path d="M732 1411 3554 1411 3612 1469 3554 1527 732 1527Z" fill="#FCD4BA" fill-rule="evenodd" fill-opacity="1"/><text fill="#333333" fill-opacity="1" font-family="Calibri,Calibri_MSFontService,sans-serif" font-style="normal" font-variant="normal" font-weight="400" font-stretch="normal" font-size="55" text-anchor="start" direction="ltr" writing-mode="lr-tb" unicode-bidi="normal" text-decoration="none" transform="matrix(1 0 0 1 765.27 1487)">Accumulate downtime (failures only)</text><path d="M2479 1571 3554 1571 3612 1629 3554 1687 2479 1687Z" fill="#FFE7A8" fill-rule="evenodd" fill-opacity="1"/><text fill="#333333" fill-opacity="1" font-family="Calibri,Calibri_MSFontService,sans-serif" font-style="normal" font-variant="normal" font-weight="400" font-stretch="normal" font-size="55" text-anchor="start" direction="ltr" writing-mode="lr-tb" unicode-bidi="normal" text-decoration="none" transform="matrix(1 0 0 1 2511.55 1647)">Track O&amp;M costs</text><path d="M2130.5 1021.5 2213.73 1021.5" stroke="#FFFFFF" stroke-width="6.875" stroke-linecap="butt" stroke-linejoin="round" stroke-miterlimit="10" stroke-dasharray="6.875 6.875" stroke-opacity="1" fill="none" fill-rule="evenodd"/><text fill="#333333" fill-opacity="1" font-family="Calibri,Calibri_MSFontService,sans-serif" font-style="normal" font-variant="normal" font-weight="400" font-stretch="normal" font-size="50" text-anchor="start" direction="ltr" writing-mode="lr-tb" unicode-bidi="normal" text-decoration="none" transform="matrix(1 0 0 1 1864.03 928)">Wait for weather, equipment, <tspan fill="#333333" fill-opacity="1" font-family="Calibri,Calibri_MSFontService,sans-serif" font-style="normal" font-variant="normal" font-weight="400" font-stretch="normal" font-size="50" text-anchor="start" direction="ltr" writing-mode="lr-tb" unicode-bidi="normal" text-decoration="none" x="240.923" y="55">parts*</tspan></text><path d="M3856 1411 4008 1411 4066 1469 4008 1527 3856 1527 3914 1469Z" fill="#FCD4BA" fill-rule="evenodd" fill-opacity="1"/><path d="M3856 1573 4008 1573 4066 1631 4008 1689 3856 1689 3914 1631Z" fill="#FFE7A8" fill-rule="evenodd" fill-opacity="1"/><path d="M3627 1411 3779 1411 3837 1469 3779 1527 3627 1527 3685 1469Z" fill="#FCD4BA" fill-rule="evenodd" fill-opacity="1"/><path d="M3627 1571 3779 1571 3837 1629 3779 1687 3627 1687 3685 1629Z" fill="#FFE7A8" fill-rule="evenodd" fill-opacity="1"/><path d="M2998.5 1021C2998.5 1008.02 3009.02 997.5 3022 997.5 3034.98 997.5 3045.5 1008.02 3045.5 1021 3045.5 1033.98 3034.98 1044.5 3022 1044.5 3009.02 1044.5 2998.5 1033.98 2998.5 1021Z" stroke="#333333" stroke-width="9.16667" stroke-linecap="butt" stroke-linejoin="round" stroke-miterlimit="10" stroke-opacity="1" fill="#FFFFFF" fill-rule="evenodd" fill-opacity="1"/><path d="M2799.5 1070.6C2799.5 1062.26 2812.48 1055.5 2828.5 1055.5L3205.5 1055.5C3221.52 1055.5 3234.5 1062.26 3234.5 1070.6L3234.5 1191.4C3234.5 1199.74 3221.52 1206.5 3205.5 1206.5L2828.5 1206.5C2812.48 1206.5 2799.5 1199.74 2799.5 1191.4L2799.5 1070.6Z" stroke="#FFFFFF" stroke-width="9.16667" stroke-linecap="butt" stroke-linejoin="round" stroke-miterlimit="10" stroke-opacity="1" fill="#6A737B" fill-rule="evenodd" fill-opacity="1"/><text fill="#FFFFFF" fill-opacity="1" font-family="Calibri,Calibri_MSFontService,sans-serif" font-style="normal" font-variant="normal" font-weight="400" font-stretch="normal" font-size="55" text-anchor="start" direction="ltr" writing-mode="lr-tb" unicode-bidi="normal" text-decoration="none" transform="matrix(1 0 0 1 2871.77 1146)">Subassembly<tspan fill="#333333" fill-opacity="1" font-family="Arial,Arial_MSFontService,sans-serif" font-style="normal" font-variant="normal" font-weight="400" font-stretch="normal" font-size="55" text-anchor="start" direction="ltr" writing-mode="lr-tb" unicode-bidi="normal" text-decoration="none" x="-15.8225" y="117">Resets status</tspan></text></g></svg>
